<svg xmlns="http://www.w3.org/2000/svg" xmlns:xlink="http://www.w3.org/1999/xlink" width="500" zoomAndPan="magnify" viewBox="0 0 375 374.999991" height="500" preserveAspectRatio="xMidYMid meet" version="1.0"><defs><filter x="0%" y="0%" width="100%" height="100%" id="82e31cd523"><feColorMatrix values="0 0 0 0 1 0 0 0 0 1 0 0 0 0 1 0 0 0 1 0" color-interpolation-filters="sRGB"/></filter><clipPath id="5b89e9cef8"><path d="M 0 0 L 108.957031 0 L 108.957031 108.957031 L 0 108.957031 Z M 0 0 " clip-rule="nonzero"/></clipPath><clipPath id="06c7fa79ed"><path d="M 108.957031 54.480469 C 108.957031 56.261719 108.871094 58.042969 108.695312 59.820312 C 108.519531 61.59375 108.257812 63.355469 107.910156 65.105469 C 107.5625 66.855469 107.128906 68.585938 106.613281 70.292969 C 106.09375 72 105.492188 73.679688 104.8125 75.328125 C 104.128906 76.976562 103.367188 78.585938 102.523438 80.160156 C 101.683594 81.734375 100.765625 83.261719 99.777344 84.746094 C 98.785156 86.230469 97.722656 87.660156 96.589844 89.039062 C 95.460938 90.417969 94.261719 91.738281 93 93 C 91.738281 94.261719 90.417969 95.460938 89.039062 96.589844 C 87.660156 97.722656 86.230469 98.785156 84.746094 99.777344 C 83.261719 100.765625 81.734375 101.683594 80.160156 102.523438 C 78.585938 103.367188 76.976562 104.128906 75.328125 104.8125 C 73.679688 105.492188 72 106.09375 70.292969 106.613281 C 68.585938 107.128906 66.855469 107.5625 65.105469 107.910156 C 63.355469 108.257812 61.59375 108.519531 59.820312 108.695312 C 58.042969 108.871094 56.261719 108.957031 54.480469 108.957031 C 52.695312 108.957031 50.914062 108.871094 49.140625 108.695312 C 47.363281 108.519531 45.601562 108.257812 43.851562 107.910156 C 42.101562 107.5625 40.371094 107.128906 38.664062 106.613281 C 36.957031 106.09375 35.277344 105.492188 33.628906 104.8125 C 31.980469 104.128906 30.371094 103.367188 28.796875 102.523438 C 27.222656 101.683594 25.695312 100.765625 24.210938 99.777344 C 22.726562 98.785156 21.296875 97.722656 19.917969 96.589844 C 18.539062 95.460938 17.21875 94.261719 15.957031 93 C 14.695312 91.738281 13.496094 90.417969 12.367188 89.039062 C 11.234375 87.660156 10.171875 86.230469 9.179688 84.746094 C 8.191406 83.261719 7.273438 81.734375 6.433594 80.160156 C 5.589844 78.585938 4.828125 76.976562 4.148438 75.328125 C 3.464844 73.679688 2.863281 72 2.347656 70.292969 C 1.828125 68.585938 1.394531 66.855469 1.046875 65.105469 C 0.699219 63.355469 0.4375 61.59375 0.261719 59.820312 C 0.0859375 58.042969 0 56.261719 0 54.480469 C 0 52.695312 0.0859375 50.914062 0.261719 49.140625 C 0.4375 47.363281 0.699219 45.601562 1.046875 43.851562 C 1.394531 42.101562 1.828125 40.371094 2.347656 38.664062 C 2.863281 36.957031 3.464844 35.277344 4.148438 33.628906 C 4.828125 31.980469 5.589844 30.371094 6.433594 28.796875 C 7.273438 27.222656 8.191406 25.695312 9.179688 24.210938 C 10.171875 22.726562 11.234375 21.296875 12.367188 19.917969 C 13.496094 18.539062 14.695312 17.21875 15.957031 15.957031 C 17.21875 14.695312 18.539062 13.496094 19.917969 12.367188 C 21.296875 11.234375 22.726562 10.171875 24.210938 9.179688 C 25.695312 8.191406 27.222656 7.273438 28.796875 6.433594 C 30.371094 5.589844 31.980469 4.828125 33.628906 4.148438 C 35.277344 3.464844 36.957031 2.863281 38.664062 2.347656 C 40.371094 1.828125 42.101562 1.394531 43.851562 1.046875 C 45.601562 0.699219 47.363281 0.4375 49.140625 0.261719 C 50.914062 0.0859375 52.695312 0 54.480469 0 C 56.261719 0 58.042969 0.0859375 59.820312 0.261719 C 61.59375 0.4375 63.355469 0.699219 65.105469 1.046875 C 66.855469 1.394531 68.585938 1.828125 70.292969 2.347656 C 72 2.863281 73.679688 3.464844 75.328125 4.148438 C 76.976562 4.828125 78.585938 5.589844 80.160156 6.433594 C 81.734375 7.273438 83.261719 8.191406 84.746094 9.179688 C 86.230469 10.171875 87.660156 11.234375 89.039062 12.367188 C 90.417969 13.496094 91.738281 14.695312 93 15.957031 C 94.261719 17.21875 95.460938 18.539062 96.589844 19.917969 C 97.722656 21.296875 98.785156 22.726562 99.777344 24.210938 C 100.765625 25.695312 101.683594 27.222656 102.523438 28.796875 C 103.367188 30.371094 104.128906 31.980469 104.8125 33.628906 C 105.492188 35.277344 106.09375 36.957031 106.613281 38.664062 C 107.128906 40.371094 107.5625 42.101562 107.910156 43.851562 C 108.257812 45.601562 108.519531 47.363281 108.695312 49.140625 C 108.871094 50.914062 108.957031 52.695312 108.957031 54.480469 Z M 108.957031 54.480469 " clip-rule="nonzero"/></clipPath><linearGradient x1="1770.925976" gradientTransform="matrix(0.000000000000000052, 0.84924, -0.84924, 0.000000000000000052, 262.401668, -1503.941884)" y1="244.834" x2="1899.225972" gradientUnits="userSpaceOnUse" y2="244.834" id="f30e951dca"><stop stop-opacity="1" stop-color="rgb(5.499268%, 100%, 79.998779%)" offset="0"/><stop stop-opacity="1" stop-color="rgb(6.080627%, 99.993896%, 79.682922%)" offset="0.00390625"/><stop stop-opacity="1" stop-color="rgb(6.661987%, 99.989319%, 79.367065%)" offset="0.0078125"/><stop stop-opacity="1" stop-color="rgb(7.243347%, 99.984741%, 79.049683%)" offset="0.0117187"/><stop stop-opacity="1" stop-color="rgb(7.824707%, 99.980164%, 78.733826%)" offset="0.015625"/><stop stop-opacity="1" stop-color="rgb(8.406067%, 99.97406%, 78.417969%)" offset="0.0195312"/><stop stop-opacity="1" stop-color="rgb(8.987427%, 99.969482%, 78.102112%)" offset="0.0234375"/><stop stop-opacity="1" stop-color="rgb(9.568787%, 99.964905%, 77.786255%)" offset="0.0273438"/><stop stop-opacity="1" stop-color="rgb(10.150146%, 99.960327%, 77.470398%)" offset="0.03125"/><stop stop-opacity="1" stop-color="rgb(10.731506%, 99.954224%, 77.153015%)" offset="0.0351562"/><stop stop-opacity="1" stop-color="rgb(11.312866%, 99.949646%, 76.837158%)" offset="0.0390625"/><stop stop-opacity="1" stop-color="rgb(11.894226%, 99.945068%, 76.521301%)" offset="0.0429688"/><stop stop-opacity="1" stop-color="rgb(12.475586%, 99.940491%, 76.205444%)" offset="0.046875"/><stop stop-opacity="1" stop-color="rgb(13.056946%, 99.934387%, 75.888062%)" offset="0.0507812"/><stop stop-opacity="1" stop-color="rgb(13.638306%, 99.92981%, 75.572205%)" offset="0.0546875"/><stop stop-opacity="1" stop-color="rgb(14.219666%, 99.925232%, 75.256348%)" offset="0.0585938"/><stop stop-opacity="1" stop-color="rgb(14.801025%, 99.920654%, 74.940491%)" offset="0.0625"/><stop stop-opacity="1" stop-color="rgb(15.382385%, 99.914551%, 74.623108%)" offset="0.0664062"/><stop stop-opacity="1" stop-color="rgb(15.963745%, 99.909973%, 74.307251%)" offset="0.0703125"/><stop stop-opacity="1" stop-color="rgb(16.543579%, 99.905396%, 73.991394%)" offset="0.0742187"/><stop stop-opacity="1" stop-color="rgb(17.124939%, 99.900818%, 73.675537%)" offset="0.078125"/><stop stop-opacity="1" stop-color="rgb(17.706299%, 99.89624%, 73.358154%)" offset="0.0820312"/><stop stop-opacity="1" stop-color="rgb(18.287659%, 99.891663%, 73.042297%)" offset="0.0859375"/><stop stop-opacity="1" stop-color="rgb(18.869019%, 99.885559%, 72.72644%)" offset="0.0898438"/><stop stop-opacity="1" stop-color="rgb(19.450378%, 99.880981%, 72.410583%)" offset="0.09375"/><stop stop-opacity="1" stop-color="rgb(20.031738%, 99.876404%, 72.094727%)" offset="0.0976562"/><stop stop-opacity="1" stop-color="rgb(20.613098%, 99.871826%, 71.77887%)" offset="0.101562"/><stop stop-opacity="1" stop-color="rgb(21.194458%, 99.865723%, 71.461487%)" offset="0.105469"/><stop stop-opacity="1" stop-color="rgb(21.775818%, 99.861145%, 71.14563%)" offset="0.109375"/><stop stop-opacity="1" stop-color="rgb(22.357178%, 99.856567%, 70.829773%)" offset="0.113281"/><stop stop-opacity="1" stop-color="rgb(22.938538%, 99.85199%, 70.513916%)" offset="0.117187"/><stop stop-opacity="1" stop-color="rgb(23.519897%, 99.845886%, 70.196533%)" offset="0.121094"/><stop stop-opacity="1" stop-color="rgb(24.101257%, 99.841309%, 69.880676%)" offset="0.125"/><stop stop-opacity="1" stop-color="rgb(24.682617%, 99.836731%, 69.564819%)" offset="0.128906"/><stop stop-opacity="1" stop-color="rgb(25.263977%, 99.832153%, 69.248962%)" offset="0.132812"/><stop stop-opacity="1" stop-color="rgb(25.845337%, 99.82605%, 68.93158%)" offset="0.136719"/><stop stop-opacity="1" stop-color="rgb(26.426697%, 99.821472%, 68.615723%)" offset="0.140625"/><stop stop-opacity="1" stop-color="rgb(27.008057%, 99.816895%, 68.299866%)" offset="0.144531"/><stop stop-opacity="1" stop-color="rgb(27.589417%, 99.812317%, 67.984009%)" offset="0.148437"/><stop stop-opacity="1" stop-color="rgb(28.170776%, 99.806213%, 67.668152%)" offset="0.152344"/><stop stop-opacity="1" stop-color="rgb(28.752136%, 99.801636%, 67.352295%)" offset="0.15625"/><stop stop-opacity="1" stop-color="rgb(29.333496%, 99.797058%, 67.034912%)" offset="0.160156"/><stop stop-opacity="1" stop-color="rgb(29.914856%, 99.79248%, 66.719055%)" offset="0.164062"/><stop stop-opacity="1" stop-color="rgb(30.496216%, 99.787903%, 66.403198%)" offset="0.167969"/><stop stop-opacity="1" stop-color="rgb(31.077576%, 99.783325%, 66.087341%)" offset="0.171875"/><stop stop-opacity="1" stop-color="rgb(31.658936%, 99.777222%, 65.769958%)" offset="0.175781"/><stop stop-opacity="1" stop-color="rgb(32.240295%, 99.772644%, 65.454102%)" offset="0.179688"/><stop stop-opacity="1" stop-color="rgb(32.821655%, 99.768066%, 65.138245%)" offset="0.183594"/><stop stop-opacity="1" stop-color="rgb(33.403015%, 99.763489%, 64.822388%)" offset="0.1875"/><stop stop-opacity="1" stop-color="rgb(33.984375%, 99.757385%, 64.505005%)" offset="0.191406"/><stop stop-opacity="1" stop-color="rgb(34.565735%, 99.752808%, 64.189148%)" offset="0.195312"/><stop stop-opacity="1" stop-color="rgb(35.147095%, 99.74823%, 63.873291%)" offset="0.199219"/><stop stop-opacity="1" stop-color="rgb(35.728455%, 99.743652%, 63.557434%)" offset="0.203125"/><stop stop-opacity="1" stop-color="rgb(36.309814%, 99.737549%, 63.240051%)" offset="0.207031"/><stop stop-opacity="1" stop-color="rgb(36.891174%, 99.732971%, 62.924194%)" offset="0.210937"/><stop stop-opacity="1" stop-color="rgb(37.472534%, 99.728394%, 62.608337%)" offset="0.214844"/><stop stop-opacity="1" stop-color="rgb(38.053894%, 99.723816%, 62.29248%)" offset="0.21875"/><stop stop-opacity="1" stop-color="rgb(38.635254%, 99.717712%, 61.976624%)" offset="0.222656"/><stop stop-opacity="1" stop-color="rgb(39.216614%, 99.713135%, 61.660767%)" offset="0.226562"/><stop stop-opacity="1" stop-color="rgb(39.797974%, 99.708557%, 61.343384%)" offset="0.230469"/><stop stop-opacity="1" stop-color="rgb(40.379333%, 99.703979%, 61.027527%)" offset="0.234375"/><stop stop-opacity="1" stop-color="rgb(40.959167%, 99.699402%, 60.71167%)" offset="0.238281"/><stop stop-opacity="1" stop-color="rgb(41.540527%, 99.694824%, 60.395813%)" offset="0.242187"/><stop stop-opacity="1" stop-color="rgb(42.121887%, 99.688721%, 60.07843%)" offset="0.246094"/><stop stop-opacity="1" stop-color="rgb(42.703247%, 99.684143%, 59.762573%)" offset="0.25"/><stop stop-opacity="1" stop-color="rgb(43.284607%, 99.679565%, 59.446716%)" offset="0.253906"/><stop stop-opacity="1" stop-color="rgb(43.865967%, 99.674988%, 59.130859%)" offset="0.257812"/><stop stop-opacity="1" stop-color="rgb(44.447327%, 99.668884%, 58.813477%)" offset="0.261719"/><stop stop-opacity="1" stop-color="rgb(45.028687%, 99.664307%, 58.49762%)" offset="0.265625"/><stop stop-opacity="1" stop-color="rgb(45.610046%, 99.659729%, 58.181763%)" offset="0.269531"/><stop stop-opacity="1" stop-color="rgb(46.191406%, 99.655151%, 57.865906%)" offset="0.273437"/><stop stop-opacity="1" stop-color="rgb(46.772766%, 99.649048%, 57.550049%)" offset="0.277344"/><stop stop-opacity="1" stop-color="rgb(47.354126%, 99.64447%, 57.234192%)" offset="0.28125"/><stop stop-opacity="1" stop-color="rgb(47.935486%, 99.639893%, 56.916809%)" offset="0.285156"/><stop stop-opacity="1" stop-color="rgb(48.516846%, 99.635315%, 56.600952%)" offset="0.289062"/><stop stop-opacity="1" stop-color="rgb(49.098206%, 99.629211%, 56.285095%)" offset="0.292969"/><stop stop-opacity="1" stop-color="rgb(49.679565%, 99.624634%, 55.969238%)" offset="0.296875"/><stop stop-opacity="1" stop-color="rgb(50.260925%, 99.620056%, 55.651855%)" offset="0.300781"/><stop stop-opacity="1" stop-color="rgb(50.842285%, 99.615479%, 55.335999%)" offset="0.304688"/><stop stop-opacity="1" stop-color="rgb(51.423645%, 99.609375%, 55.020142%)" offset="0.308594"/><stop stop-opacity="1" stop-color="rgb(52.005005%, 99.604797%, 54.704285%)" offset="0.3125"/><stop stop-opacity="1" stop-color="rgb(52.586365%, 99.60022%, 54.386902%)" offset="0.316406"/><stop stop-opacity="1" stop-color="rgb(53.167725%, 99.595642%, 54.071045%)" offset="0.320312"/><stop stop-opacity="1" stop-color="rgb(53.749084%, 99.591064%, 53.755188%)" offset="0.324219"/><stop stop-opacity="1" stop-color="rgb(54.330444%, 99.586487%, 53.439331%)" offset="0.328125"/><stop stop-opacity="1" stop-color="rgb(54.911804%, 99.580383%, 53.121948%)" offset="0.332031"/><stop stop-opacity="1" stop-color="rgb(55.493164%, 99.575806%, 52.806091%)" offset="0.335937"/><stop stop-opacity="1" stop-color="rgb(56.074524%, 99.571228%, 52.490234%)" offset="0.339844"/><stop stop-opacity="1" stop-color="rgb(56.655884%, 99.56665%, 52.174377%)" offset="0.34375"/><stop stop-opacity="1" stop-color="rgb(57.237244%, 99.560547%, 51.858521%)" offset="0.347656"/><stop stop-opacity="1" stop-color="rgb(57.818604%, 99.555969%, 51.542664%)" offset="0.351562"/><stop stop-opacity="1" stop-color="rgb(58.399963%, 99.551392%, 51.225281%)" offset="0.355469"/><stop stop-opacity="1" stop-color="rgb(58.981323%, 99.546814%, 50.909424%)" offset="0.359375"/><stop stop-opacity="1" stop-color="rgb(59.562683%, 99.54071%, 50.593567%)" offset="0.363281"/><stop stop-opacity="1" stop-color="rgb(60.144043%, 99.536133%, 50.27771%)" offset="0.367187"/><stop stop-opacity="1" stop-color="rgb(60.725403%, 99.531555%, 49.960327%)" offset="0.371094"/><stop stop-opacity="1" stop-color="rgb(61.306763%, 99.526978%, 49.64447%)" offset="0.375"/><stop stop-opacity="1" stop-color="rgb(61.888123%, 99.520874%, 49.328613%)" offset="0.378906"/><stop stop-opacity="1" stop-color="rgb(62.469482%, 99.516296%, 49.012756%)" offset="0.382812"/><stop stop-opacity="1" stop-color="rgb(63.050842%, 99.511719%, 48.695374%)" offset="0.386719"/><stop stop-opacity="1" stop-color="rgb(63.632202%, 99.507141%, 48.379517%)" offset="0.390625"/><stop stop-opacity="1" stop-color="rgb(64.213562%, 99.502563%, 48.06366%)" offset="0.394531"/><stop stop-opacity="1" stop-color="rgb(64.794922%, 99.497986%, 47.747803%)" offset="0.398437"/><stop stop-opacity="1" stop-color="rgb(65.376282%, 99.491882%, 47.431946%)" offset="0.402344"/><stop stop-opacity="1" stop-color="rgb(65.957642%, 99.487305%, 47.116089%)" offset="0.40625"/><stop stop-opacity="1" stop-color="rgb(66.537476%, 99.482727%, 46.798706%)" offset="0.410156"/><stop stop-opacity="1" stop-color="rgb(67.118835%, 99.478149%, 46.482849%)" offset="0.414062"/><stop stop-opacity="1" stop-color="rgb(67.700195%, 99.472046%, 46.166992%)" offset="0.417969"/><stop stop-opacity="1" stop-color="rgb(68.281555%, 99.467468%, 45.851135%)" offset="0.421875"/><stop stop-opacity="1" stop-color="rgb(68.862915%, 99.462891%, 45.533752%)" offset="0.425781"/><stop stop-opacity="1" stop-color="rgb(69.444275%, 99.458313%, 45.217896%)" offset="0.429687"/><stop stop-opacity="1" stop-color="rgb(70.025635%, 99.452209%, 44.902039%)" offset="0.433594"/><stop stop-opacity="1" stop-color="rgb(70.606995%, 99.447632%, 44.586182%)" offset="0.4375"/><stop stop-opacity="1" stop-color="rgb(71.188354%, 99.443054%, 44.268799%)" offset="0.441406"/><stop stop-opacity="1" stop-color="rgb(71.769714%, 99.438477%, 43.952942%)" offset="0.445312"/><stop stop-opacity="1" stop-color="rgb(72.351074%, 99.432373%, 43.637085%)" offset="0.449219"/><stop stop-opacity="1" stop-color="rgb(72.932434%, 99.427795%, 43.321228%)" offset="0.453125"/><stop stop-opacity="1" stop-color="rgb(73.513794%, 99.423218%, 43.003845%)" offset="0.457031"/><stop stop-opacity="1" stop-color="rgb(74.095154%, 99.41864%, 42.687988%)" offset="0.460938"/><stop stop-opacity="1" stop-color="rgb(74.676514%, 99.412537%, 42.372131%)" offset="0.464844"/><stop stop-opacity="1" stop-color="rgb(75.257874%, 99.407959%, 42.056274%)" offset="0.46875"/><stop stop-opacity="1" stop-color="rgb(75.839233%, 99.403381%, 41.740417%)" offset="0.472656"/><stop stop-opacity="1" stop-color="rgb(76.420593%, 99.398804%, 41.424561%)" offset="0.476562"/><stop stop-opacity="1" stop-color="rgb(77.001953%, 99.394226%, 41.107178%)" offset="0.480469"/><stop stop-opacity="1" stop-color="rgb(77.583313%, 99.389648%, 40.791321%)" offset="0.484375"/><stop stop-opacity="1" stop-color="rgb(78.164673%, 99.383545%, 40.475464%)" offset="0.488281"/><stop stop-opacity="1" stop-color="rgb(78.746033%, 99.378967%, 40.159607%)" offset="0.492187"/><stop stop-opacity="1" stop-color="rgb(79.327393%, 99.37439%, 39.842224%)" offset="0.496094"/><stop stop-opacity="1" stop-color="rgb(79.908752%, 99.369812%, 39.526367%)" offset="0.5"/><stop stop-opacity="1" stop-color="rgb(80.490112%, 99.363708%, 39.21051%)" offset="0.503906"/><stop stop-opacity="1" stop-color="rgb(81.071472%, 99.359131%, 38.894653%)" offset="0.507812"/><stop stop-opacity="1" stop-color="rgb(81.652832%, 99.354553%, 38.577271%)" offset="0.511719"/><stop stop-opacity="1" stop-color="rgb(82.234192%, 99.349976%, 38.261414%)" offset="0.515625"/><stop stop-opacity="1" stop-color="rgb(82.815552%, 99.343872%, 37.945557%)" offset="0.519531"/><stop stop-opacity="1" stop-color="rgb(83.396912%, 99.339294%, 37.6297%)" offset="0.523437"/><stop stop-opacity="1" stop-color="rgb(83.978271%, 99.334717%, 37.313843%)" offset="0.527344"/><stop stop-opacity="1" stop-color="rgb(84.559631%, 99.330139%, 36.997986%)" offset="0.53125"/><stop stop-opacity="1" stop-color="rgb(85.140991%, 99.324036%, 36.680603%)" offset="0.535156"/><stop stop-opacity="1" stop-color="rgb(85.722351%, 99.319458%, 36.364746%)" offset="0.539063"/><stop stop-opacity="1" stop-color="rgb(86.303711%, 99.31488%, 36.048889%)" offset="0.542969"/><stop stop-opacity="1" stop-color="rgb(86.885071%, 99.310303%, 35.733032%)" offset="0.546875"/><stop stop-opacity="1" stop-color="rgb(87.466431%, 99.305725%, 35.415649%)" offset="0.550781"/><stop stop-opacity="1" stop-color="rgb(88.047791%, 99.301147%, 35.099792%)" offset="0.554688"/><stop stop-opacity="1" stop-color="rgb(88.62915%, 99.295044%, 34.783936%)" offset="0.558594"/><stop stop-opacity="1" stop-color="rgb(89.21051%, 99.290466%, 34.468079%)" offset="0.5625"/><stop stop-opacity="1" stop-color="rgb(89.79187%, 99.285889%, 34.150696%)" offset="0.566406"/><stop stop-opacity="1" stop-color="rgb(90.37323%, 99.281311%, 33.834839%)" offset="0.570312"/><stop stop-opacity="1" stop-color="rgb(90.953064%, 99.275208%, 33.518982%)" offset="0.574219"/><stop stop-opacity="1" stop-color="rgb(91.534424%, 99.27063%, 33.203125%)" offset="0.578125"/><stop stop-opacity="1" stop-color="rgb(92.115784%, 99.266052%, 32.885742%)" offset="0.582031"/><stop stop-opacity="1" stop-color="rgb(92.697144%, 99.261475%, 32.569885%)" offset="0.585938"/><stop stop-opacity="1" stop-color="rgb(93.278503%, 99.255371%, 32.254028%)" offset="0.589844"/><stop stop-opacity="1" stop-color="rgb(93.859863%, 99.250793%, 31.938171%)" offset="0.59375"/><stop stop-opacity="1" stop-color="rgb(94.441223%, 99.246216%, 31.622314%)" offset="0.597656"/><stop stop-opacity="1" stop-color="rgb(95.022583%, 99.241638%, 31.306458%)" offset="0.601562"/><stop stop-opacity="1" stop-color="rgb(95.603943%, 99.235535%, 30.989075%)" offset="0.605469"/><stop stop-opacity="1" stop-color="rgb(96.185303%, 99.230957%, 30.673218%)" offset="0.609375"/><stop stop-opacity="1" stop-color="rgb(96.766663%, 99.226379%, 30.357361%)" offset="0.613281"/><stop stop-opacity="1" stop-color="rgb(97.348022%, 99.221802%, 30.041504%)" offset="0.617187"/><stop stop-opacity="1" stop-color="rgb(97.929382%, 99.215698%, 29.724121%)" offset="0.621094"/><stop stop-opacity="1" stop-color="rgb(98.510742%, 99.211121%, 29.408264%)" offset="0.625"/><stop stop-opacity="1" stop-color="rgb(99.092102%, 99.206543%, 29.092407%)" offset="0.628906"/><stop stop-opacity="1" stop-color="rgb(99.673462%, 99.201965%, 28.77655%)" offset="0.632813"/><stop stop-opacity="1" stop-color="rgb(99.836731%, 98.857117%, 28.663635%)" offset="0.636719"/><stop stop-opacity="1" stop-color="rgb(100%, 98.513794%, 28.55072%)" offset="0.640625"/><stop stop-opacity="1" stop-color="rgb(100%, 98.03772%, 28.515625%)" offset="0.644531"/><stop stop-opacity="1" stop-color="rgb(100%, 97.561646%, 28.482056%)" offset="0.648438"/><stop stop-opacity="1" stop-color="rgb(100%, 97.085571%, 28.448486%)" offset="0.652344"/><stop stop-opacity="1" stop-color="rgb(100%, 96.609497%, 28.414917%)" offset="0.65625"/><stop stop-opacity="1" stop-color="rgb(100%, 96.133423%, 28.379822%)" offset="0.660156"/><stop stop-opacity="1" stop-color="rgb(100%, 95.657349%, 28.346252%)" offset="0.664062"/><stop stop-opacity="1" stop-color="rgb(100%, 95.181274%, 28.312683%)" offset="0.667969"/><stop stop-opacity="1" stop-color="rgb(100%, 94.706726%, 28.279114%)" offset="0.671875"/><stop stop-opacity="1" stop-color="rgb(100%, 94.230652%, 28.244019%)" offset="0.675781"/><stop stop-opacity="1" stop-color="rgb(100%, 93.754578%, 28.210449%)" offset="0.679688"/><stop stop-opacity="1" stop-color="rgb(100%, 93.278503%, 28.17688%)" offset="0.683594"/><stop stop-opacity="1" stop-color="rgb(100%, 92.802429%, 28.143311%)" offset="0.6875"/><stop stop-opacity="1" stop-color="rgb(100%, 92.326355%, 28.109741%)" offset="0.691406"/><stop stop-opacity="1" stop-color="rgb(100%, 91.850281%, 28.076172%)" offset="0.695312"/><stop stop-opacity="1" stop-color="rgb(100%, 91.374207%, 28.041077%)" offset="0.699219"/><stop stop-opacity="1" stop-color="rgb(100%, 90.898132%, 28.007507%)" offset="0.703125"/><stop stop-opacity="1" stop-color="rgb(100%, 90.422058%, 27.973938%)" offset="0.707031"/><stop stop-opacity="1" stop-color="rgb(100%, 89.945984%, 27.940369%)" offset="0.710938"/><stop stop-opacity="1" stop-color="rgb(100%, 89.46991%, 27.905273%)" offset="0.714844"/><stop stop-opacity="1" stop-color="rgb(100%, 88.993835%, 27.871704%)" offset="0.71875"/><stop stop-opacity="1" stop-color="rgb(100%, 88.517761%, 27.838135%)" offset="0.722656"/><stop stop-opacity="1" stop-color="rgb(100%, 88.043213%, 27.804565%)" offset="0.726562"/><stop stop-opacity="1" stop-color="rgb(100%, 87.567139%, 27.76947%)" offset="0.730469"/><stop stop-opacity="1" stop-color="rgb(100%, 87.091064%, 27.735901%)" offset="0.734375"/><stop stop-opacity="1" stop-color="rgb(100%, 86.61499%, 27.702332%)" offset="0.738281"/><stop stop-opacity="1" stop-color="rgb(100%, 86.138916%, 27.668762%)" offset="0.742188"/><stop stop-opacity="1" stop-color="rgb(100%, 85.662842%, 27.633667%)" offset="0.746094"/><stop stop-opacity="1" stop-color="rgb(100%, 85.186768%, 27.600098%)" offset="0.75"/><stop stop-opacity="1" stop-color="rgb(100%, 84.710693%, 27.566528%)" offset="0.753906"/><stop stop-opacity="1" stop-color="rgb(100%, 84.234619%, 27.532959%)" offset="0.757813"/><stop stop-opacity="1" stop-color="rgb(100%, 83.758545%, 27.497864%)" offset="0.761719"/><stop stop-opacity="1" stop-color="rgb(100%, 83.282471%, 27.464294%)" offset="0.765625"/><stop stop-opacity="1" stop-color="rgb(100%, 82.806396%, 27.430725%)" offset="0.769531"/><stop stop-opacity="1" stop-color="rgb(100%, 82.330322%, 27.397156%)" offset="0.773438"/><stop stop-opacity="1" stop-color="rgb(100%, 81.854248%, 27.363586%)" offset="0.777344"/><stop stop-opacity="1" stop-color="rgb(100%, 81.378174%, 27.330017%)" offset="0.78125"/><stop stop-opacity="1" stop-color="rgb(100%, 80.9021%, 27.294922%)" offset="0.785156"/><stop stop-opacity="1" stop-color="rgb(100%, 80.427551%, 27.261353%)" offset="0.789062"/><stop stop-opacity="1" stop-color="rgb(100%, 79.951477%, 27.227783%)" offset="0.792969"/><stop stop-opacity="1" stop-color="rgb(100%, 79.475403%, 27.194214%)" offset="0.796875"/><stop stop-opacity="1" stop-color="rgb(100%, 78.999329%, 27.159119%)" offset="0.800781"/><stop stop-opacity="1" stop-color="rgb(100%, 78.523254%, 27.125549%)" offset="0.804688"/><stop stop-opacity="1" stop-color="rgb(100%, 78.04718%, 27.09198%)" offset="0.808594"/><stop stop-opacity="1" stop-color="rgb(100%, 77.571106%, 27.058411%)" offset="0.8125"/><stop stop-opacity="1" stop-color="rgb(100%, 77.095032%, 27.023315%)" offset="0.816406"/><stop stop-opacity="1" stop-color="rgb(100%, 76.618958%, 26.989746%)" offset="0.820312"/><stop stop-opacity="1" stop-color="rgb(100%, 76.142883%, 26.956177%)" offset="0.824219"/><stop stop-opacity="1" stop-color="rgb(100%, 75.666809%, 26.922607%)" offset="0.828125"/><stop stop-opacity="1" stop-color="rgb(100%, 75.190735%, 26.887512%)" offset="0.832031"/><stop stop-opacity="1" stop-color="rgb(100%, 74.714661%, 26.853943%)" offset="0.835937"/><stop stop-opacity="1" stop-color="rgb(100%, 74.238586%, 26.820374%)" offset="0.839844"/><stop stop-opacity="1" stop-color="rgb(100%, 73.764038%, 26.786804%)" offset="0.84375"/><stop stop-opacity="1" stop-color="rgb(100%, 73.287964%, 26.751709%)" offset="0.847656"/><stop stop-opacity="1" stop-color="rgb(100%, 72.81189%, 26.71814%)" offset="0.851563"/><stop stop-opacity="1" stop-color="rgb(100%, 72.335815%, 26.68457%)" offset="0.855469"/><stop stop-opacity="1" stop-color="rgb(100%, 71.859741%, 26.651001%)" offset="0.859375"/><stop stop-opacity="1" stop-color="rgb(100%, 71.383667%, 26.615906%)" offset="0.863281"/><stop stop-opacity="1" stop-color="rgb(100%, 70.907593%, 26.582336%)" offset="0.867188"/><stop stop-opacity="1" stop-color="rgb(100%, 70.431519%, 26.548767%)" offset="0.871094"/><stop stop-opacity="1" stop-color="rgb(100%, 69.955444%, 26.515198%)" offset="0.875"/><stop stop-opacity="1" stop-color="rgb(100%, 69.47937%, 26.481628%)" offset="0.878906"/><stop stop-opacity="1" stop-color="rgb(100%, 69.003296%, 26.448059%)" offset="0.882812"/><stop stop-opacity="1" stop-color="rgb(100%, 68.527222%, 26.412964%)" offset="0.886719"/><stop stop-opacity="1" stop-color="rgb(100%, 68.051147%, 26.379395%)" offset="0.890625"/><stop stop-opacity="1" stop-color="rgb(100%, 67.575073%, 26.345825%)" offset="0.894531"/><stop stop-opacity="1" stop-color="rgb(100%, 67.098999%, 26.312256%)" offset="0.898438"/><stop stop-opacity="1" stop-color="rgb(100%, 66.622925%, 26.277161%)" offset="0.902344"/><stop stop-opacity="1" stop-color="rgb(100%, 66.148376%, 26.243591%)" offset="0.90625"/><stop stop-opacity="1" stop-color="rgb(100%, 65.672302%, 26.210022%)" offset="0.910156"/><stop stop-opacity="1" stop-color="rgb(100%, 65.196228%, 26.176453%)" offset="0.914062"/><stop stop-opacity="1" stop-color="rgb(100%, 64.720154%, 26.141357%)" offset="0.917969"/><stop stop-opacity="1" stop-color="rgb(100%, 64.24408%, 26.107788%)" offset="0.921875"/><stop stop-opacity="1" stop-color="rgb(100%, 63.768005%, 26.074219%)" offset="0.925781"/><stop stop-opacity="1" stop-color="rgb(100%, 63.291931%, 26.040649%)" offset="0.929687"/><stop stop-opacity="1" stop-color="rgb(100%, 62.815857%, 26.005554%)" offset="0.933594"/><stop stop-opacity="1" stop-color="rgb(100%, 62.339783%, 25.971985%)" offset="0.9375"/><stop stop-opacity="1" stop-color="rgb(100%, 61.863708%, 25.938416%)" offset="0.941406"/><stop stop-opacity="1" stop-color="rgb(100%, 61.387634%, 25.904846%)" offset="0.945312"/><stop stop-opacity="1" stop-color="rgb(100%, 60.91156%, 25.869751%)" offset="0.949219"/><stop stop-opacity="1" stop-color="rgb(100%, 60.435486%, 25.836182%)" offset="0.953125"/><stop stop-opacity="1" stop-color="rgb(100%, 59.959412%, 25.802612%)" offset="0.957031"/><stop stop-opacity="1" stop-color="rgb(100%, 59.484863%, 25.769043%)" offset="0.960938"/><stop stop-opacity="1" stop-color="rgb(100%, 59.008789%, 25.733948%)" offset="0.964844"/><stop stop-opacity="1" stop-color="rgb(100%, 58.532715%, 25.700378%)" offset="0.96875"/><stop stop-opacity="1" stop-color="rgb(100%, 58.056641%, 25.666809%)" offset="0.972656"/><stop stop-opacity="1" stop-color="rgb(100%, 57.580566%, 25.63324%)" offset="0.976562"/><stop stop-opacity="1" stop-color="rgb(100%, 57.104492%, 25.59967%)" offset="0.980469"/><stop stop-opacity="1" stop-color="rgb(100%, 56.628418%, 25.566101%)" offset="0.984375"/><stop stop-opacity="1" stop-color="rgb(100%, 56.163025%, 25.532532%)" offset="0.988281"/><stop stop-opacity="1" stop-color="rgb(100%, 55.699158%, 25.498962%)" offset="0.992188"/><stop stop-opacity="1" stop-color="rgb(100%, 55.699158%, 25.498962%)" offset="1"/></linearGradient><mask id="d0ae050086"><g filter="url(#82e31cd523)"><rect x="-37.5" width="450" fill="#000000" y="-37.499999" height="449.999989" fill-opacity="0.1098"/></g></mask><clipPath id="16f179d78c"><path d="M 0.386719 8 L 86.910156 8 L 86.910156 74.773438 L 0.386719 74.773438 Z M 0.386719 8 " clip-rule="nonzero"/></clipPath><clipPath id="db39b5fb23"><path d="M 17 1.066406 L 26 1.066406 L 26 18 L 17 18 Z M 17 1.066406 " clip-rule="nonzero"/></clipPath><clipPath id="5964a34435"><path d="M 39 1.066406 L 48 1.066406 L 48 18 L 39 18 Z M 39 1.066406 " clip-rule="nonzero"/></clipPath><clipPath id="f5bb370666"><path d="M 61 1.066406 L 70 1.066406 L 70 18 L 61 18 Z M 61 1.066406 " clip-rule="nonzero"/></clipPath><clipPath id="c45a05cc2b"><rect x="0" width="88" y="0" height="76"/></clipPath></defs><g clip-path="url(#5b89e9cef8)"><g clip-path="url(#06c7fa79ed)"><path fill="url(#f30e951dca)" d="M 108.957031 0 L 0 0 L 0 108.957031 L 108.957031 108.957031 Z M 108.957031 0 " fill-rule="nonzero"/></g></g><g mask="url(#d0ae050086)"><g transform="matrix(1, 0, 0, 1, 11, 12)"><g clip-path="url(#c45a05cc2b)"><g clip-path="url(#16f179d78c)"><path fill="#118585" d="M 78.28125 8.738281 L 71.40625 8.738281 L 71.40625 13.945312 C 71.40625 17.183594 68.746094 19.839844 65.496094 19.839844 C 62.246094 19.839844 59.585938 17.1875 59.585938 13.945312 L 59.585938 8.738281 L 49.539062 8.738281 L 49.539062 13.945312 C 49.539062 17.183594 46.878906 19.839844 43.628906 19.839844 C 40.382812 19.839844 37.722656 17.1875 37.722656 13.945312 L 37.722656 8.738281 L 27.675781 8.738281 L 27.675781 13.945312 C 27.675781 17.183594 25.015625 19.839844 21.765625 19.839844 C 18.519531 19.839844 15.859375 17.1875 15.859375 13.945312 L 15.859375 8.738281 L 8.984375 8.738281 C 4.246094 8.738281 0.367188 12.601562 0.367188 17.328125 L 0.367188 66.160156 C 0.367188 70.882812 4.246094 74.746094 8.984375 74.746094 L 78.285156 74.746094 C 83.023438 74.746094 86.898438 70.882812 86.898438 66.160156 L 86.898438 17.328125 C 86.898438 12.601562 83.019531 8.738281 78.28125 8.738281 Z M 76.691406 61.007812 C 76.691406 64.28125 74.003906 66.960938 70.71875 66.960938 L 16.542969 66.960938 C 13.257812 66.960938 10.570312 64.28125 10.570312 61.007812 L 10.570312 30.613281 C 10.570312 27.335938 13.257812 24.660156 16.542969 24.660156 L 70.714844 24.660156 C 74 24.660156 76.6875 27.335938 76.6875 30.613281 L 76.6875 61.007812 Z M 76.691406 61.007812 " fill-opacity="1" fill-rule="nonzero"/></g><g clip-path="url(#db39b5fb23)"><path fill="#118585" d="M 21.765625 17.902344 C 19.4375 17.902344 17.535156 16.003906 17.535156 13.683594 L 17.535156 5.34375 C 17.535156 3.023438 19.4375 1.128906 21.765625 1.128906 C 24.089844 1.128906 25.992188 3.023438 25.992188 5.34375 L 25.992188 13.683594 C 25.992188 16.003906 24.089844 17.902344 21.765625 17.902344 Z M 21.765625 17.902344 " fill-opacity="1" fill-rule="nonzero"/></g><g clip-path="url(#5964a34435)"><path fill="#118585" d="M 43.628906 17.902344 C 41.304688 17.902344 39.402344 16.003906 39.402344 13.683594 L 39.402344 5.34375 C 39.402344 3.023438 41.304688 1.128906 43.628906 1.128906 C 45.957031 1.128906 47.859375 3.023438 47.859375 5.34375 L 47.859375 13.683594 C 47.859375 16.003906 45.957031 17.902344 43.628906 17.902344 Z M 43.628906 17.902344 " fill-opacity="1" fill-rule="nonzero"/></g><g clip-path="url(#f5bb370666)"><path fill="#118585" d="M 65.496094 17.902344 C 63.171875 17.902344 61.269531 16.003906 61.269531 13.683594 L 61.269531 5.34375 C 61.269531 3.023438 63.171875 1.128906 65.496094 1.128906 C 67.824219 1.128906 69.726562 3.023438 69.726562 5.34375 L 69.726562 13.683594 C 69.722656 16.003906 67.820312 17.902344 65.496094 17.902344 Z M 65.496094 17.902344 " fill-opacity="1" fill-rule="nonzero"/></g><path fill="#118585" d="M 25.320312 41.949219 L 18.828125 41.949219 C 16.519531 41.949219 14.632812 40.0625 14.632812 37.765625 L 14.632812 33.921875 C 14.632812 31.617188 16.523438 29.738281 18.828125 29.738281 L 25.320312 29.738281 C 27.632812 29.738281 29.515625 31.621094 29.515625 33.921875 L 29.515625 37.765625 C 29.515625 40.0625 27.632812 41.949219 25.320312 41.949219 Z M 25.320312 41.949219 " fill-opacity="1" fill-rule="nonzero"/><path fill="#118585" d="M 46.875 41.949219 L 40.382812 41.949219 C 38.074219 41.949219 36.1875 40.0625 36.1875 37.765625 L 36.1875 33.921875 C 36.1875 31.617188 38.078125 29.738281 40.382812 29.738281 L 46.875 29.738281 C 49.1875 29.738281 51.074219 31.621094 51.074219 33.921875 L 51.074219 37.765625 C 51.074219 40.0625 49.1875 41.949219 46.875 41.949219 Z M 46.875 41.949219 " fill-opacity="1" fill-rule="nonzero"/><path fill="#118585" d="M 68.429688 41.949219 L 61.941406 41.949219 C 59.628906 41.949219 57.742188 40.0625 57.742188 37.765625 L 57.742188 33.921875 C 57.742188 31.617188 59.632812 29.738281 61.941406 29.738281 L 68.429688 29.738281 C 70.742188 29.738281 72.628906 31.621094 72.628906 33.921875 L 72.628906 37.765625 C 72.628906 40.0625 70.742188 41.949219 68.429688 41.949219 Z M 68.429688 41.949219 " fill-opacity="1" fill-rule="nonzero"/><path fill="#118585" d="M 25.320312 60.730469 L 18.828125 60.730469 C 16.519531 60.730469 14.632812 58.847656 14.632812 56.546875 L 14.632812 52.703125 C 14.632812 50.398438 16.523438 48.519531 18.828125 48.519531 L 25.320312 48.519531 C 27.632812 48.519531 29.515625 50.402344 29.515625 52.703125 L 29.515625 56.546875 C 29.515625 58.847656 27.632812 60.730469 25.320312 60.730469 Z M 25.320312 60.730469 " fill-opacity="1" fill-rule="nonzero"/><path fill="#118585" d="M 46.875 60.730469 L 40.382812 60.730469 C 38.074219 60.730469 36.1875 58.847656 36.1875 56.546875 L 36.1875 52.703125 C 36.1875 50.398438 38.078125 48.519531 40.382812 48.519531 L 46.875 48.519531 C 49.1875 48.519531 51.074219 50.402344 51.074219 52.703125 L 51.074219 56.546875 C 51.074219 58.847656 49.1875 60.730469 46.875 60.730469 Z M 46.875 60.730469 " fill-opacity="1" fill-rule="nonzero"/><path fill="#118585" d="M 68.429688 60.730469 L 61.941406 60.730469 C 59.628906 60.730469 57.742188 58.847656 57.742188 56.546875 L 57.742188 52.703125 C 57.742188 50.398438 59.632812 48.519531 61.941406 48.519531 L 68.429688 48.519531 C 70.742188 48.519531 72.628906 50.402344 72.628906 52.703125 L 72.628906 56.546875 C 72.628906 58.847656 70.742188 60.730469 68.429688 60.730469 Z M 68.429688 60.730469 " fill-opacity="1" fill-rule="nonzero"/></g></g></g><path stroke-linecap="butt" transform="matrix(0.000000000000000039, -0.644548, 0.640927, 0.000000000000000039, 73.461657, 82.881827)" fill="none" stroke-linejoin="miter" d="M -0.00152842 3.996994 L 88.511357 3.996994 " stroke="#000000" stroke-width="8" stroke-opacity="1" stroke-miterlimit="4"/><path stroke-linecap="butt" transform="matrix(0.221227, 0, 0, 0.221227, 21.096727, -5.152749)" fill="none" stroke-linejoin="miter" d="M 234.120844 391.00258 L 43.776368 391.00258 L 43.776368 143.325218 L 140.219924 143.325218 C 160.825861 143.325218 177.65316 146.997913 190.684164 154.36096 C 203.538597 161.476806 213.49725 171.205916 220.577782 183.54829 C 227.693628 195.890664 231.26038 209.522012 231.26038 224.459992 C 231.26038 243.000039 225.557109 259.56248 214.132909 274.164974 C 202.796995 288.696839 188.459359 298.337663 171.137658 303.087446 Z M 66.200996 156.532794 L 162.980038 291.69856 C 178.836192 288.396666 191.990796 280.468589 202.408537 267.896672 C 212.896906 255.342412 218.14109 240.863519 218.14109 224.459992 C 218.14109 211.428988 214.927482 199.598673 208.500266 188.933732 C 202.126022 178.215819 193.120856 170.022885 181.48477 164.354928 C 171.049372 159.1284 157.418024 156.532794 140.55541 156.532794 Z M 56.895658 165.043558 L 56.895658 292.82862 L 148.377544 292.82862 Z M 56.895658 377.795004 L 209.188896 377.795004 L 157.241452 305.612424 L 146.20571 305.94791 L 56.895658 305.94791 Z M 56.895658 377.795004 " stroke="#000000" stroke-width="13.343738" stroke-opacity="1" stroke-miterlimit="4"/></svg>