<svg xmlns="http://www.w3.org/2000/svg" xmlns:xlink="http://www.w3.org/1999/xlink" width="500" zoomAndPan="magnify" viewBox="0 0 375 374.999991" height="500" preserveAspectRatio="xMidYMid meet" version="1.0"><defs><clipPath id="4908823bb8"><path d="M 0 0 L 81.632812 0 L 81.632812 81.632812 L 0 81.632812 Z M 0 0 " clip-rule="nonzero"/></clipPath><clipPath id="a8d11029fa"><path d="M 40.816406 0 C 18.273438 0 0 18.273438 0 40.816406 C 0 63.359375 18.273438 81.632812 40.816406 81.632812 C 63.359375 81.632812 81.632812 63.359375 81.632812 40.816406 C 81.632812 18.273438 63.359375 0 40.816406 0 " clip-rule="nonzero"/></clipPath><clipPath id="082ddaa831"><path d="M 12.324219 13.890625 L 69.320312 13.890625 L 69.320312 64.289062 L 12.324219 64.289062 Z M 12.324219 13.890625 " clip-rule="nonzero"/></clipPath><clipPath id="065face77e"><path d="M 24 13.890625 L 60 13.890625 L 60 22 L 24 22 Z M 24 13.890625 " clip-rule="nonzero"/></clipPath><clipPath id="0db44fe50d"><path d="M 12.324219 29 L 69.320312 29 L 69.320312 64.289062 L 12.324219 64.289062 Z M 12.324219 29 " clip-rule="nonzero"/></clipPath><clipPath id="19a6aa4d3c"><path d="M 12.324219 17 L 69.320312 17 L 69.320312 51 L 12.324219 51 Z M 12.324219 17 " clip-rule="nonzero"/></clipPath></defs><g clip-path="url(#4908823bb8)"><g clip-path="url(#a8d11029fa)"><path fill="#545454" d="M 0 0 L 81.632812 0 L 81.632812 81.632812 L 0 81.632812 Z M 0 0 " fill-opacity="1" fill-rule="nonzero"/></g></g><g clip-path="url(#082ddaa831)"><path fill="#d4f6c8" d="M 59.148438 16.804688 C 59.125 17.386719 59.097656 17.957031 58.984375 18.519531 C 58.882812 19.023438 58.683594 19.480469 58.378906 19.894531 C 58.257812 20.054688 58.121094 20.191406 57.960938 20.3125 C 57.390625 20.726562 56.691406 20.667969 56.207031 20.152344 C 55.816406 19.742188 55.507812 19.277344 55.332031 18.734375 C 54.996094 17.703125 54.789062 16.652344 54.769531 15.566406 C 54.765625 15.257812 54.820312 14.953125 54.957031 14.671875 C 55.113281 14.34375 55.355469 14.125 55.722656 14.066406 C 56.464844 13.949219 57.203125 13.886719 57.941406 14.074219 C 58.476562 14.207031 58.796875 14.523438 58.945312 15.050781 C 59.105469 15.628906 59.136719 16.21875 59.148438 16.804688 Z M 39.402344 16.546875 C 39.402344 16.898438 39.394531 17.25 39.402344 17.601562 C 39.414062 18.242188 39.496094 18.875 39.664062 19.492188 C 39.8125 20.035156 40.167969 20.414062 40.667969 20.644531 C 41.246094 20.914062 41.695312 20.871094 42.273438 20.296875 C 42.382812 20.1875 42.457031 20.050781 42.519531 19.910156 C 42.691406 19.515625 42.839844 19.113281 42.910156 18.6875 C 43.078125 17.699219 43.148438 16.699219 43.152344 15.699219 C 43.152344 14.984375 42.804688 14.488281 42.148438 14.21875 C 41.585938 13.988281 41.003906 13.933594 40.402344 14 C 39.769531 14.066406 39.425781 14.445312 39.417969 15.09375 C 39.410156 15.578125 39.414062 16.0625 39.414062 16.546875 C 39.410156 16.546875 39.40625 16.546875 39.402344 16.546875 Z M 27.714844 15.960938 C 27.714844 15.621094 27.691406 15.277344 27.539062 14.964844 C 27.226562 14.316406 26.664062 14.089844 25.992188 14.117188 C 25.34375 14.140625 24.808594 14.359375 24.507812 15.015625 C 24.355469 15.347656 24.292969 15.679688 24.261719 16.03125 C 24.171875 17.113281 24.304688 18.183594 24.507812 19.246094 C 24.609375 19.78125 24.792969 20.28125 25.101562 20.734375 C 25.566406 21.417969 26.414062 21.464844 26.945312 20.835938 C 27.191406 20.542969 27.335938 20.203125 27.429688 19.835938 C 27.660156 18.921875 27.710938 17.988281 27.71875 17.050781 C 27.71875 16.6875 27.71875 16.324219 27.714844 15.960938 Z M 48.601562 64.039062 C 45.355469 64.117188 44.640625 64.074219 39.90625 64.136719 C 34.195312 64.207031 34.226562 64.28125 31.796875 64.234375 C 30.980469 64.21875 29.035156 64.140625 25.152344 63.984375 C 21.011719 63.820312 20.523438 63.789062 20.070312 63.753906 C 18.382812 63.628906 15.984375 63.386719 13.078125 62.863281 C 13.027344 61.753906 12.945312 59.957031 12.859375 57.75 C 12.648438 52.277344 12.378906 44.941406 12.53125 35.761719 C 12.550781 34.375 12.597656 32.289062 12.6875 29.730469 C 17.40625 29.703125 21.222656 29.714844 23.699219 29.730469 C 29.34375 29.765625 31.9375 29.839844 46.511719 30.042969 C 48.988281 30.078125 51.460938 30.066406 53.933594 30.121094 C 58.613281 30.226562 61.476562 30.398438 65.730469 30.042969 C 66.992188 29.9375 68.027344 29.816406 68.707031 29.730469 C 68.757812 30.289062 68.824219 31.089844 68.882812 32.050781 C 69.027344 34.46875 69.027344 36.277344 69.011719 38.738281 C 68.996094 41.648438 68.964844 44.203125 68.933594 46.335938 C 66.605469 47.277344 64.210938 48.207031 61.75 49.121094 C 60.078125 49.742188 58.421875 50.335938 56.789062 50.902344 C 56.6875 51.40625 56.53125 52.15625 56.316406 53.058594 C 55.90625 54.808594 55.761719 55.136719 55.519531 56.195312 C 55.148438 57.84375 55.253906 58.148438 54.90625 60.273438 C 54.765625 61.121094 54.539062 62.351562 54.171875 63.84375 C 52.953125 63.898438 51.003906 63.980469 48.601562 64.039062 Z M 16.757812 55.382812 C 16.753906 55.382812 16.753906 55.382812 16.753906 55.382812 C 16.796875 56.644531 16.839844 57.90625 16.878906 59.167969 C 16.886719 59.355469 16.894531 59.542969 17.046875 59.675781 C 17.300781 59.886719 17.558594 60.097656 17.929688 59.949219 C 17.980469 59.929688 18.042969 59.925781 18.09375 59.933594 C 18.558594 60.03125 19.03125 59.941406 19.5 59.984375 C 20.074219 60.039062 20.65625 59.957031 21.238281 59.996094 C 21.851562 60.035156 22.464844 59.945312 23.078125 60 C 23.523438 60.039062 23.972656 59.992188 24.425781 60.015625 C 25.066406 60.050781 25.714844 60.003906 26.363281 60.011719 C 27.269531 60.027344 28.175781 60.023438 29.085938 60.054688 C 29.773438 60.078125 30.460938 60.097656 31.148438 60.113281 C 31.902344 60.132812 32.65625 60.15625 33.410156 60.167969 C 34.21875 60.183594 35.027344 60.195312 35.835938 60.21875 C 36.484375 60.234375 37.128906 60.210938 37.773438 60.214844 C 39.53125 60.222656 41.28125 60.042969 43.039062 60.105469 C 43.5625 60.125 44.089844 60.09375 44.613281 60.105469 C 45.152344 60.121094 45.683594 60.175781 46.214844 60.222656 C 46.804688 60.269531 47.394531 60.3125 47.980469 60.320312 C 48.839844 60.332031 49.703125 60.304688 50.566406 60.253906 C 50.730469 60.242188 50.796875 60.175781 50.835938 60.035156 C 50.917969 59.730469 51.015625 59.433594 51.101562 59.132812 C 51.171875 58.886719 51.160156 58.882812 50.910156 58.871094 C 50.597656 58.855469 50.304688 58.960938 49.996094 58.972656 C 49.121094 59 48.246094 58.972656 47.371094 58.941406 C 46.824219 58.921875 46.273438 58.914062 45.738281 58.839844 C 45.050781 58.746094 44.363281 58.796875 43.675781 58.738281 C 43.398438 58.714844 43.359375 58.707031 43.355469 58.414062 C 43.347656 57.359375 43.261719 56.308594 43.296875 55.25 C 43.320312 54.5625 43.335938 53.871094 43.3125 53.183594 C 43.300781 52.753906 43.28125 52.324219 43.328125 51.894531 C 43.34375 51.71875 43.410156 51.675781 43.566406 51.671875 C 44.550781 51.628906 45.539062 51.640625 46.519531 51.515625 C 46.769531 51.484375 47.027344 51.488281 47.277344 51.484375 C 48.75 51.464844 50.210938 51.289062 51.679688 51.269531 C 51.960938 51.265625 52.25 51.210938 52.523438 51.15625 C 53.007812 51.0625 53.492188 51.007812 53.980469 50.9375 C 54.617188 50.847656 54.972656 50.46875 54.9375 49.851562 C 54.90625 49.304688 54.871094 48.757812 54.828125 48.210938 C 54.769531 47.429688 54.773438 46.640625 54.789062 45.855469 C 54.804688 44.960938 54.742188 44.066406 54.710938 43.171875 C 54.703125 42.945312 54.695312 42.71875 54.691406 42.492188 C 54.6875 42.242188 54.714844 42.214844 54.972656 42.226562 C 55.105469 42.230469 55.234375 42.273438 55.363281 42.265625 C 56.503906 42.195312 57.644531 42.289062 58.785156 42.222656 C 60 42.152344 61.21875 42.210938 62.429688 42.039062 C 62.617188 42.011719 62.652344 42.050781 62.660156 42.253906 C 62.679688 42.695312 62.691406 43.136719 62.707031 43.582031 C 62.726562 44.171875 62.75 44.765625 62.765625 45.359375 C 62.769531 45.523438 62.832031 45.59375 63.003906 45.582031 C 63.289062 45.5625 63.574219 45.5625 63.859375 45.550781 C 64.148438 45.535156 64.152344 45.535156 64.144531 45.253906 C 64.078125 43.164062 63.980469 41.074219 64 38.980469 C 64 38.777344 63.96875 38.570312 63.996094 38.367188 C 64.050781 37.898438 64.039062 37.425781 64.054688 36.953125 C 64.066406 36.609375 64.089844 36.265625 64.113281 35.921875 C 64.152344 35.300781 64.195312 34.679688 64.164062 34.054688 C 64.144531 33.601562 63.78125 33.242188 63.3125 33.265625 C 62.171875 33.320312 61.03125 33.277344 59.890625 33.316406 C 58.171875 33.375 56.449219 33.4375 54.730469 33.53125 C 52.332031 33.660156 49.929688 33.769531 47.527344 33.730469 C 47.011719 33.722656 46.5 33.765625 45.984375 33.730469 C 45.417969 33.691406 44.84375 33.714844 44.277344 33.722656 C 41.984375 33.753906 39.695312 33.894531 37.398438 33.878906 C 36.785156 33.875 36.175781 33.914062 35.558594 33.890625 C 34.742188 33.855469 33.921875 33.855469 33.101562 33.835938 C 32.292969 33.820312 31.480469 33.914062 30.667969 33.84375 C 30.292969 33.8125 29.933594 33.929688 29.558594 33.953125 C 29.304688 33.964844 29.144531 34.140625 29.066406 34.371094 C 29.019531 34.5 28.984375 34.644531 28.992188 34.78125 C 29.023438 35.554688 28.9375 36.328125 28.945312 37.101562 C 28.953125 38.070312 28.898438 39.039062 28.957031 40.007812 C 28.964844 40.105469 28.980469 40.207031 28.957031 40.296875 C 28.867188 40.679688 28.953125 40.660156 28.550781 40.640625 C 28.191406 40.621094 27.832031 40.613281 27.46875 40.625 C 25.925781 40.671875 24.378906 40.707031 22.835938 40.847656 C 22.792969 40.851562 22.75 40.847656 22.707031 40.855469 C 22.136719 40.972656 21.554688 40.972656 20.976562 41.027344 C 20.464844 41.078125 19.945312 41.066406 19.433594 41.09375 C 18.753906 41.128906 18.074219 41.089844 17.398438 41.21875 C 17.074219 41.28125 16.886719 41.449219 16.816406 41.773438 C 16.660156 42.511719 16.621094 43.265625 16.585938 44.011719 C 16.546875 44.878906 16.527344 45.753906 16.539062 46.621094 C 16.566406 48.625 16.667969 50.628906 16.667969 52.636719 C 16.671875 53.550781 16.726562 54.46875 16.757812 55.382812 Z M 68.703125 48.050781 C 65.21875 49.402344 61.414062 50.863281 58.296875 51.953125 C 57.1875 55.398438 56.308594 60.042969 55.710938 63.640625 C 58.035156 60.769531 59.9375 58.488281 61.253906 56.921875 C 62.449219 55.503906 63.328125 54.476562 65.171875 52.28125 C 66.679688 50.484375 67.902344 49.011719 68.703125 48.050781 Z M 24.949219 49.773438 C 25.777344 49.796875 26.613281 49.75 27.445312 49.761719 C 27.683594 49.765625 27.921875 49.742188 28.164062 49.78125 C 28.3125 49.808594 28.472656 49.777344 28.625 49.773438 C 28.734375 49.773438 28.78125 49.722656 28.777344 49.632812 C 28.769531 49.347656 28.789062 49.058594 28.804688 48.773438 C 28.835938 48.265625 28.808594 47.753906 28.8125 47.246094 C 28.8125 46.46875 28.847656 45.691406 28.820312 44.914062 C 28.804688 44.460938 28.847656 44.007812 28.859375 43.554688 C 28.863281 43.277344 28.855469 43 28.898438 42.722656 C 28.933594 42.507812 28.910156 42.472656 28.65625 42.480469 C 27.769531 42.515625 26.878906 42.488281 25.996094 42.527344 C 25.328125 42.554688 24.664062 42.609375 23.996094 42.632812 C 23.535156 42.652344 23.078125 42.710938 22.621094 42.75 C 21.828125 42.816406 21.03125 42.875 20.238281 42.929688 C 20.003906 42.945312 19.777344 42.890625 19.550781 42.898438 C 19.113281 42.917969 18.679688 42.882812 18.242188 42.847656 C 18.078125 42.835938 18.007812 42.871094 18.015625 43.011719 C 18.027344 43.253906 17.976562 43.492188 17.96875 43.730469 C 17.960938 44.15625 17.964844 44.582031 17.964844 45.007812 C 17.960938 45.710938 17.902344 46.414062 17.941406 47.121094 C 17.988281 47.925781 18 48.734375 18.027344 49.539062 C 18.027344 49.652344 18.03125 49.757812 18.007812 49.871094 C 17.964844 50.050781 17.996094 50.082031 18.222656 50.074219 C 18.628906 50.0625 19.03125 50.019531 19.433594 49.992188 C 20.230469 49.933594 21.023438 49.835938 21.824219 49.839844 C 22.078125 49.839844 22.332031 49.824219 22.582031 49.816406 C 23.371094 49.824219 24.15625 49.753906 24.949219 49.773438 Z M 41.757812 58.792969 C 41.925781 58.796875 41.988281 58.726562 41.980469 58.5625 C 41.960938 58.183594 41.953125 57.804688 41.941406 57.429688 C 41.925781 56.957031 41.867188 56.476562 41.910156 56.007812 C 41.96875 55.332031 41.886719 54.65625 41.945312 53.980469 C 41.996094 53.433594 41.878906 52.882812 41.960938 52.335938 C 41.980469 52.1875 41.953125 52.035156 41.949219 51.882812 C 41.945312 51.796875 41.910156 51.730469 41.816406 51.734375 C 41.628906 51.746094 41.449219 51.683594 41.261719 51.6875 C 40.066406 51.703125 38.875 51.785156 37.679688 51.761719 C 36.484375 51.734375 35.292969 51.808594 34.097656 51.808594 C 33.308594 51.808594 32.519531 51.746094 31.734375 51.8125 C 31.699219 51.8125 31.667969 51.816406 31.632812 51.808594 C 31.210938 51.71875 30.78125 51.804688 30.355469 51.792969 C 30.195312 51.789062 30.171875 51.871094 30.144531 52.011719 C 30.054688 52.5 30.113281 52.996094 30.09375 53.488281 C 30.066406 54.066406 30.011719 54.648438 30.0625 55.230469 C 30.066406 55.273438 30.070312 55.316406 30.0625 55.359375 C 29.960938 55.988281 30.101562 56.625 30.007812 57.257812 C 29.976562 57.480469 30.011719 57.707031 29.976562 57.933594 C 29.941406 58.140625 29.976562 58.363281 29.980469 58.578125 C 29.984375 58.683594 30.035156 58.738281 30.144531 58.734375 C 30.398438 58.722656 30.648438 58.757812 30.898438 58.765625 C 31.628906 58.78125 32.359375 58.804688 33.089844 58.820312 C 33.878906 58.835938 34.664062 58.839844 35.449219 58.871094 C 35.972656 58.890625 36.5 58.875 37.023438 58.875 C 38.394531 58.882812 39.761719 58.761719 41.132812 58.8125 C 41.339844 58.808594 41.550781 58.792969 41.757812 58.792969 Z M 53.425781 45.941406 C 53.386719 44.820312 53.347656 43.699219 53.3125 42.582031 C 53.300781 42.214844 53.296875 42.214844 52.917969 42.226562 C 52.609375 42.234375 52.296875 42.28125 51.996094 42.242188 C 51.339844 42.160156 50.6875 42.265625 50.03125 42.207031 C 49.410156 42.152344 48.785156 42.246094 48.160156 42.207031 C 47.515625 42.164062 46.871094 42.222656 46.222656 42.207031 C 45.609375 42.195312 44.996094 42.140625 44.386719 42.183594 C 44.332031 42.1875 44.273438 42.183594 44.222656 42.167969 C 44.039062 42.113281 43.851562 42.15625 43.664062 42.148438 C 43.523438 42.144531 43.472656 42.214844 43.476562 42.347656 C 43.488281 42.628906 43.457031 42.90625 43.453125 43.183594 C 43.441406 43.851562 43.402344 44.515625 43.386719 45.179688 C 43.378906 45.78125 43.308594 46.382812 43.367188 46.984375 C 43.375 47.0625 43.378906 47.136719 43.371094 47.210938 C 43.296875 47.875 43.351562 48.542969 43.3125 49.207031 C 43.300781 49.464844 43.332031 49.71875 43.285156 49.980469 C 43.230469 50.273438 43.289062 50.320312 43.589844 50.3125 C 43.644531 50.3125 43.699219 50.3125 43.753906 50.308594 C 44.890625 50.257812 46.03125 50.238281 47.167969 50.140625 C 48.128906 50.058594 49.097656 50.070312 50.0625 50.023438 C 50.609375 50 51.152344 50.003906 51.699219 49.921875 C 52.261719 49.835938 52.816406 49.710938 53.378906 49.660156 C 53.507812 49.648438 53.546875 49.582031 53.542969 49.46875 C 53.535156 49.390625 53.535156 49.316406 53.53125 49.242188 C 53.496094 48.140625 53.460938 47.042969 53.421875 45.941406 C 53.421875 45.941406 53.421875 45.941406 53.425781 45.941406 Z M 18.136719 55.332031 C 18.171875 56.347656 18.203125 57.359375 18.238281 58.375 C 18.242188 58.449219 18.246094 58.523438 18.25 58.597656 C 18.253906 58.691406 18.304688 58.734375 18.394531 58.738281 C 18.449219 58.738281 18.503906 58.734375 18.558594 58.734375 C 19.929688 58.714844 21.296875 58.585938 22.671875 58.65625 C 23.128906 58.679688 23.589844 58.671875 24.046875 58.664062 C 25.023438 58.648438 26 58.714844 26.972656 58.652344 C 27.082031 58.644531 27.195312 58.640625 27.300781 58.660156 C 27.671875 58.726562 28.046875 58.65625 28.417969 58.664062 C 28.539062 58.667969 28.59375 58.613281 28.597656 58.488281 C 28.617188 57.886719 28.664062 57.289062 28.65625 56.6875 C 28.648438 56.0625 28.726562 55.441406 28.671875 54.816406 C 28.667969 54.792969 28.671875 54.773438 28.671875 54.75 C 28.75 54.183594 28.695312 53.613281 28.738281 53.046875 C 28.753906 52.832031 28.738281 52.617188 28.769531 52.402344 C 28.851562 51.828125 28.746094 51.726562 28.15625 51.742188 C 27.816406 51.753906 27.472656 51.800781 27.136719 51.761719 C 26.4375 51.683594 25.734375 51.738281 25.039062 51.738281 C 23.457031 51.734375 21.878906 51.828125 20.296875 51.878906 C 20.210938 51.882812 20.121094 51.882812 20.035156 51.894531 C 19.4375 52.003906 18.839844 52.019531 18.238281 51.960938 C 18.101562 51.949219 18.023438 51.980469 18.03125 52.128906 C 18.035156 52.207031 18.035156 52.28125 18.035156 52.355469 C 18.070312 53.347656 18.101562 54.339844 18.136719 55.332031 Z M 41.628906 35.09375 C 39.734375 35.125 37.839844 35.277344 35.941406 35.230469 C 35.097656 35.210938 34.257812 35.191406 33.417969 35.1875 C 32.585938 35.1875 31.753906 35.199219 30.925781 35.128906 C 30.785156 35.117188 30.644531 35.09375 30.503906 35.082031 C 30.390625 35.074219 30.316406 35.117188 30.3125 35.246094 C 30.308594 35.546875 30.269531 35.847656 30.277344 36.148438 C 30.292969 36.78125 30.332031 37.414062 30.296875 38.050781 C 30.253906 38.824219 30.367188 39.597656 30.300781 40.375 C 30.277344 40.644531 30.304688 40.648438 30.574219 40.648438 C 31.054688 40.648438 31.535156 40.621094 32.015625 40.648438 C 32.617188 40.6875 33.21875 40.617188 33.820312 40.660156 C 34.355469 40.695312 34.894531 40.652344 35.429688 40.660156 C 36.117188 40.667969 36.808594 40.699219 37.496094 40.671875 C 38.054688 40.652344 38.613281 40.738281 39.171875 40.683594 C 39.183594 40.683594 39.195312 40.683594 39.203125 40.6875 C 39.8125 40.761719 40.425781 40.707031 41.039062 40.746094 C 41.296875 40.761719 41.558594 40.726562 41.824219 40.773438 C 42.121094 40.828125 42.171875 40.769531 42.160156 40.472656 C 42.136719 39.664062 42.109375 38.855469 42.085938 38.046875 C 42.078125 37.832031 42.039062 37.613281 42.070312 37.402344 C 42.167969 36.792969 42 36.175781 42.132812 35.675781 C 42.109375 35.015625 42.171875 35.085938 41.628906 35.09375 Z M 43.59375 35.085938 C 43.417969 35.085938 43.355469 35.164062 43.375 35.324219 C 43.382812 35.390625 43.378906 35.453125 43.382812 35.519531 C 43.433594 37.113281 43.488281 38.710938 43.539062 40.304688 C 43.554688 40.828125 43.554688 40.839844 44.097656 40.832031 C 44.84375 40.824219 45.585938 40.863281 46.328125 40.886719 C 46.90625 40.902344 47.484375 40.859375 48.066406 40.890625 C 48.742188 40.925781 49.421875 40.832031 50.101562 40.882812 C 50.636719 40.925781 51.171875 40.847656 51.710938 40.894531 C 52.175781 40.9375 52.648438 40.828125 53.121094 40.914062 C 53.226562 40.933594 53.3125 40.894531 53.316406 40.761719 C 53.316406 40.46875 53.363281 40.183594 53.355469 39.890625 C 53.339844 39.269531 53.332031 38.644531 53.332031 38.019531 C 53.332031 37.097656 53.371094 36.167969 53.328125 35.246094 C 53.3125 34.960938 53.3125 34.957031 53.023438 34.964844 C 51.390625 35.015625 49.757812 35.09375 48.125 35.070312 C 47.554688 35.0625 46.988281 35.089844 46.417969 35.082031 C 45.695312 35.070312 44.972656 35.042969 44.25 35.066406 C 44.03125 35.074219 43.8125 35.089844 43.59375 35.085938 Z M 37.667969 18.023438 C 37.652344 18.351562 37.570312 18.660156 37.566406 18.980469 C 37.558594 20.734375 38.769531 22.28125 40.539062 22.652344 C 41.589844 22.871094 42.570312 22.566406 43.382812 21.84375 C 44.425781 20.917969 44.699219 19.730469 44.507812 18.398438 C 44.5 18.363281 44.496094 18.332031 44.488281 18.300781 C 44.417969 17.925781 44.417969 17.925781 44.816406 17.925781 C 45.660156 17.921875 46.507812 17.941406 47.351562 17.910156 C 48.710938 17.863281 50.074219 17.886719 51.433594 17.839844 C 52.003906 17.820312 52.574219 17.800781 53.144531 17.785156 C 53.441406 17.777344 53.433594 17.785156 53.449219 18.09375 C 53.496094 19.132812 53.730469 20.121094 54.375 20.964844 C 54.964844 21.742188 55.6875 22.3125 56.691406 22.457031 C 57.824219 22.621094 59.03125 22.191406 59.558594 20.917969 C 59.847656 20.21875 59.996094 19.492188 60.042969 18.738281 C 60.054688 18.507812 60.082031 18.28125 60.089844 18.046875 C 60.09375 17.898438 60.164062 17.859375 60.296875 17.867188 C 60.558594 17.886719 60.820312 17.910156 61.085938 17.914062 C 61.808594 17.929688 62.535156 17.917969 63.257812 17.941406 C 64.277344 17.976562 65.292969 18.019531 66.296875 18.246094 C 67.207031 18.449219 67.933594 18.925781 68.46875 19.683594 C 68.738281 20.070312 68.828125 20.53125 68.929688 20.980469 C 69.042969 21.507812 69.074219 22.046875 69.105469 22.585938 C 69.160156 23.597656 69.199219 24.609375 69.242188 25.617188 C 69.261719 26.058594 69.222656 26.5 69.191406 26.9375 C 69.164062 27.347656 69.019531 27.492188 68.617188 27.492188 C 68.335938 27.492188 68.085938 27.613281 67.816406 27.652344 C 67.433594 27.707031 67.050781 27.71875 66.667969 27.753906 C 65.695312 27.835938 64.71875 27.851562 63.746094 27.90625 C 61.035156 28.0625 58.324219 28.042969 55.617188 28.015625 C 54.222656 28 52.828125 27.980469 51.433594 27.949219 C 47.1875 27.863281 42.9375 27.914062 38.6875 27.894531 C 35.40625 27.878906 32.121094 27.945312 28.839844 27.902344 C 27.863281 27.890625 26.886719 27.875 25.910156 27.816406 C 23.519531 27.671875 21.128906 27.671875 18.738281 27.71875 C 18.289062 27.730469 17.839844 27.757812 17.390625 27.765625 C 16.542969 27.773438 15.703125 27.703125 14.859375 27.65625 C 14.398438 27.628906 13.9375 27.652344 13.476562 27.644531 C 12.964844 27.640625 12.882812 27.5625 12.863281 27.054688 C 12.835938 26.285156 12.703125 25.523438 12.730469 24.75 C 12.769531 23.695312 12.855469 22.644531 13.195312 21.632812 C 13.65625 20.265625 14.570312 19.351562 15.898438 18.84375 C 17.023438 18.414062 18.191406 18.203125 19.394531 18.105469 C 20.488281 18.019531 21.582031 17.976562 22.675781 17.9375 C 23.125 17.921875 23.117188 17.933594 23.085938 18.390625 C 23.039062 19.074219 23.058594 19.761719 23.320312 20.40625 C 23.820312 21.628906 24.679688 22.4375 26.019531 22.65625 C 27.148438 22.84375 28.089844 22.363281 28.585938 21.308594 C 29.039062 20.347656 29.222656 19.328125 29.089844 18.261719 C 29.054688 18 29.0625 17.992188 29.34375 17.992188 C 30.398438 18 31.449219 18.046875 32.503906 18.058594 C 34.109375 18.070312 35.710938 17.96875 37.3125 17.996094 C 37.429688 17.996094 37.550781 17.976562 37.667969 18.023438 Z M 41.664062 50.109375 C 41.9375 50.097656 41.945312 50.09375 41.945312 49.859375 C 41.941406 49.125 41.992188 48.386719 41.996094 47.652344 C 41.996094 46.453125 42.070312 45.253906 42.109375 44.054688 C 42.121094 43.679688 42.117188 43.300781 42.144531 42.925781 C 42.164062 42.683594 42.160156 42.675781 41.894531 42.671875 C 40.777344 42.652344 39.660156 42.628906 38.542969 42.617188 C 37.269531 42.609375 36 42.613281 34.726562 42.609375 C 34.648438 42.609375 34.574219 42.613281 34.496094 42.613281 C 33.179688 42.605469 31.867188 42.597656 30.550781 42.597656 C 30.277344 42.59375 30.273438 42.605469 30.257812 42.839844 C 30.1875 43.871094 30.179688 44.90625 30.171875 45.941406 C 30.160156 46.957031 30.167969 47.972656 30.148438 48.988281 C 30.140625 49.328125 30.15625 49.667969 30.152344 50.007812 C 30.148438 50.152344 30.207031 50.214844 30.378906 50.207031 C 30.710938 50.195312 31.039062 50.214844 31.367188 50.214844 C 32.527344 50.226562 33.691406 50.222656 34.851562 50.21875 C 35.632812 50.21875 36.410156 50.1875 37.191406 50.1875 C 38.460938 50.183594 39.734375 50.117188 41.007812 50.132812 C 41.226562 50.125 41.445312 50.117188 41.664062 50.109375 Z M 60.109375 40.875 C 59.089844 40.886719 58.070312 40.90625 57.050781 40.898438 C 56.371094 40.894531 55.691406 40.914062 55.011719 40.917969 C 54.703125 40.917969 54.683594 40.917969 54.695312 40.621094 C 54.734375 39.675781 54.648438 38.726562 54.6875 37.78125 C 54.71875 36.980469 54.613281 36.191406 54.589844 35.394531 C 54.585938 35.308594 54.582031 35.222656 54.578125 35.136719 C 54.578125 34.882812 54.589844 34.863281 54.855469 34.851562 C 55.402344 34.820312 55.953125 34.796875 56.5 34.777344 C 57.003906 34.761719 57.503906 34.703125 58.007812 34.6875 C 59.160156 34.652344 60.308594 34.632812 61.460938 34.636719 C 61.808594 34.636719 62.160156 34.652344 62.511719 34.636719 C 62.6875 34.628906 62.746094 34.699219 62.738281 34.859375 C 62.726562 35.277344 62.746094 35.703125 62.699219 36.117188 C 62.648438 36.546875 62.671875 36.976562 62.644531 37.40625 C 62.605469 38.050781 62.625 38.699219 62.625 39.34375 C 62.625 39.710938 62.574219 40.074219 62.558594 40.4375 C 62.550781 40.613281 62.457031 40.683594 62.304688 40.714844 C 62.25 40.726562 62.195312 40.738281 62.140625 40.742188 C 61.460938 40.757812 60.789062 40.882812 60.109375 40.875 Z M 60.109375 40.875 " fill-opacity="1" fill-rule="nonzero"/></g><g clip-path="url(#065face77e)"><path fill="#303d37" d="M 59.148438 16.804688 C 59.125 17.386719 59.097656 17.957031 58.984375 18.519531 C 58.882812 19.023438 58.683594 19.480469 58.378906 19.894531 C 58.257812 20.054688 58.121094 20.191406 57.960938 20.3125 C 57.390625 20.726562 56.691406 20.667969 56.207031 20.152344 C 55.816406 19.742188 55.507812 19.277344 55.332031 18.734375 C 54.996094 17.703125 54.789062 16.652344 54.769531 15.566406 C 54.765625 15.257812 54.820312 14.953125 54.957031 14.671875 C 55.113281 14.34375 55.355469 14.125 55.722656 14.066406 C 56.464844 13.949219 57.203125 13.886719 57.941406 14.074219 C 58.476562 14.207031 58.796875 14.523438 58.945312 15.050781 C 59.105469 15.628906 59.136719 16.21875 59.148438 16.804688 Z M 39.402344 16.546875 C 39.402344 16.898438 39.394531 17.25 39.402344 17.601562 C 39.414062 18.242188 39.496094 18.875 39.664062 19.492188 C 39.8125 20.035156 40.167969 20.414062 40.667969 20.644531 C 41.246094 20.914062 41.695312 20.871094 42.273438 20.296875 C 42.382812 20.1875 42.457031 20.050781 42.519531 19.910156 C 42.691406 19.515625 42.839844 19.113281 42.910156 18.6875 C 43.078125 17.699219 43.148438 16.699219 43.152344 15.699219 C 43.152344 14.984375 42.804688 14.488281 42.148438 14.21875 C 41.585938 13.988281 41.003906 13.933594 40.402344 14 C 39.769531 14.066406 39.425781 14.445312 39.417969 15.09375 C 39.410156 15.578125 39.414062 16.0625 39.414062 16.546875 C 39.410156 16.546875 39.40625 16.546875 39.402344 16.546875 Z M 27.714844 15.960938 C 27.714844 15.621094 27.691406 15.277344 27.539062 14.964844 C 27.226562 14.316406 26.664062 14.089844 25.992188 14.117188 C 25.34375 14.140625 24.808594 14.359375 24.507812 15.015625 C 24.355469 15.347656 24.292969 15.679688 24.261719 16.03125 C 24.171875 17.113281 24.304688 18.183594 24.507812 19.246094 C 24.609375 19.78125 24.792969 20.28125 25.101562 20.734375 C 25.566406 21.417969 26.414062 21.464844 26.945312 20.835938 C 27.191406 20.542969 27.335938 20.203125 27.429688 19.835938 C 27.660156 18.921875 27.710938 17.988281 27.71875 17.050781 C 27.71875 16.6875 27.71875 16.324219 27.714844 15.960938 Z M 27.714844 15.960938 " fill-opacity="1" fill-rule="nonzero"/></g><g clip-path="url(#0db44fe50d)"><path fill="#d4f6c8" d="M 48.601562 64.039062 C 45.355469 64.117188 44.640625 64.074219 39.90625 64.136719 C 34.195312 64.207031 34.226562 64.28125 31.796875 64.234375 C 30.980469 64.21875 29.035156 64.140625 25.152344 63.984375 C 21.011719 63.820312 20.523438 63.789062 20.070312 63.753906 C 18.382812 63.628906 15.984375 63.386719 13.078125 62.863281 C 13.027344 61.753906 12.945312 59.957031 12.859375 57.75 C 12.648438 52.277344 12.378906 44.941406 12.53125 35.761719 C 12.550781 34.375 12.597656 32.289062 12.6875 29.730469 C 17.40625 29.703125 21.222656 29.714844 23.699219 29.730469 C 29.34375 29.765625 31.9375 29.839844 46.511719 30.042969 C 48.988281 30.078125 51.460938 30.066406 53.933594 30.121094 C 58.613281 30.226562 61.476562 30.398438 65.730469 30.042969 C 66.992188 29.9375 68.027344 29.816406 68.707031 29.730469 C 68.757812 30.289062 68.824219 31.089844 68.882812 32.050781 C 69.027344 34.46875 69.027344 36.277344 69.011719 38.738281 C 68.996094 41.648438 68.964844 44.203125 68.933594 46.335938 C 66.605469 47.277344 64.210938 48.207031 61.75 49.121094 C 60.078125 49.742188 58.421875 50.335938 56.789062 50.902344 C 56.6875 51.40625 56.53125 52.15625 56.316406 53.058594 C 55.90625 54.808594 55.761719 55.136719 55.519531 56.195312 C 55.148438 57.84375 55.253906 58.148438 54.90625 60.273438 C 54.765625 61.121094 54.539062 62.351562 54.171875 63.84375 C 52.953125 63.898438 51.003906 63.980469 48.601562 64.039062 Z M 16.757812 55.382812 C 16.753906 55.382812 16.753906 55.382812 16.753906 55.382812 C 16.796875 56.644531 16.839844 57.90625 16.878906 59.167969 C 16.886719 59.355469 16.894531 59.542969 17.046875 59.675781 C 17.300781 59.886719 17.558594 60.097656 17.929688 59.949219 C 17.980469 59.929688 18.042969 59.925781 18.09375 59.933594 C 18.558594 60.03125 19.03125 59.941406 19.5 59.984375 C 20.074219 60.039062 20.65625 59.957031 21.238281 59.996094 C 21.851562 60.035156 22.464844 59.945312 23.078125 60 C 23.523438 60.039062 23.972656 59.992188 24.425781 60.015625 C 25.066406 60.050781 25.714844 60.003906 26.363281 60.011719 C 27.269531 60.027344 28.175781 60.023438 29.085938 60.054688 C 29.773438 60.078125 30.460938 60.097656 31.148438 60.113281 C 31.902344 60.132812 32.65625 60.15625 33.410156 60.167969 C 34.21875 60.183594 35.027344 60.195312 35.835938 60.21875 C 36.484375 60.234375 37.128906 60.210938 37.773438 60.214844 C 39.53125 60.222656 41.28125 60.042969 43.039062 60.105469 C 43.5625 60.125 44.089844 60.09375 44.613281 60.105469 C 45.152344 60.121094 45.683594 60.175781 46.214844 60.222656 C 46.804688 60.269531 47.394531 60.3125 47.980469 60.320312 C 48.839844 60.332031 49.703125 60.304688 50.566406 60.253906 C 50.730469 60.242188 50.796875 60.175781 50.835938 60.035156 C 50.917969 59.730469 51.015625 59.433594 51.101562 59.132812 C 51.171875 58.886719 51.160156 58.882812 50.910156 58.871094 C 50.597656 58.855469 50.304688 58.960938 49.996094 58.972656 C 49.121094 59 48.246094 58.972656 47.371094 58.941406 C 46.824219 58.921875 46.273438 58.914062 45.738281 58.839844 C 45.050781 58.746094 44.363281 58.796875 43.675781 58.738281 C 43.398438 58.714844 43.359375 58.707031 43.355469 58.414062 C 43.347656 57.359375 43.261719 56.308594 43.296875 55.25 C 43.320312 54.5625 43.335938 53.871094 43.3125 53.183594 C 43.300781 52.753906 43.28125 52.324219 43.328125 51.894531 C 43.34375 51.71875 43.410156 51.675781 43.566406 51.671875 C 44.550781 51.628906 45.539062 51.640625 46.519531 51.515625 C 46.769531 51.484375 47.027344 51.488281 47.277344 51.484375 C 48.75 51.464844 50.210938 51.289062 51.679688 51.269531 C 51.960938 51.265625 52.25 51.210938 52.523438 51.15625 C 53.007812 51.0625 53.492188 51.007812 53.980469 50.9375 C 54.617188 50.847656 54.972656 50.46875 54.9375 49.851562 C 54.90625 49.304688 54.871094 48.757812 54.828125 48.210938 C 54.769531 47.429688 54.773438 46.640625 54.789062 45.855469 C 54.804688 44.960938 54.742188 44.066406 54.710938 43.171875 C 54.703125 42.945312 54.695312 42.71875 54.691406 42.492188 C 54.6875 42.242188 54.714844 42.214844 54.972656 42.226562 C 55.105469 42.230469 55.234375 42.273438 55.363281 42.265625 C 56.503906 42.195312 57.644531 42.289062 58.785156 42.222656 C 60 42.152344 61.21875 42.210938 62.429688 42.039062 C 62.617188 42.011719 62.652344 42.050781 62.660156 42.253906 C 62.679688 42.695312 62.691406 43.136719 62.707031 43.582031 C 62.726562 44.171875 62.75 44.765625 62.765625 45.359375 C 62.769531 45.523438 62.832031 45.59375 63.003906 45.582031 C 63.289062 45.5625 63.574219 45.5625 63.859375 45.550781 C 64.148438 45.535156 64.152344 45.535156 64.144531 45.253906 C 64.078125 43.164062 63.980469 41.074219 64 38.980469 C 64 38.777344 63.96875 38.570312 63.996094 38.367188 C 64.050781 37.898438 64.039062 37.425781 64.054688 36.953125 C 64.066406 36.609375 64.089844 36.265625 64.113281 35.921875 C 64.152344 35.300781 64.195312 34.679688 64.164062 34.054688 C 64.144531 33.601562 63.78125 33.242188 63.3125 33.265625 C 62.171875 33.320312 61.03125 33.277344 59.890625 33.316406 C 58.171875 33.375 56.449219 33.4375 54.730469 33.53125 C 52.332031 33.660156 49.929688 33.769531 47.527344 33.730469 C 47.011719 33.722656 46.5 33.765625 45.984375 33.730469 C 45.417969 33.691406 44.84375 33.714844 44.277344 33.722656 C 41.984375 33.753906 39.695312 33.894531 37.398438 33.878906 C 36.785156 33.875 36.175781 33.914062 35.558594 33.890625 C 34.742188 33.855469 33.921875 33.855469 33.101562 33.835938 C 32.292969 33.820312 31.480469 33.914062 30.667969 33.84375 C 30.292969 33.8125 29.933594 33.929688 29.558594 33.953125 C 29.304688 33.964844 29.144531 34.140625 29.066406 34.371094 C 29.019531 34.5 28.984375 34.644531 28.992188 34.78125 C 29.023438 35.554688 28.9375 36.328125 28.945312 37.101562 C 28.953125 38.070312 28.898438 39.039062 28.957031 40.007812 C 28.964844 40.105469 28.980469 40.207031 28.957031 40.296875 C 28.867188 40.679688 28.953125 40.660156 28.550781 40.640625 C 28.191406 40.621094 27.832031 40.613281 27.46875 40.625 C 25.925781 40.671875 24.378906 40.707031 22.835938 40.847656 C 22.792969 40.851562 22.75 40.847656 22.707031 40.855469 C 22.136719 40.972656 21.554688 40.972656 20.976562 41.027344 C 20.464844 41.078125 19.945312 41.066406 19.433594 41.09375 C 18.753906 41.128906 18.074219 41.089844 17.398438 41.21875 C 17.074219 41.28125 16.886719 41.449219 16.816406 41.773438 C 16.660156 42.511719 16.621094 43.265625 16.585938 44.011719 C 16.546875 44.878906 16.527344 45.753906 16.539062 46.621094 C 16.566406 48.625 16.667969 50.628906 16.667969 52.636719 C 16.671875 53.550781 16.726562 54.46875 16.757812 55.382812 Z M 68.703125 48.050781 C 65.21875 49.402344 61.414062 50.863281 58.296875 51.953125 C 57.1875 55.398438 56.308594 60.042969 55.710938 63.640625 C 58.035156 60.769531 59.9375 58.488281 61.253906 56.921875 C 62.449219 55.503906 63.328125 54.476562 65.171875 52.28125 C 66.679688 50.484375 67.902344 49.011719 68.703125 48.050781 Z M 24.949219 49.773438 C 25.777344 49.796875 26.613281 49.75 27.445312 49.761719 C 27.683594 49.765625 27.921875 49.742188 28.164062 49.78125 C 28.3125 49.808594 28.472656 49.777344 28.625 49.773438 C 28.734375 49.773438 28.78125 49.722656 28.777344 49.632812 C 28.769531 49.347656 28.789062 49.058594 28.804688 48.773438 C 28.835938 48.265625 28.808594 47.753906 28.8125 47.246094 C 28.8125 46.46875 28.847656 45.691406 28.820312 44.914062 C 28.804688 44.460938 28.847656 44.007812 28.859375 43.554688 C 28.863281 43.277344 28.855469 43 28.898438 42.722656 C 28.933594 42.507812 28.910156 42.472656 28.65625 42.480469 C 27.769531 42.515625 26.878906 42.488281 25.996094 42.527344 C 25.328125 42.554688 24.664062 42.609375 23.996094 42.632812 C 23.535156 42.652344 23.078125 42.710938 22.621094 42.75 C 21.828125 42.816406 21.03125 42.875 20.238281 42.929688 C 20.003906 42.945312 19.777344 42.890625 19.550781 42.898438 C 19.113281 42.917969 18.679688 42.882812 18.242188 42.847656 C 18.078125 42.835938 18.007812 42.871094 18.015625 43.011719 C 18.027344 43.253906 17.976562 43.492188 17.96875 43.730469 C 17.960938 44.15625 17.964844 44.582031 17.964844 45.007812 C 17.960938 45.710938 17.902344 46.414062 17.941406 47.121094 C 17.988281 47.925781 18 48.734375 18.027344 49.539062 C 18.027344 49.652344 18.03125 49.757812 18.007812 49.871094 C 17.964844 50.050781 17.996094 50.082031 18.222656 50.074219 C 18.628906 50.0625 19.03125 50.019531 19.433594 49.992188 C 20.230469 49.933594 21.023438 49.835938 21.824219 49.839844 C 22.078125 49.839844 22.332031 49.824219 22.582031 49.816406 C 23.371094 49.824219 24.15625 49.753906 24.949219 49.773438 Z M 41.757812 58.792969 C 41.925781 58.796875 41.988281 58.726562 41.980469 58.5625 C 41.960938 58.183594 41.953125 57.804688 41.941406 57.429688 C 41.925781 56.957031 41.867188 56.476562 41.910156 56.007812 C 41.96875 55.332031 41.886719 54.65625 41.945312 53.980469 C 41.996094 53.433594 41.878906 52.882812 41.960938 52.335938 C 41.980469 52.1875 41.953125 52.035156 41.949219 51.882812 C 41.945312 51.796875 41.910156 51.730469 41.816406 51.734375 C 41.628906 51.746094 41.449219 51.683594 41.261719 51.6875 C 40.066406 51.703125 38.875 51.785156 37.679688 51.761719 C 36.484375 51.734375 35.292969 51.808594 34.097656 51.808594 C 33.308594 51.808594 32.519531 51.746094 31.734375 51.8125 C 31.699219 51.8125 31.667969 51.816406 31.632812 51.808594 C 31.210938 51.71875 30.78125 51.804688 30.355469 51.792969 C 30.195312 51.789062 30.171875 51.871094 30.144531 52.011719 C 30.054688 52.5 30.113281 52.996094 30.09375 53.488281 C 30.066406 54.066406 30.011719 54.648438 30.0625 55.230469 C 30.066406 55.273438 30.070312 55.316406 30.0625 55.359375 C 29.960938 55.988281 30.101562 56.625 30.007812 57.257812 C 29.976562 57.480469 30.011719 57.707031 29.976562 57.933594 C 29.941406 58.140625 29.976562 58.363281 29.980469 58.578125 C 29.984375 58.683594 30.035156 58.738281 30.144531 58.734375 C 30.398438 58.722656 30.648438 58.757812 30.898438 58.765625 C 31.628906 58.78125 32.359375 58.804688 33.089844 58.820312 C 33.878906 58.835938 34.664062 58.839844 35.449219 58.871094 C 35.972656 58.890625 36.5 58.875 37.023438 58.875 C 38.394531 58.882812 39.761719 58.761719 41.132812 58.8125 C 41.339844 58.808594 41.550781 58.792969 41.757812 58.792969 Z M 53.425781 45.941406 C 53.386719 44.820312 53.347656 43.699219 53.3125 42.582031 C 53.300781 42.214844 53.296875 42.214844 52.917969 42.226562 C 52.609375 42.234375 52.296875 42.28125 51.996094 42.242188 C 51.339844 42.160156 50.6875 42.265625 50.03125 42.207031 C 49.410156 42.152344 48.785156 42.246094 48.160156 42.207031 C 47.515625 42.164062 46.871094 42.222656 46.222656 42.207031 C 45.609375 42.195312 44.996094 42.140625 44.386719 42.183594 C 44.332031 42.1875 44.273438 42.183594 44.222656 42.167969 C 44.039062 42.113281 43.851562 42.15625 43.664062 42.148438 C 43.523438 42.144531 43.472656 42.214844 43.476562 42.347656 C 43.488281 42.628906 43.457031 42.90625 43.453125 43.183594 C 43.441406 43.851562 43.402344 44.515625 43.386719 45.179688 C 43.378906 45.78125 43.308594 46.382812 43.367188 46.984375 C 43.375 47.0625 43.378906 47.136719 43.371094 47.210938 C 43.296875 47.875 43.351562 48.542969 43.3125 49.207031 C 43.300781 49.464844 43.332031 49.71875 43.285156 49.980469 C 43.230469 50.273438 43.289062 50.320312 43.589844 50.3125 C 43.644531 50.3125 43.699219 50.3125 43.753906 50.308594 C 44.890625 50.257812 46.03125 50.238281 47.167969 50.140625 C 48.128906 50.058594 49.097656 50.070312 50.0625 50.023438 C 50.609375 50 51.152344 50.003906 51.699219 49.921875 C 52.261719 49.835938 52.816406 49.710938 53.378906 49.660156 C 53.507812 49.648438 53.546875 49.582031 53.542969 49.46875 C 53.535156 49.390625 53.535156 49.316406 53.53125 49.242188 C 53.496094 48.140625 53.460938 47.042969 53.421875 45.941406 C 53.421875 45.941406 53.421875 45.941406 53.425781 45.941406 Z M 18.136719 55.332031 C 18.171875 56.347656 18.203125 57.359375 18.238281 58.375 C 18.242188 58.449219 18.246094 58.523438 18.25 58.597656 C 18.253906 58.691406 18.304688 58.734375 18.394531 58.738281 C 18.449219 58.738281 18.503906 58.734375 18.558594 58.734375 C 19.929688 58.714844 21.296875 58.585938 22.671875 58.65625 C 23.128906 58.679688 23.589844 58.671875 24.046875 58.664062 C 25.023438 58.648438 26 58.714844 26.972656 58.652344 C 27.082031 58.644531 27.195312 58.640625 27.300781 58.660156 C 27.671875 58.726562 28.046875 58.65625 28.417969 58.664062 C 28.539062 58.667969 28.59375 58.613281 28.597656 58.488281 C 28.617188 57.886719 28.664062 57.289062 28.65625 56.6875 C 28.648438 56.0625 28.726562 55.441406 28.671875 54.816406 C 28.667969 54.792969 28.671875 54.773438 28.671875 54.75 C 28.75 54.183594 28.695312 53.613281 28.738281 53.046875 C 28.753906 52.832031 28.738281 52.617188 28.769531 52.402344 C 28.851562 51.828125 28.746094 51.726562 28.15625 51.742188 C 27.816406 51.753906 27.472656 51.800781 27.136719 51.761719 C 26.4375 51.683594 25.734375 51.738281 25.039062 51.738281 C 23.457031 51.734375 21.878906 51.828125 20.296875 51.878906 C 20.210938 51.882812 20.121094 51.882812 20.035156 51.894531 C 19.4375 52.003906 18.839844 52.019531 18.238281 51.960938 C 18.101562 51.949219 18.023438 51.980469 18.03125 52.128906 C 18.035156 52.207031 18.035156 52.28125 18.035156 52.355469 C 18.070312 53.347656 18.101562 54.339844 18.136719 55.332031 Z M 41.628906 35.09375 C 39.734375 35.125 37.839844 35.277344 35.941406 35.230469 C 35.097656 35.210938 34.257812 35.191406 33.417969 35.1875 C 32.585938 35.1875 31.753906 35.199219 30.925781 35.128906 C 30.785156 35.117188 30.644531 35.09375 30.503906 35.082031 C 30.390625 35.074219 30.316406 35.117188 30.3125 35.246094 C 30.308594 35.546875 30.269531 35.847656 30.277344 36.148438 C 30.292969 36.78125 30.332031 37.414062 30.296875 38.050781 C 30.253906 38.824219 30.367188 39.597656 30.300781 40.375 C 30.277344 40.644531 30.304688 40.648438 30.574219 40.648438 C 31.054688 40.648438 31.535156 40.621094 32.015625 40.648438 C 32.617188 40.6875 33.21875 40.617188 33.820312 40.660156 C 34.355469 40.695312 34.894531 40.652344 35.429688 40.660156 C 36.117188 40.667969 36.808594 40.699219 37.496094 40.671875 C 38.054688 40.652344 38.613281 40.738281 39.171875 40.683594 C 39.183594 40.683594 39.195312 40.683594 39.203125 40.6875 C 39.8125 40.761719 40.425781 40.707031 41.039062 40.746094 C 41.296875 40.761719 41.558594 40.726562 41.824219 40.773438 C 42.121094 40.828125 42.171875 40.769531 42.160156 40.472656 C 42.136719 39.664062 42.109375 38.855469 42.085938 38.046875 C 42.078125 37.832031 42.039062 37.613281 42.070312 37.402344 C 42.167969 36.792969 42 36.175781 42.132812 35.675781 C 42.109375 35.015625 42.171875 35.085938 41.628906 35.09375 Z M 43.59375 35.085938 C 43.417969 35.085938 43.355469 35.164062 43.375 35.324219 C 43.382812 35.390625 43.378906 35.453125 43.382812 35.519531 C 43.433594 37.113281 43.488281 38.710938 43.539062 40.304688 C 43.554688 40.828125 43.554688 40.839844 44.097656 40.832031 C 44.84375 40.824219 45.585938 40.863281 46.328125 40.886719 C 46.90625 40.902344 47.484375 40.859375 48.066406 40.890625 C 48.742188 40.925781 49.421875 40.832031 50.101562 40.882812 C 50.636719 40.925781 51.171875 40.847656 51.710938 40.894531 C 52.175781 40.9375 52.648438 40.828125 53.121094 40.914062 C 53.226562 40.933594 53.3125 40.894531 53.316406 40.761719 C 53.316406 40.46875 53.363281 40.183594 53.355469 39.890625 C 53.339844 39.269531 53.332031 38.644531 53.332031 38.019531 C 53.332031 37.097656 53.371094 36.167969 53.328125 35.246094 C 53.3125 34.960938 53.3125 34.957031 53.023438 34.964844 C 51.390625 35.015625 49.757812 35.09375 48.125 35.070312 C 47.554688 35.0625 46.988281 35.089844 46.417969 35.082031 C 45.695312 35.070312 44.972656 35.042969 44.25 35.066406 C 44.03125 35.074219 43.8125 35.089844 43.59375 35.085938 Z M 43.59375 35.085938 " fill-opacity="1" fill-rule="nonzero"/></g><g clip-path="url(#19a6aa4d3c)"><path fill="#f68373" d="M 37.667969 18.023438 C 37.652344 18.351562 37.570312 18.660156 37.566406 18.980469 C 37.558594 20.734375 38.769531 22.28125 40.539062 22.652344 C 41.589844 22.871094 42.570312 22.566406 43.382812 21.84375 C 44.425781 20.917969 44.699219 19.730469 44.507812 18.398438 C 44.5 18.363281 44.496094 18.332031 44.488281 18.300781 C 44.417969 17.925781 44.417969 17.925781 44.816406 17.925781 C 45.660156 17.921875 46.507812 17.941406 47.351562 17.910156 C 48.710938 17.863281 50.074219 17.886719 51.433594 17.839844 C 52.003906 17.820312 52.574219 17.800781 53.144531 17.785156 C 53.441406 17.777344 53.433594 17.785156 53.449219 18.09375 C 53.496094 19.132812 53.730469 20.121094 54.375 20.964844 C 54.964844 21.742188 55.6875 22.3125 56.691406 22.457031 C 57.824219 22.621094 59.03125 22.191406 59.558594 20.917969 C 59.847656 20.21875 59.996094 19.492188 60.042969 18.738281 C 60.054688 18.507812 60.082031 18.28125 60.089844 18.046875 C 60.09375 17.898438 60.164062 17.859375 60.296875 17.867188 C 60.558594 17.886719 60.820312 17.910156 61.085938 17.914062 C 61.808594 17.929688 62.535156 17.917969 63.257812 17.941406 C 64.277344 17.976562 65.292969 18.019531 66.296875 18.246094 C 67.207031 18.449219 67.933594 18.925781 68.46875 19.683594 C 68.738281 20.070312 68.828125 20.53125 68.929688 20.980469 C 69.042969 21.507812 69.074219 22.046875 69.105469 22.585938 C 69.160156 23.597656 69.199219 24.609375 69.242188 25.617188 C 69.261719 26.058594 69.222656 26.5 69.191406 26.9375 C 69.164062 27.347656 69.019531 27.492188 68.617188 27.492188 C 68.335938 27.492188 68.085938 27.613281 67.816406 27.652344 C 67.433594 27.707031 67.050781 27.71875 66.667969 27.753906 C 65.695312 27.835938 64.71875 27.851562 63.746094 27.90625 C 61.035156 28.0625 58.324219 28.042969 55.617188 28.015625 C 54.222656 28 52.828125 27.980469 51.433594 27.949219 C 47.1875 27.863281 42.9375 27.914062 38.6875 27.894531 C 35.40625 27.878906 32.121094 27.945312 28.839844 27.902344 C 27.863281 27.890625 26.886719 27.875 25.910156 27.816406 C 23.519531 27.671875 21.128906 27.671875 18.738281 27.71875 C 18.289062 27.730469 17.839844 27.757812 17.390625 27.765625 C 16.542969 27.773438 15.703125 27.703125 14.859375 27.65625 C 14.398438 27.628906 13.9375 27.652344 13.476562 27.644531 C 12.964844 27.640625 12.882812 27.5625 12.863281 27.054688 C 12.835938 26.285156 12.703125 25.523438 12.730469 24.75 C 12.769531 23.695312 12.855469 22.644531 13.195312 21.632812 C 13.65625 20.265625 14.570312 19.351562 15.898438 18.84375 C 17.023438 18.414062 18.191406 18.203125 19.394531 18.105469 C 20.488281 18.019531 21.582031 17.976562 22.675781 17.9375 C 23.125 17.921875 23.117188 17.933594 23.085938 18.390625 C 23.039062 19.074219 23.058594 19.761719 23.320312 20.40625 C 23.820312 21.628906 24.679688 22.4375 26.019531 22.65625 C 27.148438 22.84375 28.089844 22.363281 28.585938 21.308594 C 29.039062 20.347656 29.222656 19.328125 29.089844 18.261719 C 29.054688 18 29.0625 17.992188 29.34375 17.992188 C 30.398438 18 31.449219 18.046875 32.503906 18.058594 C 34.109375 18.070312 35.710938 17.96875 37.3125 17.996094 C 37.429688 17.996094 37.550781 17.976562 37.667969 18.023438 Z M 41.664062 50.109375 C 41.9375 50.097656 41.945312 50.09375 41.945312 49.859375 C 41.941406 49.125 41.992188 48.386719 41.996094 47.652344 C 41.996094 46.453125 42.070312 45.253906 42.109375 44.054688 C 42.121094 43.679688 42.117188 43.300781 42.144531 42.925781 C 42.164062 42.683594 42.160156 42.675781 41.894531 42.671875 C 40.777344 42.652344 39.660156 42.628906 38.542969 42.617188 C 37.269531 42.609375 36 42.613281 34.726562 42.609375 C 34.648438 42.609375 34.574219 42.613281 34.496094 42.613281 C 33.179688 42.605469 31.867188 42.597656 30.550781 42.597656 C 30.277344 42.59375 30.273438 42.605469 30.257812 42.839844 C 30.1875 43.871094 30.179688 44.90625 30.171875 45.941406 C 30.160156 46.957031 30.167969 47.972656 30.148438 48.988281 C 30.140625 49.328125 30.15625 49.667969 30.152344 50.007812 C 30.148438 50.152344 30.207031 50.214844 30.378906 50.207031 C 30.710938 50.195312 31.039062 50.214844 31.367188 50.214844 C 32.527344 50.226562 33.691406 50.222656 34.851562 50.21875 C 35.632812 50.21875 36.410156 50.1875 37.191406 50.1875 C 38.460938 50.183594 39.734375 50.117188 41.007812 50.132812 C 41.226562 50.125 41.445312 50.117188 41.664062 50.109375 Z M 41.664062 50.109375 " fill-opacity="1" fill-rule="nonzero"/></g><path fill="#ffe074" d="M 60.109375 40.875 C 59.089844 40.886719 58.070312 40.90625 57.050781 40.898438 C 56.371094 40.894531 55.691406 40.914062 55.011719 40.917969 C 54.703125 40.917969 54.683594 40.917969 54.695312 40.621094 C 54.734375 39.675781 54.648438 38.726562 54.6875 37.78125 C 54.71875 36.980469 54.613281 36.191406 54.589844 35.394531 C 54.585938 35.308594 54.582031 35.222656 54.578125 35.136719 C 54.578125 34.882812 54.589844 34.863281 54.855469 34.851562 C 55.402344 34.820312 55.953125 34.796875 56.5 34.777344 C 57.003906 34.761719 57.503906 34.703125 58.007812 34.6875 C 59.160156 34.652344 60.308594 34.632812 61.460938 34.636719 C 61.808594 34.636719 62.160156 34.652344 62.511719 34.636719 C 62.6875 34.628906 62.746094 34.699219 62.738281 34.859375 C 62.726562 35.277344 62.746094 35.703125 62.699219 36.117188 C 62.648438 36.546875 62.671875 36.976562 62.644531 37.40625 C 62.605469 38.050781 62.625 38.699219 62.625 39.34375 C 62.625 39.710938 62.574219 40.074219 62.558594 40.4375 C 62.550781 40.613281 62.457031 40.683594 62.304688 40.714844 C 62.25 40.726562 62.195312 40.738281 62.140625 40.742188 C 61.460938 40.757812 60.789062 40.882812 60.109375 40.875 Z M 60.109375 40.875 " fill-opacity="1" fill-rule="nonzero"/></svg>