<svg xmlns="http://www.w3.org/2000/svg" xmlns:xlink="http://www.w3.org/1999/xlink" width="500" zoomAndPan="magnify" viewBox="0 0 375 374.999991" height="500" preserveAspectRatio="xMidYMid meet" version="1.0"><defs><clipPath id="7324755056"><path d="M 0 1.324219 L 82.113281 1.324219 L 82.113281 83.4375 L 0 83.4375 Z M 0 1.324219 " clip-rule="nonzero"/></clipPath><clipPath id="e2ea6b5f1e"><path d="M 41.058594 1.324219 C 18.382812 1.324219 0 19.703125 0 42.378906 C 0 65.054688 18.382812 83.4375 41.058594 83.4375 C 63.730469 83.4375 82.113281 65.054688 82.113281 42.378906 C 82.113281 19.703125 63.730469 1.324219 41.058594 1.324219 " clip-rule="nonzero"/></clipPath><clipPath id="f67930c3ed"><path d="M 9.046875 0 L 73.625 0 L 73.625 71.214844 L 9.046875 71.214844 Z M 9.046875 0 " clip-rule="nonzero"/></clipPath></defs><g clip-path="url(#7324755056)"><g clip-path="url(#e2ea6b5f1e)"><path fill="#bc3081" d="M 0 1.324219 L 82.113281 1.324219 L 82.113281 83.4375 L 0 83.4375 Z M 0 1.324219 " fill-opacity="1" fill-rule="nonzero"/></g></g><g clip-path="url(#f67930c3ed)"><path fill="#000000" d="M 43.039062 18.066406 C 43.03125 18.058594 43.023438 18.054688 43.011719 18.054688 C 43 18.054688 42.992188 18.0625 42.988281 18.070312 L 42.9375 18.21875 L 42.734375 18.269531 C 42.683594 18.28125 42.636719 18.28125 42.589844 18.269531 L 41.546875 18.042969 C 41.527344 18.039062 41.507812 18.039062 41.484375 18.042969 L 41.324219 18.085938 L 41.164062 18.042969 C 41.144531 18.039062 41.125 18.039062 41.105469 18.042969 L 40.0625 18.269531 C 40.015625 18.28125 39.964844 18.28125 39.917969 18.269531 L 39.710938 18.21875 L 39.660156 18.070312 C 39.65625 18.0625 39.648438 18.054688 39.640625 18.054688 C 39.628906 18.054688 39.617188 18.058594 39.613281 18.066406 L 39.539062 18.1875 C 39.527344 18.207031 39.53125 18.226562 39.546875 18.242188 C 39.691406 18.367188 39.847656 18.464844 40.023438 18.535156 C 40.25 18.613281 41.011719 18.574219 41.277344 18.636719 C 41.308594 18.644531 41.339844 18.644531 41.371094 18.636719 C 41.636719 18.574219 42.398438 18.613281 42.625 18.535156 C 42.800781 18.464844 42.957031 18.367188 43.101562 18.242188 C 43.121094 18.226562 43.121094 18.207031 43.109375 18.1875 L 43.035156 18.066406 Z M 72.40625 60.820312 C 72.566406 60.820312 72.71875 60.851562 72.863281 60.914062 C 73.011719 60.972656 73.140625 61.058594 73.253906 61.171875 C 73.367188 61.285156 73.453125 61.414062 73.515625 61.558594 C 73.578125 61.707031 73.605469 61.859375 73.605469 62.019531 L 73.605469 70.019531 C 73.605469 70.179688 73.578125 70.332031 73.515625 70.476562 C 73.453125 70.625 73.367188 70.753906 73.253906 70.867188 C 73.140625 70.976562 73.011719 71.0625 72.863281 71.125 C 72.71875 71.183594 72.566406 71.214844 72.40625 71.214844 L 10.246094 71.214844 C 10.089844 71.214844 9.933594 71.183594 9.789062 71.125 C 9.640625 71.0625 9.511719 70.976562 9.398438 70.867188 C 9.285156 70.753906 9.199219 70.625 9.136719 70.476562 C 9.078125 70.332031 9.046875 70.179688 9.046875 70.019531 L 9.046875 62.019531 C 9.046875 61.859375 9.078125 61.707031 9.136719 61.558594 C 9.199219 61.414062 9.285156 61.285156 9.398438 61.171875 C 9.511719 61.058594 9.640625 60.972656 9.789062 60.914062 C 9.933594 60.851562 10.089844 60.820312 10.246094 60.820312 L 14.765625 60.820312 L 14.902344 59.695312 C 14.90625 59.679688 14.910156 59.667969 14.914062 59.652344 L 14.25 59.210938 L 13.953125 58.371094 L 13.652344 58.210938 C 13.4375 58.097656 13.289062 57.925781 13.207031 57.699219 L 13.035156 57.234375 L 12.320312 56.460938 C 12.234375 56.367188 12.167969 56.261719 12.128906 56.140625 L 11.824219 55.257812 L 11.191406 54.59375 C 11.035156 54.429688 10.953125 54.230469 10.945312 54.003906 C 10.9375 53.777344 11.003906 53.578125 11.148438 53.398438 L 11.453125 53.027344 L 12.992188 51.070312 C 13.191406 50.8125 13.457031 50.683594 13.785156 50.679688 L 16.015625 50.648438 L 17.644531 48.101562 C 17.808594 47.847656 17.925781 47.574219 17.996094 47.277344 L 19.066406 42.855469 C 19.089844 42.753906 19.125 42.660156 19.164062 42.570312 L 19.941406 40.902344 C 19.996094 40.789062 20.0625 40.679688 20.144531 40.582031 L 20.980469 39.554688 C 21.199219 39.289062 21.34375 38.988281 21.421875 38.652344 L 21.933594 36.375 L 22.484375 34.65625 C 22.246094 34.425781 22.078125 34.148438 21.984375 33.832031 C 21.914062 33.605469 21.917969 33.382812 21.996094 33.160156 C 22.71875 31.109375 23.625 28.875 23.625 28.875 L 24.765625 24.589844 L 25.128906 22.824219 C 25.203125 22.464844 25.414062 22.21875 25.757812 22.085938 L 27.226562 21.515625 L 33.992188 18.292969 C 34.1875 18.199219 34.363281 18.074219 34.515625 17.917969 L 35.890625 16.523438 C 35.828125 15.964844 35.78125 15.402344 35.757812 15.085938 C 35.714844 15.015625 35.671875 14.949219 35.632812 14.886719 C 35.449219 15.003906 35.25 15.066406 35.03125 15.070312 C 34.53125 15.070312 34.070312 14.71875 33.707031 14.128906 C 32.785156 13.871094 32.082031 12.414062 32.082031 10.648438 C 32.082031 8.886719 32.785156 7.429688 33.707031 7.171875 C 33.726562 7.136719 33.746094 7.105469 33.769531 7.074219 L 33.769531 2.613281 C 33.773438 2.527344 33.804688 2.457031 33.867188 2.394531 C 33.929688 2.335938 34.007812 2.308594 34.09375 2.308594 C 34.179688 2.308594 34.253906 2.335938 34.316406 2.394531 C 34.378906 2.457031 34.414062 2.527344 34.417969 2.613281 L 34.417969 3.199219 C 34.417969 3.226562 34.429688 3.246094 34.457031 3.253906 C 34.480469 3.261719 34.503906 3.253906 34.519531 3.230469 C 35.285156 2.113281 37.394531 0 41.328125 0 C 45.257812 0 47.367188 2.113281 48.132812 3.230469 C 48.148438 3.253906 48.167969 3.261719 48.195312 3.253906 C 48.222656 3.246094 48.234375 3.226562 48.234375 3.199219 L 48.234375 2.613281 C 48.238281 2.527344 48.273438 2.457031 48.335938 2.394531 C 48.398438 2.335938 48.472656 2.304688 48.558594 2.304688 C 48.644531 2.304688 48.71875 2.335938 48.78125 2.394531 C 48.847656 2.457031 48.878906 2.527344 48.882812 2.613281 L 48.882812 7.070312 C 48.90625 7.105469 48.925781 7.136719 48.945312 7.171875 C 49.867188 7.429688 50.570312 8.886719 50.570312 10.648438 C 50.570312 12.414062 49.867188 13.871094 48.945312 14.128906 C 48.582031 14.71875 48.121094 15.070312 47.621094 15.070312 C 47.402344 15.066406 47.203125 15.003906 47.019531 14.886719 C 46.980469 14.949219 46.9375 15.015625 46.894531 15.085938 C 46.867188 15.402344 46.820312 15.964844 46.761719 16.523438 L 48.136719 17.917969 C 48.289062 18.074219 48.464844 18.199219 48.660156 18.292969 L 55.425781 21.519531 L 56.894531 22.085938 C 57.238281 22.21875 57.449219 22.464844 57.523438 22.828125 L 57.886719 24.59375 L 59.027344 28.875 C 59.027344 28.875 59.933594 31.109375 60.65625 33.160156 C 60.734375 33.382812 60.738281 33.605469 60.667969 33.832031 C 60.574219 34.152344 60.40625 34.425781 60.167969 34.65625 L 60.71875 36.375 L 61.230469 38.65625 C 61.304688 38.988281 61.453125 39.289062 61.671875 39.554688 L 62.507812 40.582031 C 62.589844 40.679688 62.65625 40.789062 62.710938 40.90625 L 63.484375 42.570312 C 63.527344 42.660156 63.5625 42.757812 63.585938 42.855469 L 64.65625 47.28125 C 64.726562 47.574219 64.84375 47.847656 65.007812 48.105469 L 66.636719 50.648438 L 68.867188 50.679688 C 69.195312 50.683594 69.460938 50.8125 69.660156 51.070312 L 71.195312 53.027344 L 71.503906 53.402344 C 71.644531 53.578125 71.714844 53.777344 71.707031 54.003906 C 71.699219 54.234375 71.617188 54.429688 71.460938 54.59375 L 70.828125 55.261719 L 70.523438 56.140625 C 70.484375 56.261719 70.417969 56.367188 70.332031 56.460938 L 69.617188 57.238281 L 69.445312 57.699219 C 69.363281 57.925781 69.214844 58.097656 69 58.210938 L 68.695312 58.371094 L 68.402344 59.210938 L 67.738281 59.65625 C 67.742188 59.667969 67.746094 59.683594 67.75 59.695312 L 67.886719 60.824219 Z M 55.054688 35.132812 C 54.910156 35.214844 54.808594 35.332031 54.75 35.484375 C 54.691406 35.636719 54.6875 35.789062 54.738281 35.945312 C 55.007812 36.773438 55.558594 38.433594 55.832031 38.972656 C 56.199219 39.707031 57.042969 40.109375 57.890625 40.074219 C 57.628906 40.675781 56.660156 40.535156 56.171875 40.660156 C 56.097656 40.675781 56.054688 40.722656 56.035156 40.796875 C 56.019531 40.871094 56.039062 40.929688 56.097656 40.976562 C 57.183594 41.828125 57.742188 43.660156 57.742188 43.660156 C 57.539062 43.445312 57.304688 43.277344 57.042969 43.148438 C 57.226562 43.550781 57.375 45.5625 57.667969 46.367188 C 57.960938 47.171875 59.320312 48.378906 59.910156 49.40625 C 59.910156 49.40625 59.433594 46.953125 59.066406 46.257812 C 60.277344 47.5 61.269531 51.015625 61.269531 51.015625 L 61.761719 51.246094 C 61.949219 51.335938 62.074219 51.480469 62.136719 51.675781 L 62.777344 53.722656 L 62.910156 55.195312 C 62.945312 55.578125 63.140625 55.851562 63.492188 56.011719 L 65.59375 56.953125 C 65.847656 57.070312 66.054688 57.242188 66.207031 57.476562 L 67.335938 59.210938 L 67.972656 58.578125 C 68.039062 58.511719 68.082031 58.433594 68.101562 58.339844 L 68.460938 56.652344 C 68.472656 56.601562 68.472656 56.550781 68.464844 56.5 L 68.332031 55.625 L 68.425781 55.617188 C 68.582031 55.609375 68.71875 55.554688 68.835938 55.453125 C 68.953125 55.347656 69.027344 55.222656 69.054688 55.070312 L 69.074219 54.980469 C 69.09375 54.878906 69.144531 54.796875 69.222656 54.730469 C 69.304688 54.664062 69.398438 54.632812 69.503906 54.636719 C 69.753906 54.636719 69.925781 54.519531 70.015625 54.28125 L 70.054688 54.1875 C 70.132812 54 70.269531 53.890625 70.46875 53.855469 L 71.050781 53.761719 C 71.050781 53.761719 69.832031 52.421875 69.09375 51.609375 C 68.976562 51.480469 68.832031 51.417969 68.660156 51.414062 C 67.941406 51.398438 65.945312 51.347656 65.316406 51.199219 C 65.132812 50.867188 64.507812 49.882812 64.507812 49.882812 L 65.28125 50.394531 C 65.28125 50.394531 64.582031 49.332031 64.398438 48.894531 C 64.214844 48.453125 63.367188 44.792969 63.257812 44.246094 C 63.148438 43.695312 62.59375 42.671875 62.339844 42.085938 C 62.109375 41.5625 61.675781 40.835938 60.851562 39.878906 C 60.65625 39.652344 60.53125 39.386719 60.480469 39.089844 C 60.199219 37.453125 59.160156 35.347656 58.550781 34.070312 C 57.589844 34.195312 56.027344 34.578125 55.054688 35.136719 Z M 51.542969 47.699219 L 53.933594 57.027344 L 49.75 55.234375 L 44.164062 51.769531 L 40.835938 49.230469 C 40.816406 49.214844 40.800781 49.21875 40.78125 49.234375 C 40.765625 49.25 40.765625 49.269531 40.78125 49.289062 L 41.613281 50.355469 L 45.191406 53.578125 L 50.292969 57.039062 L 54.316406 58.507812 L 54.910156 60.820312 L 60.355469 60.820312 L 60.492188 59.695312 C 60.496094 59.511719 60.589844 59.414062 60.773438 59.394531 L 61.34375 59.394531 C 61.527344 59.414062 61.617188 59.511719 61.625 59.695312 L 61.761719 60.820312 L 63.421875 60.820312 L 63.558594 59.695312 C 63.5625 59.511719 63.65625 59.414062 63.835938 59.394531 L 64.40625 59.394531 C 64.589844 59.414062 64.683594 59.511719 64.6875 59.695312 L 64.824219 60.820312 L 66.484375 60.820312 L 66.621094 59.695312 C 66.628906 59.621094 66.65625 59.558594 66.703125 59.5 L 66.402344 58.835938 C 66.339844 58.695312 66.25 58.574219 66.136719 58.476562 L 65.058594 57.527344 L 62.8125 56.5 C 62.496094 56.355469 62.3125 56.113281 62.257812 55.773438 L 62.191406 55.367188 L 61.535156 53.058594 C 61.507812 52.964844 61.46875 52.875 61.417969 52.789062 L 60.402344 51.015625 C 60.34375 50.917969 60.277344 50.824219 60.203125 50.738281 L 57.527344 47.746094 C 57.425781 47.632812 57.335938 47.507812 57.265625 47.375 L 56.46875 45.941406 C 56.289062 45.617188 56.183594 45.265625 56.15625 44.894531 L 56.007812 42.917969 C 55.988281 42.660156 55.878906 42.445312 55.679688 42.277344 C 55.292969 41.957031 55.097656 41.542969 55.09375 41.042969 L 55.09375 40.824219 C 55.09375 40.640625 55.058594 40.464844 54.988281 40.292969 L 53.585938 36.925781 L 52.558594 36.414062 C 52.167969 36.21875 51.945312 35.902344 51.898438 35.46875 L 51.273438 29.789062 L 50.90625 28.839844 C 50.894531 28.816406 50.878906 28.804688 50.851562 28.8125 C 50.828125 28.816406 50.816406 28.832031 50.816406 28.859375 L 51.292969 35.769531 C 51.328125 36.269531 51.570312 36.636719 52.019531 36.867188 L 52.742188 37.230469 L 51.457031 42.941406 C 51.429688 43.054688 51.359375 43.117188 51.242188 43.128906 L 50.835938 43.167969 C 50.808594 43.171875 50.785156 43.1875 50.773438 43.214844 C 50.765625 43.246094 50.769531 43.269531 50.792969 43.292969 L 51.417969 43.914062 C 51.464844 43.964844 51.488281 44.023438 51.488281 44.09375 L 51.425781 45.898438 C 51.417969 46.039062 51.355469 46.140625 51.226562 46.207031 L 50.097656 46.765625 C 50.019531 46.804688 49.984375 46.871094 49.992188 46.957031 C 50 47.042969 50.046875 47.097656 50.132812 47.121094 L 51.292969 47.445312 C 51.425781 47.484375 51.507812 47.566406 51.542969 47.699219 Z M 52.90625 60.820312 L 52.769531 59.695312 C 52.761719 59.511719 52.671875 59.414062 52.488281 59.394531 L 51.917969 59.394531 C 51.734375 59.414062 51.644531 59.511719 51.636719 59.695312 L 51.5 60.820312 Z M 49.839844 60.820312 L 49.703125 59.695312 C 49.699219 59.511719 49.605469 59.414062 49.425781 59.394531 L 48.851562 59.394531 C 48.671875 59.414062 48.578125 59.511719 48.574219 59.695312 L 48.4375 60.820312 Z M 46.777344 60.820312 L 46.640625 59.695312 C 46.636719 59.511719 46.542969 59.414062 46.363281 59.394531 L 45.789062 59.394531 C 45.609375 59.414062 45.515625 59.515625 45.511719 59.695312 L 45.375 60.820312 Z M 48.96875 33.253906 C 48.96875 32.992188 48.917969 32.738281 48.816406 32.496094 C 48.714844 32.253906 48.574219 32.042969 48.386719 31.855469 C 48.199219 31.671875 47.984375 31.527344 47.742188 31.425781 C 47.5 31.328125 47.246094 31.277344 46.980469 31.277344 C 46.71875 31.277344 46.464844 31.328125 46.222656 31.425781 C 45.980469 31.527344 45.765625 31.671875 45.578125 31.855469 C 45.390625 32.042969 45.25 32.253906 45.148438 32.496094 C 45.046875 32.738281 44.996094 32.992188 44.996094 33.253906 C 44.996094 33.515625 45.046875 33.765625 45.148438 34.007812 C 45.25 34.25 45.390625 34.464844 45.578125 34.652344 C 45.765625 34.835938 45.980469 34.980469 46.222656 35.078125 C 46.464844 35.179688 46.71875 35.230469 46.984375 35.230469 C 47.246094 35.230469 47.5 35.179688 47.742188 35.078125 C 47.984375 34.980469 48.199219 34.835938 48.386719 34.652344 C 48.574219 34.464844 48.714844 34.25 48.816406 34.007812 C 48.917969 33.765625 48.96875 33.515625 48.96875 33.253906 Z M 34.734375 6.273438 C 35.359375 4.042969 36.992188 1.90625 41.328125 1.90625 C 45.660156 1.90625 47.292969 4.042969 47.917969 6.273438 C 48.03125 6.304688 48.136719 6.351562 48.234375 6.414062 L 48.234375 4.285156 C 46.761719 1.433594 43.648438 0.507812 41.328125 0.507812 C 39.003906 0.507812 35.894531 1.433594 34.417969 4.285156 L 34.417969 6.414062 C 34.515625 6.351562 34.621094 6.304688 34.734375 6.273438 Z M 35.816406 9.558594 C 37.121094 9.96875 39.875 10.019531 41.328125 10.019531 C 42.777344 10.019531 45.53125 9.96875 46.835938 9.558594 C 46.90625 9.148438 47.023438 8.753906 47.195312 8.375 C 47.09375 5.953125 45.839844 5.101562 45.160156 4.929688 C 44.527344 4.773438 43.023438 4.816406 41.773438 5.675781 C 41.476562 5.878906 41.179688 5.878906 40.882812 5.675781 C 39.628906 4.816406 38.125 4.773438 37.492188 4.929688 C 36.8125 5.101562 35.5625 5.953125 35.457031 8.375 C 35.628906 8.753906 35.75 9.148438 35.816406 9.558594 Z M 45.234375 17 C 45.632812 16.695312 45.980469 16.34375 46.285156 15.949219 C 46.304688 15.925781 46.324219 15.917969 46.355469 15.929688 C 46.382812 15.941406 46.394531 15.960938 46.390625 15.992188 C 46.335938 16.523438 46.242188 17.257812 46.097656 17.597656 C 45.851562 18.164062 43.355469 21.289062 43.007812 21.585938 C 42.660156 21.886719 42.226562 21.917969 41.328125 21.917969 C 40.425781 21.917969 39.992188 21.886719 39.644531 21.585938 C 39.296875 21.289062 36.800781 18.164062 36.558594 17.597656 C 36.410156 17.257812 36.316406 16.523438 36.261719 15.992188 C 36.257812 15.960938 36.273438 15.941406 36.300781 15.929688 C 36.328125 15.917969 36.351562 15.925781 36.367188 15.949219 C 36.671875 16.34375 37.019531 16.695312 37.417969 17 C 37.429688 17.007812 37.441406 17.007812 37.453125 16.996094 C 37.464844 16.984375 37.464844 16.972656 37.457031 16.960938 C 36.8125 16.09375 36.246094 14.492188 36.234375 13.585938 C 37.1875 13.738281 38.453125 13.730469 39.226562 13.71875 C 39.40625 13.71875 39.570312 13.664062 39.71875 13.5625 C 39.863281 13.457031 39.96875 13.324219 40.03125 13.15625 C 40.214844 12.640625 40.507812 12.011719 41.328125 12.011719 C 42.144531 12.011719 42.4375 12.640625 42.621094 13.15625 C 42.683594 13.324219 42.789062 13.457031 42.933594 13.5625 C 43.082031 13.664062 43.246094 13.71875 43.425781 13.71875 C 44.199219 13.730469 45.464844 13.738281 46.417969 13.585938 C 46.40625 14.492188 45.839844 16.09375 45.199219 16.960938 C 45.1875 16.972656 45.191406 16.984375 45.199219 16.996094 C 45.210938 17.007812 45.222656 17.007812 45.234375 17 Z M 35.5 19.394531 C 35.5 19.152344 35.550781 18.917969 35.652344 18.699219 L 36.066406 17.796875 C 36.085938 17.886719 36.109375 17.976562 36.140625 18.0625 C 36.347656 18.5625 38.636719 23.714844 39.261719 24.078125 C 39.886719 24.445312 40.703125 24.445312 41.328125 24.445312 C 41.949219 24.445312 42.765625 24.445312 43.390625 24.078125 C 44.015625 23.714844 46.304688 18.5625 46.511719 18.0625 C 46.542969 17.976562 46.570312 17.886719 46.585938 17.796875 L 47 18.699219 C 47.101562 18.917969 47.152344 19.152344 47.152344 19.394531 L 47.152344 23.054688 C 47.15625 23.46875 47.011719 23.832031 46.726562 24.132812 C 45.734375 25.179688 43.273438 27.761719 41.808594 29.078125 C 41.671875 29.203125 41.511719 29.261719 41.328125 29.261719 C 41.140625 29.261719 40.980469 29.203125 40.84375 29.078125 C 39.378906 27.761719 36.917969 25.179688 35.929688 24.132812 C 35.640625 23.832031 35.5 23.46875 35.5 23.054688 Z M 40.347656 59.421875 C 40.367188 59.425781 40.378906 59.417969 40.386719 59.398438 C 40.390625 59.382812 40.386719 59.367188 40.367188 59.359375 L 38.035156 58.308594 L 33.425781 55.921875 C 33.40625 55.914062 33.394531 55.917969 33.382812 55.933594 C 33.371094 55.949219 33.375 55.964844 33.390625 55.976562 L 36.402344 58.410156 C 36.640625 58.601562 36.914062 58.730469 37.214844 58.792969 Z M 35.078125 33.257812 C 35.058594 33.234375 35.035156 33.234375 35.007812 33.25 C 34.984375 33.269531 34.980469 33.292969 34.992188 33.320312 L 36.125 35.570312 L 38.574219 38.546875 L 40.230469 40.152344 C 40.253906 40.175781 40.277344 40.175781 40.300781 40.15625 C 40.328125 40.136719 40.332031 40.117188 40.316406 40.089844 L 39.25 38.132812 L 36.566406 34.691406 L 35.082031 33.257812 Z M 30.09375 36.414062 L 29.066406 36.925781 L 27.664062 40.292969 C 27.59375 40.464844 27.558594 40.640625 27.558594 40.824219 L 27.558594 41.042969 C 27.558594 41.539062 27.367188 41.945312 26.988281 42.265625 C 26.78125 42.433594 26.667969 42.652344 26.644531 42.914062 L 26.496094 44.894531 C 26.46875 45.265625 26.363281 45.613281 26.183594 45.941406 L 25.390625 47.375 C 25.316406 47.507812 25.226562 47.628906 25.128906 47.742188 L 22.453125 50.738281 C 22.375 50.824219 22.308594 50.917969 22.25 51.015625 L 21.234375 52.785156 C 21.1875 52.875 21.148438 52.964844 21.121094 53.058594 L 20.460938 55.371094 L 20.398438 55.773438 C 20.34375 56.113281 20.15625 56.355469 19.84375 56.5 L 17.59375 57.527344 L 16.515625 58.476562 C 16.402344 58.578125 16.3125 58.695312 16.25 58.835938 L 15.953125 59.5 C 15.996094 59.558594 16.023438 59.625 16.035156 59.695312 L 16.171875 60.824219 L 17.832031 60.824219 L 17.96875 59.695312 C 17.972656 59.515625 18.066406 59.414062 18.246094 59.394531 L 18.816406 59.394531 C 19 59.414062 19.09375 59.515625 19.097656 59.695312 L 19.234375 60.824219 L 20.894531 60.824219 L 21.03125 59.695312 C 21.035156 59.515625 21.128906 59.414062 21.308594 59.394531 L 21.882812 59.394531 C 22.0625 59.414062 22.15625 59.515625 22.160156 59.695312 L 22.296875 60.824219 L 27.742188 60.824219 L 30.445312 50.285156 C 30.46875 50.199219 30.523438 50.144531 30.609375 50.117188 C 30.695312 50.089844 30.769531 50.105469 30.835938 50.167969 L 32.054688 51.234375 C 32.054688 51.234375 34.742188 53.21875 37.414062 53.957031 C 37.4375 53.960938 37.453125 53.957031 37.464844 53.933594 C 37.472656 53.914062 37.46875 53.898438 37.449219 53.882812 C 36.398438 53.121094 32.726562 50.054688 31.09375 48.464844 C 31 48.371094 30.96875 48.257812 31 48.128906 L 31.160156 47.503906 L 31.234375 46.113281 L 31.167969 44.140625 C 31.164062 44.039062 31.195312 43.953125 31.269531 43.882812 L 31.785156 43.367188 C 31.820312 43.332031 31.832031 43.289062 31.8125 43.238281 C 31.796875 43.191406 31.761719 43.164062 31.707031 43.15625 L 31.488281 43.136719 C 31.320312 43.117188 31.214844 43.027344 31.179688 42.863281 L 29.910156 37.230469 L 30.632812 36.867188 C 31.082031 36.636719 31.324219 36.273438 31.359375 35.769531 L 31.617188 32.078125 C 31.933594 32.710938 32.695312 34.109375 32.949219 34.574219 C 33.007812 34.679688 33.074219 34.773438 33.152344 34.863281 L 34.519531 36.390625 C 34.53125 36.40625 34.546875 36.40625 34.566406 36.394531 C 34.582031 36.382812 34.585938 36.371094 34.574219 36.351562 L 31.703125 30.808594 L 31.835938 28.882812 C 31.839844 28.851562 31.824219 28.835938 31.796875 28.828125 C 31.769531 28.824219 31.75 28.832031 31.738281 28.859375 L 31.382812 29.789062 L 30.753906 35.46875 C 30.707031 35.902344 30.488281 36.21875 30.09375 36.414062 Z M 14.679688 58.578125 L 15.316406 59.210938 L 16.449219 57.476562 C 16.601562 57.242188 16.804688 57.070312 17.058594 56.957031 L 19.160156 56.011719 C 19.515625 55.851562 19.707031 55.582031 19.742188 55.195312 L 19.875 53.722656 L 20.519531 51.675781 C 20.578125 51.480469 20.703125 51.335938 20.890625 51.25 L 21.382812 51.015625 C 21.382812 51.015625 22.375 47.503906 23.589844 46.257812 C 23.222656 46.953125 22.742188 49.40625 22.742188 49.40625 C 23.332031 48.378906 24.691406 47.171875 24.984375 46.367188 C 25.28125 45.5625 25.425781 43.550781 25.609375 43.148438 C 25.347656 43.277344 25.113281 43.449219 24.914062 43.660156 C 24.914062 43.660156 25.46875 41.835938 26.550781 40.984375 C 26.609375 40.9375 26.632812 40.878906 26.617188 40.800781 C 26.601562 40.726562 26.558594 40.679688 26.480469 40.660156 C 25.992188 40.535156 25.027344 40.679688 24.765625 40.074219 C 25.609375 40.109375 26.457031 39.707031 26.824219 38.976562 C 27.101562 38.421875 27.675781 36.699219 27.9375 35.890625 C 27.980469 35.753906 27.976562 35.617188 27.929688 35.484375 C 27.878906 35.351562 27.789062 35.25 27.667969 35.175781 C 26.699219 34.597656 25.085938 34.199219 24.105469 34.074219 C 23.496094 35.347656 22.457031 37.453125 22.175781 39.09375 C 22.125 39.390625 22 39.652344 21.804688 39.882812 C 20.980469 40.839844 20.546875 41.5625 20.316406 42.085938 C 20.058594 42.671875 19.507812 43.695312 19.398438 44.246094 C 19.289062 44.796875 18.441406 48.453125 18.257812 48.894531 C 18.074219 49.332031 17.375 50.394531 17.375 50.394531 L 18.148438 49.882812 C 18.148438 49.882812 17.523438 50.871094 17.339844 51.199219 C 16.710938 51.347656 14.710938 51.398438 13.996094 51.414062 C 13.820312 51.417969 13.675781 51.484375 13.5625 51.609375 C 12.820312 52.421875 11.601562 53.761719 11.601562 53.761719 L 12.183594 53.855469 C 12.382812 53.890625 12.523438 54 12.597656 54.1875 L 12.636719 54.285156 C 12.730469 54.515625 12.902344 54.636719 13.15625 54.636719 C 13.390625 54.636719 13.535156 54.75 13.582031 54.984375 L 13.597656 55.070312 C 13.628906 55.222656 13.699219 55.351562 13.816406 55.453125 C 13.933594 55.554688 14.070312 55.613281 14.226562 55.621094 L 14.324219 55.625 L 14.1875 56.5 C 14.179688 56.550781 14.179688 56.601562 14.191406 56.65625 L 14.550781 58.34375 C 14.570312 58.433594 14.613281 58.515625 14.679688 58.582031 Z M 12.722656 67.535156 C 12.945312 67.535156 13.136719 67.457031 13.296875 67.300781 C 13.453125 67.144531 13.53125 66.953125 13.53125 66.730469 C 13.53125 66.507812 13.453125 66.320312 13.296875 66.164062 C 13.136719 66.003906 12.945312 65.925781 12.722656 65.925781 C 12.5 65.925781 12.308594 66.003906 12.152344 66.164062 C 11.992188 66.320312 11.914062 66.507812 11.914062 66.730469 C 11.914062 66.953125 11.992188 67.144531 12.152344 67.300781 C 12.308594 67.457031 12.5 67.535156 12.722656 67.535156 Z M 16.492188 69.019531 C 16.714844 69.019531 16.90625 68.941406 17.0625 68.785156 C 17.222656 68.625 17.300781 68.4375 17.300781 68.214844 C 17.300781 67.992188 17.222656 67.800781 17.0625 67.644531 C 16.90625 67.488281 16.714844 67.410156 16.492188 67.410156 C 16.269531 67.410156 16.078125 67.488281 15.921875 67.644531 C 15.761719 67.800781 15.683594 67.992188 15.683594 68.214844 C 15.683594 68.4375 15.761719 68.625 15.917969 68.785156 C 16.078125 68.941406 16.269531 69.019531 16.492188 69.019531 Z M 16.492188 66.054688 C 16.714844 66.054688 16.90625 65.976562 17.0625 65.820312 C 17.222656 65.664062 17.300781 65.472656 17.300781 65.25 C 17.300781 65.027344 17.222656 64.835938 17.0625 64.679688 C 16.90625 64.523438 16.714844 64.445312 16.492188 64.445312 C 16.269531 64.445312 16.078125 64.523438 15.921875 64.679688 C 15.761719 64.835938 15.683594 65.027344 15.683594 65.25 C 15.683594 65.472656 15.761719 65.660156 15.917969 65.820312 C 16.078125 65.976562 16.269531 66.054688 16.492188 66.054688 Z M 20.535156 69.019531 C 20.757812 69.019531 20.949219 68.941406 21.109375 68.785156 C 21.265625 68.625 21.34375 68.4375 21.34375 68.214844 C 21.34375 67.992188 21.265625 67.800781 21.109375 67.644531 C 20.949219 67.488281 20.757812 67.410156 20.535156 67.410156 C 20.3125 67.410156 20.121094 67.488281 19.964844 67.644531 C 19.804688 67.800781 19.726562 67.992188 19.726562 68.214844 C 19.726562 68.4375 19.804688 68.625 19.964844 68.785156 C 20.121094 68.941406 20.3125 69.019531 20.535156 69.019531 Z M 20.535156 66.054688 C 20.757812 66.054688 20.949219 65.976562 21.109375 65.820312 C 21.265625 65.660156 21.34375 65.472656 21.34375 65.25 C 21.34375 65.027344 21.265625 64.835938 21.109375 64.679688 C 20.949219 64.523438 20.757812 64.445312 20.535156 64.445312 C 20.3125 64.445312 20.121094 64.523438 19.964844 64.679688 C 19.804688 64.835938 19.726562 65.027344 19.726562 65.25 C 19.726562 65.472656 19.804688 65.660156 19.964844 65.820312 C 20.121094 65.976562 20.3125 66.054688 20.535156 66.054688 Z M 24.578125 69.019531 C 24.804688 69.019531 24.992188 68.941406 25.152344 68.785156 C 25.308594 68.625 25.390625 68.4375 25.390625 68.214844 C 25.390625 67.992188 25.308594 67.800781 25.152344 67.644531 C 24.992188 67.488281 24.804688 67.410156 24.578125 67.410156 C 24.355469 67.410156 24.164062 67.488281 24.007812 67.644531 C 23.851562 67.800781 23.769531 67.992188 23.769531 68.214844 C 23.769531 68.4375 23.851562 68.625 24.007812 68.785156 C 24.164062 68.941406 24.355469 69.019531 24.578125 69.019531 Z M 24.578125 66.054688 C 24.804688 66.054688 24.992188 65.976562 25.152344 65.820312 C 25.308594 65.660156 25.390625 65.472656 25.390625 65.25 C 25.390625 65.027344 25.308594 64.835938 25.152344 64.679688 C 24.992188 64.523438 24.804688 64.445312 24.578125 64.445312 C 24.355469 64.445312 24.164062 64.523438 24.007812 64.679688 C 23.851562 64.835938 23.769531 65.027344 23.769531 65.25 C 23.769531 65.472656 23.851562 65.660156 24.007812 65.820312 C 24.164062 65.976562 24.355469 66.054688 24.578125 66.054688 Z M 28.347656 67.535156 C 28.570312 67.535156 28.761719 67.457031 28.921875 67.300781 C 29.078125 67.144531 29.15625 66.953125 29.15625 66.730469 C 29.15625 66.507812 29.078125 66.320312 28.921875 66.164062 C 28.761719 66.003906 28.570312 65.925781 28.347656 65.925781 C 28.125 65.925781 27.933594 66.003906 27.777344 66.164062 C 27.617188 66.320312 27.539062 66.507812 27.539062 66.730469 C 27.539062 66.953125 27.617188 67.144531 27.777344 67.300781 C 27.933594 67.457031 28.125 67.535156 28.347656 67.535156 Z M 34.855469 68.746094 L 34.855469 66.316406 C 34.855469 66.234375 34.828125 66.164062 34.769531 66.105469 C 34.710938 66.046875 34.640625 66.019531 34.558594 66.019531 L 31.992188 66.019531 C 31.910156 66.019531 31.839844 66.046875 31.78125 66.105469 C 31.722656 66.164062 31.695312 66.234375 31.695312 66.316406 L 31.695312 68.75 C 31.695312 68.832031 31.722656 68.898438 31.78125 68.957031 C 31.839844 69.015625 31.910156 69.042969 31.992188 69.042969 L 34.558594 69.042969 C 34.640625 69.042969 34.710938 69.015625 34.769531 68.957031 C 34.828125 68.898438 34.855469 68.832031 34.855469 68.75 Z M 45.738281 68.746094 L 45.738281 66.316406 C 45.738281 66.234375 45.710938 66.164062 45.652344 66.105469 C 45.59375 66.046875 45.523438 66.019531 45.441406 66.019531 L 37.210938 66.019531 C 37.128906 66.019531 37.058594 66.046875 37 66.105469 C 36.945312 66.164062 36.914062 66.234375 36.914062 66.316406 L 36.914062 68.75 C 36.914062 68.832031 36.945312 68.898438 37 68.957031 C 37.058594 69.015625 37.128906 69.042969 37.210938 69.042969 L 45.441406 69.042969 C 45.523438 69.042969 45.59375 69.015625 45.652344 68.957031 C 45.710938 68.898438 45.738281 68.832031 45.738281 68.75 Z M 49.195312 67.535156 C 49.417969 67.535156 49.609375 67.457031 49.765625 67.300781 C 49.925781 67.144531 50.003906 66.953125 50.003906 66.730469 C 50.003906 66.507812 49.921875 66.320312 49.765625 66.164062 C 49.609375 66.003906 49.417969 65.925781 49.195312 65.925781 C 48.96875 65.925781 48.78125 66.003906 48.621094 66.164062 C 48.464844 66.320312 48.386719 66.507812 48.386719 66.730469 C 48.386719 66.953125 48.464844 67.144531 48.621094 67.300781 C 48.78125 67.457031 48.972656 67.535156 49.195312 67.535156 Z M 52.207031 67.535156 C 52.433594 67.535156 52.621094 67.457031 52.78125 67.300781 C 52.9375 67.144531 53.019531 66.953125 53.019531 66.730469 C 53.019531 66.507812 52.9375 66.320312 52.78125 66.164062 C 52.621094 66.003906 52.433594 65.925781 52.207031 65.925781 C 51.984375 65.925781 51.796875 66.003906 51.636719 66.164062 C 51.480469 66.320312 51.398438 66.507812 51.398438 66.730469 C 51.398438 66.953125 51.480469 67.144531 51.636719 67.300781 C 51.792969 67.457031 51.984375 67.535156 52.207031 67.535156 Z M 57.023438 69.402344 C 57.25 69.402344 57.4375 69.324219 57.597656 69.167969 C 57.753906 69.011719 57.832031 68.820312 57.832031 68.597656 C 57.832031 68.375 57.753906 68.1875 57.597656 68.027344 C 57.4375 67.871094 57.25 67.792969 57.023438 67.792969 C 56.800781 67.792969 56.609375 67.871094 56.453125 68.027344 C 56.296875 68.1875 56.214844 68.375 56.214844 68.597656 C 56.214844 68.820312 56.296875 69.011719 56.453125 69.167969 C 56.609375 69.324219 56.800781 69.402344 57.023438 69.402344 Z M 57.023438 65.378906 C 57.25 65.378906 57.4375 65.300781 57.597656 65.140625 C 57.753906 64.984375 57.835938 64.796875 57.835938 64.574219 C 57.835938 64.351562 57.753906 64.160156 57.597656 64.003906 C 57.4375 63.847656 57.25 63.769531 57.023438 63.769531 C 56.800781 63.769531 56.609375 63.847656 56.453125 64.003906 C 56.296875 64.160156 56.214844 64.351562 56.214844 64.574219 C 56.214844 64.796875 56.296875 64.984375 56.453125 65.140625 C 56.609375 65.300781 56.800781 65.378906 57.023438 65.378906 Z M 60.003906 69.402344 C 60.226562 69.402344 60.417969 69.324219 60.574219 69.167969 C 60.734375 69.011719 60.8125 68.820312 60.8125 68.597656 C 60.8125 68.375 60.734375 68.1875 60.574219 68.027344 C 60.417969 67.871094 60.226562 67.792969 60.003906 67.792969 C 59.78125 67.792969 59.589844 67.871094 59.429688 68.027344 C 59.273438 68.1875 59.195312 68.375 59.195312 68.597656 C 59.195312 68.820312 59.273438 69.011719 59.429688 69.167969 C 59.589844 69.324219 59.78125 69.402344 60.003906 69.402344 Z M 60.003906 65.378906 C 60.226562 65.378906 60.417969 65.300781 60.574219 65.140625 C 60.734375 64.984375 60.8125 64.796875 60.8125 64.574219 C 60.8125 64.351562 60.734375 64.160156 60.574219 64.003906 C 60.417969 63.847656 60.226562 63.769531 60.003906 63.769531 C 59.78125 63.769531 59.589844 63.847656 59.429688 64.003906 C 59.273438 64.160156 59.195312 64.351562 59.195312 64.574219 C 59.195312 64.796875 59.273438 64.984375 59.429688 65.140625 C 59.589844 65.300781 59.78125 65.378906 60.003906 65.378906 Z M 70.488281 68.726562 L 70.488281 63.992188 C 70.488281 63.90625 70.457031 63.832031 70.394531 63.769531 C 70.332031 63.707031 70.257812 63.675781 70.167969 63.675781 L 65.707031 63.675781 C 65.621094 63.675781 65.546875 63.707031 65.484375 63.769531 C 65.421875 63.832031 65.390625 63.90625 65.390625 63.992188 L 65.390625 68.726562 C 65.390625 68.8125 65.421875 68.890625 65.484375 68.949219 C 65.546875 69.011719 65.621094 69.042969 65.707031 69.042969 L 70.167969 69.042969 C 70.257812 69.042969 70.332031 69.011719 70.394531 68.949219 C 70.457031 68.890625 70.488281 68.8125 70.488281 68.726562 Z M 72.773438 63.023438 L 72.773438 62.015625 C 72.773438 61.917969 72.738281 61.832031 72.664062 61.757812 C 72.59375 61.6875 72.507812 61.652344 72.40625 61.652344 L 10.246094 61.652344 C 10.144531 61.652344 10.058594 61.6875 9.988281 61.757812 C 9.917969 61.832031 9.878906 61.917969 9.878906 62.015625 L 9.878906 63.023438 C 9.886719 62.925781 9.925781 62.847656 9.996094 62.785156 C 10.070312 62.722656 10.152344 62.695312 10.246094 62.699219 L 72.40625 62.699219 C 72.5 62.695312 72.582031 62.722656 72.65625 62.785156 C 72.726562 62.847656 72.765625 62.925781 72.773438 63.023438 Z M 15.609375 57.636719 C 15.742188 57.21875 15.949219 56.839844 16.234375 56.503906 C 16.691406 56.121094 17.195312 55.820312 17.753906 55.605469 C 17.84375 55.566406 17.898438 55.5 17.90625 55.402344 C 17.9375 55.082031 17.925781 54.761719 17.878906 54.441406 C 17.867188 54.359375 17.824219 54.300781 17.75 54.269531 C 17.671875 54.234375 17.601562 54.242188 17.535156 54.292969 C 17.015625 54.667969 15.941406 55.433594 15.71875 55.515625 C 15.757812 55.992188 15.460938 56.980469 15.460938 56.980469 C 15.535156 57.195312 15.585938 57.414062 15.609375 57.636719 Z M 64.898438 55.605469 C 65.457031 55.820312 65.960938 56.121094 66.417969 56.503906 C 66.703125 56.839844 66.910156 57.21875 67.042969 57.636719 C 67.066406 57.414062 67.117188 57.195312 67.191406 56.980469 C 67.191406 56.980469 66.898438 55.992188 66.933594 55.515625 C 66.710938 55.433594 65.636719 54.667969 65.117188 54.292969 C 65.050781 54.242188 64.980469 54.234375 64.902344 54.269531 C 64.828125 54.300781 64.785156 54.359375 64.773438 54.441406 C 64.726562 54.761719 64.71875 55.082031 64.746094 55.402344 C 64.757812 55.5 64.808594 55.566406 64.898438 55.605469 Z M 40.683594 16.773438 C 40.753906 16.882812 40.847656 16.96875 40.960938 17.027344 C 41.074219 17.089844 41.195312 17.121094 41.328125 17.121094 C 41.457031 17.121094 41.578125 17.089844 41.691406 17.027344 C 41.804688 16.96875 41.898438 16.882812 41.96875 16.773438 C 42.148438 16.472656 42.304688 16.160156 42.4375 15.832031 C 42.449219 15.8125 42.441406 15.792969 42.421875 15.777344 C 42.402344 15.761719 42.382812 15.761719 42.363281 15.773438 C 42.046875 15.972656 41.703125 16.074219 41.328125 16.074219 C 40.953125 16.074219 40.605469 15.972656 40.289062 15.773438 C 40.269531 15.761719 40.25 15.761719 40.230469 15.777344 C 40.210938 15.792969 40.207031 15.8125 40.214844 15.832031 C 40.347656 16.160156 40.503906 16.472656 40.683594 16.773438 Z M 42.664062 19.113281 L 42.316406 19.316406 C 42.054688 19.464844 41.8125 19.367188 41.328125 19.367188 C 40.839844 19.367188 40.597656 19.464844 40.339844 19.316406 C 40.1875 19.226562 40.066406 19.160156 39.988281 19.113281 C 39.980469 19.109375 39.96875 19.109375 39.960938 19.117188 C 39.953125 19.128906 39.953125 19.136719 39.960938 19.148438 C 40.199219 19.488281 40.507812 19.933594 40.703125 19.964844 C 41.117188 20.007812 41.535156 20.007812 41.949219 19.964844 C 42.144531 19.933594 42.457031 19.488281 42.691406 19.148438 C 42.699219 19.136719 42.699219 19.128906 42.691406 19.121094 C 42.683594 19.109375 42.675781 19.109375 42.664062 19.117188 Z M 42.664062 19.113281 " fill-opacity="1" fill-rule="evenodd"/></g></svg>