<svg xmlns="http://www.w3.org/2000/svg" xmlns:xlink="http://www.w3.org/1999/xlink" width="500" zoomAndPan="magnify" viewBox="0 0 375 374.999991" height="500" preserveAspectRatio="xMidYMid meet" version="1.0"><defs><clipPath id="469af2908f"><path d="M 0 0 L 136.5 0 L 136.5 136.5 L 0 136.5 Z M 0 0 " clip-rule="nonzero"/></clipPath></defs><g clip-path="url(#469af2908f)"><path fill="#f0d883" d="M 68.191406 -0.0390625 C 30.507812 -0.0390625 -0.0390625 30.507812 -0.0390625 68.191406 C -0.0390625 105.875 30.507812 136.421875 68.191406 136.421875 C 105.875 136.421875 136.421875 105.875 136.421875 68.191406 C 136.421875 30.507812 105.875 -0.0390625 68.191406 -0.0390625 Z M 68.191406 26.863281 C 79.574219 26.863281 88.808594 36.09375 88.808594 47.480469 C 88.808594 58.867188 79.578125 68.101562 68.191406 68.101562 C 56.800781 68.101562 47.570312 58.871094 47.570312 47.480469 C 47.570312 36.09375 56.800781 26.863281 68.191406 26.863281 Z M 68.386719 105.035156 L 38.105469 105.035156 C 38.105469 84.714844 49.160156 77.484375 56.414062 70.992188 C 59.925781 72.878906 63.933594 73.960938 68.191406 73.992188 C 72.445312 73.960938 76.453125 72.878906 79.964844 70.992188 C 87.21875 77.484375 98.273438 84.71875 98.273438 105.035156 Z M 68.386719 105.035156 " fill-opacity="1" fill-rule="nonzero"/></g></svg>