<svg xmlns="http://www.w3.org/2000/svg" xmlns:xlink="http://www.w3.org/1999/xlink" width="500" zoomAndPan="magnify" viewBox="0 0 375 374.999991" height="500" preserveAspectRatio="xMidYMid meet" version="1.0"><defs><filter x="0%" y="0%" width="100%" height="100%" id="bb08077d37"><feColorMatrix values="0 0 0 0 1 0 0 0 0 1 0 0 0 0 1 0 0 0 1 0" color-interpolation-filters="sRGB"/></filter><clipPath id="0fbe8f5d91"><path d="M 0 0 L 161.964844 0 L 161.964844 161.964844 L 0 161.964844 Z M 0 0 " clip-rule="nonzero"/></clipPath><clipPath id="79e74f2c60"><path d="M 80.980469 0 C 36.257812 0 0 36.257812 0 80.980469 C 0 125.707031 36.257812 161.964844 80.980469 161.964844 C 125.707031 161.964844 161.964844 125.707031 161.964844 80.980469 C 161.964844 36.257812 125.707031 0 80.980469 0 " clip-rule="nonzero"/></clipPath><mask id="aadb57933f"><g filter="url(#bb08077d37)"><rect x="-37.5" width="450" fill="#000000" y="-37.499999" height="449.999989" fill-opacity="0.1882"/></g></mask><clipPath id="11cdff0fa2"><path d="M 23 0.691406 L 76 0.691406 L 76 64 L 23 64 Z M 23 0.691406 " clip-rule="nonzero"/></clipPath><clipPath id="afc63de495"><path d="M 0.523438 110 L 1 110 L 1 112 L 0.523438 112 Z M 0.523438 110 " clip-rule="nonzero"/></clipPath><clipPath id="c827f39faa"><path d="M 98 110 L 98.019531 110 L 98.019531 112 L 98 112 Z M 98 110 " clip-rule="nonzero"/></clipPath><clipPath id="4dbdb548bc"><path d="M 0.523438 65 L 98.019531 65 L 98.019531 128.679688 L 0.523438 128.679688 Z M 0.523438 65 " clip-rule="nonzero"/></clipPath><clipPath id="aef64f6468"><rect x="0" width="99" y="0" height="129"/></clipPath></defs><g clip-path="url(#0fbe8f5d91)"><g clip-path="url(#79e74f2c60)"><path fill="#cfe3ff" d="M 0 0 L 161.964844 0 L 161.964844 161.964844 L 0 161.964844 Z M 0 0 " fill-opacity="1" fill-rule="nonzero"/></g></g><g mask="url(#aadb57933f)"><g transform="matrix(1, 0, 0, 1, 33, 17)"><g clip-path="url(#aef64f6468)"><g clip-path="url(#11cdff0fa2)"><path fill="#3d82e9" d="M 49.269531 63.292969 C 63.523438 63.292969 75.078125 49.292969 75.078125 32.019531 C 75.078125 14.746094 71.285156 0.742188 49.269531 0.742188 C 27.257812 0.742188 23.460938 14.746094 23.460938 32.019531 C 23.460938 49.292969 35.019531 63.292969 49.269531 63.292969 Z M 49.269531 63.292969 " fill-opacity="1" fill-rule="nonzero"/></g><g clip-path="url(#afc63de495)"><path fill="#3d82e9" d="M 0.523438 111.050781 C 0.519531 109.996094 0.515625 110.753906 0.523438 111.050781 Z M 0.523438 111.050781 " fill-opacity="1" fill-rule="nonzero"/></g><g clip-path="url(#c827f39faa)"><path fill="#3d82e9" d="M 98.015625 111.871094 C 98.027344 111.582031 98.019531 109.871094 98.015625 111.871094 Z M 98.015625 111.871094 " fill-opacity="1" fill-rule="nonzero"/></g><g clip-path="url(#4dbdb548bc)"><path fill="#3d82e9" d="M 97.960938 109.789062 C 97.484375 79.699219 93.546875 71.125 63.40625 65.695312 C 63.40625 65.695312 59.160156 71.089844 49.273438 71.089844 C 39.382812 71.089844 35.140625 65.695312 35.140625 65.695312 C 5.328125 71.0625 1.148438 79.511719 0.601562 108.808594 C 0.554688 111.203125 0.535156 111.328125 0.527344 111.050781 C 0.527344 111.570312 0.53125 112.53125 0.53125 114.210938 C 0.53125 114.210938 7.707031 128.644531 49.273438 128.644531 C 90.839844 128.644531 98.015625 114.210938 98.015625 114.210938 C 98.015625 113.132812 98.015625 112.382812 98.015625 111.871094 C 98.007812 112.042969 97.992188 111.710938 97.960938 109.785156 Z M 97.960938 109.789062 " fill-opacity="1" fill-rule="nonzero"/></g></g></g></g></svg>