<svg xmlns="http://www.w3.org/2000/svg" xmlns:xlink="http://www.w3.org/1999/xlink" width="500" zoomAndPan="magnify" viewBox="0 0 375 374.999991" height="500" preserveAspectRatio="xMidYMid meet" version="1.0"><defs><clipPath id="9a4f519dc5"><path d="M 0 0 L 82.5 0 L 82.5 82.5 L 0 82.5 Z M 0 0 " clip-rule="nonzero"/></clipPath><clipPath id="275eb9e401"><path d="M 82.53125 41.273438 C 82.53125 42.625 82.464844 43.972656 82.332031 45.316406 C 82.199219 46.664062 82.003906 47.996094 81.738281 49.324219 C 81.476562 50.648438 81.148438 51.957031 80.753906 53.25 C 80.363281 54.542969 79.910156 55.8125 79.390625 57.0625 C 78.875 58.3125 78.296875 59.53125 77.660156 60.722656 C 77.023438 61.914062 76.328125 63.070312 75.578125 64.195312 C 74.828125 65.320312 74.023438 66.402344 73.167969 67.449219 C 72.308594 68.492188 71.402344 69.492188 70.449219 70.449219 C 69.492188 71.402344 68.492188 72.308594 67.449219 73.167969 C 66.402344 74.023438 65.320312 74.828125 64.195312 75.578125 C 63.070312 76.328125 61.914062 77.023438 60.722656 77.660156 C 59.53125 78.296875 58.3125 78.875 57.0625 79.390625 C 55.8125 79.910156 54.542969 80.363281 53.25 80.753906 C 51.957031 81.148438 50.648438 81.476562 49.324219 81.738281 C 47.996094 82.003906 46.664062 82.199219 45.316406 82.332031 C 43.972656 82.464844 42.625 82.53125 41.273438 82.53125 C 39.921875 82.53125 38.574219 82.464844 37.230469 82.332031 C 35.886719 82.199219 34.550781 82.003906 33.226562 81.738281 C 31.898438 81.476562 30.589844 81.148438 29.296875 80.753906 C 28.003906 80.363281 26.734375 79.910156 25.484375 79.390625 C 24.238281 78.875 23.015625 78.296875 21.824219 77.660156 C 20.632812 77.023438 19.476562 76.328125 18.351562 75.578125 C 17.226562 74.828125 16.144531 74.023438 15.101562 73.167969 C 14.054688 72.308594 13.054688 71.402344 12.101562 70.449219 C 11.144531 69.492188 10.238281 68.492188 9.378906 67.449219 C 8.523438 66.402344 7.71875 65.320312 6.96875 64.195312 C 6.21875 63.070312 5.523438 61.914062 4.886719 60.722656 C 4.25 59.53125 3.671875 58.3125 3.15625 57.0625 C 2.640625 55.8125 2.183594 54.542969 1.792969 53.25 C 1.398438 51.957031 1.070312 50.648438 0.808594 49.324219 C 0.542969 47.996094 0.347656 46.664062 0.214844 45.316406 C 0.0820312 43.972656 0.015625 42.625 0.015625 41.273438 C 0.015625 39.921875 0.0820312 38.574219 0.214844 37.230469 C 0.347656 35.886719 0.542969 34.550781 0.808594 33.226562 C 1.070312 31.898438 1.398438 30.589844 1.792969 29.296875 C 2.183594 28.003906 2.640625 26.734375 3.15625 25.484375 C 3.671875 24.238281 4.25 23.015625 4.886719 21.824219 C 5.523438 20.632812 6.21875 19.476562 6.96875 18.351562 C 7.71875 17.226562 8.523438 16.144531 9.378906 15.101562 C 10.238281 14.054688 11.144531 13.054688 12.101562 12.101562 C 13.054688 11.144531 14.054688 10.238281 15.101562 9.378906 C 16.144531 8.523438 17.226562 7.71875 18.351562 6.96875 C 19.476562 6.21875 20.632812 5.523438 21.824219 4.886719 C 23.015625 4.25 24.238281 3.671875 25.484375 3.15625 C 26.734375 2.640625 28.003906 2.183594 29.296875 1.792969 C 30.589844 1.398438 31.898438 1.070312 33.226562 0.808594 C 34.550781 0.542969 35.886719 0.347656 37.230469 0.214844 C 38.574219 0.0820312 39.921875 0.015625 41.273438 0.015625 C 42.625 0.015625 43.972656 0.0820312 45.316406 0.214844 C 46.664062 0.347656 47.996094 0.542969 49.324219 0.808594 C 50.648438 1.070312 51.957031 1.398438 53.25 1.792969 C 54.542969 2.183594 55.8125 2.640625 57.0625 3.15625 C 58.3125 3.671875 59.53125 4.25 60.722656 4.886719 C 61.914062 5.523438 63.070312 6.21875 64.195312 6.96875 C 65.320312 7.71875 66.402344 8.523438 67.449219 9.378906 C 68.492188 10.238281 69.492188 11.144531 70.449219 12.101562 C 71.402344 13.054688 72.308594 14.054688 73.167969 15.101562 C 74.023438 16.144531 74.828125 17.226562 75.578125 18.351562 C 76.328125 19.476562 77.023438 20.632812 77.660156 21.824219 C 78.296875 23.015625 78.875 24.238281 79.390625 25.484375 C 79.910156 26.734375 80.363281 28.003906 80.753906 29.296875 C 81.148438 30.589844 81.476562 31.898438 81.738281 33.226562 C 82.003906 34.550781 82.199219 35.886719 82.332031 37.230469 C 82.464844 38.574219 82.53125 39.921875 82.53125 41.273438 Z M 82.53125 41.273438 " clip-rule="nonzero"/></clipPath><linearGradient x1="2.064988" gradientTransform="matrix(0.487301, 0, 0, 0.487301, -0.974597, -0.97461)" y1="171.333009" x2="171.332991" gradientUnits="userSpaceOnUse" y2="2.065006" id="8bdea03233"><stop stop-opacity="1" stop-color="rgb(54.098511%, 13.699341%, 52.89917%)" offset="0"/><stop stop-opacity="1" stop-color="rgb(54.098511%, 13.699341%, 52.89917%)" offset="0.125"/><stop stop-opacity="1" stop-color="rgb(54.141235%, 13.711548%, 52.877808%)" offset="0.140625"/><stop stop-opacity="1" stop-color="rgb(54.612732%, 13.856506%, 52.639771%)" offset="0.144531"/><stop stop-opacity="1" stop-color="rgb(55.041504%, 13.987732%, 52.424622%)" offset="0.148437"/><stop stop-opacity="1" stop-color="rgb(55.470276%, 14.118958%, 52.207947%)" offset="0.152344"/><stop stop-opacity="1" stop-color="rgb(55.900574%, 14.250183%, 51.991272%)" offset="0.15625"/><stop stop-opacity="1" stop-color="rgb(56.329346%, 14.381409%, 51.774597%)" offset="0.160156"/><stop stop-opacity="1" stop-color="rgb(56.759644%, 14.512634%, 51.557922%)" offset="0.164062"/><stop stop-opacity="1" stop-color="rgb(57.188416%, 14.64386%, 51.341248%)" offset="0.167969"/><stop stop-opacity="1" stop-color="rgb(57.618713%, 14.775085%, 51.124573%)" offset="0.171875"/><stop stop-opacity="1" stop-color="rgb(58.047485%, 14.906311%, 50.907898%)" offset="0.175781"/><stop stop-opacity="1" stop-color="rgb(58.477783%, 15.037537%, 50.692749%)" offset="0.179687"/><stop stop-opacity="1" stop-color="rgb(58.906555%, 15.168762%, 50.476074%)" offset="0.183594"/><stop stop-opacity="1" stop-color="rgb(59.336853%, 15.299988%, 50.259399%)" offset="0.1875"/><stop stop-opacity="1" stop-color="rgb(59.765625%, 15.431213%, 50.042725%)" offset="0.191406"/><stop stop-opacity="1" stop-color="rgb(60.195923%, 15.562439%, 49.82605%)" offset="0.195312"/><stop stop-opacity="1" stop-color="rgb(60.624695%, 15.693665%, 49.609375%)" offset="0.199219"/><stop stop-opacity="1" stop-color="rgb(61.054993%, 15.82489%, 49.3927%)" offset="0.203125"/><stop stop-opacity="1" stop-color="rgb(61.483765%, 15.956116%, 49.176025%)" offset="0.207031"/><stop stop-opacity="1" stop-color="rgb(61.914062%, 16.087341%, 48.960876%)" offset="0.210937"/><stop stop-opacity="1" stop-color="rgb(62.342834%, 16.218567%, 48.744202%)" offset="0.214844"/><stop stop-opacity="1" stop-color="rgb(62.773132%, 16.349792%, 48.527527%)" offset="0.21875"/><stop stop-opacity="1" stop-color="rgb(63.201904%, 16.481018%, 48.310852%)" offset="0.222656"/><stop stop-opacity="1" stop-color="rgb(63.632202%, 16.612244%, 48.094177%)" offset="0.226562"/><stop stop-opacity="1" stop-color="rgb(64.060974%, 16.743469%, 47.877502%)" offset="0.230469"/><stop stop-opacity="1" stop-color="rgb(64.491272%, 16.874695%, 47.662354%)" offset="0.234375"/><stop stop-opacity="1" stop-color="rgb(64.920044%, 17.00592%, 47.445679%)" offset="0.238281"/><stop stop-opacity="1" stop-color="rgb(65.350342%, 17.137146%, 47.229004%)" offset="0.242188"/><stop stop-opacity="1" stop-color="rgb(65.779114%, 17.268372%, 47.012329%)" offset="0.246094"/><stop stop-opacity="1" stop-color="rgb(66.209412%, 17.399597%, 46.795654%)" offset="0.25"/><stop stop-opacity="1" stop-color="rgb(66.638184%, 17.530823%, 46.578979%)" offset="0.253906"/><stop stop-opacity="1" stop-color="rgb(67.068481%, 17.662048%, 46.362305%)" offset="0.257812"/><stop stop-opacity="1" stop-color="rgb(67.497253%, 17.793274%, 46.14563%)" offset="0.261719"/><stop stop-opacity="1" stop-color="rgb(67.926025%, 17.926025%, 45.930481%)" offset="0.265625"/><stop stop-opacity="1" stop-color="rgb(68.354797%, 18.057251%, 45.713806%)" offset="0.269531"/><stop stop-opacity="1" stop-color="rgb(68.785095%, 18.188477%, 45.497131%)" offset="0.273438"/><stop stop-opacity="1" stop-color="rgb(69.213867%, 18.319702%, 45.280457%)" offset="0.277344"/><stop stop-opacity="1" stop-color="rgb(69.644165%, 18.450928%, 45.063782%)" offset="0.28125"/><stop stop-opacity="1" stop-color="rgb(70.072937%, 18.582153%, 44.847107%)" offset="0.285156"/><stop stop-opacity="1" stop-color="rgb(70.503235%, 18.713379%, 44.630432%)" offset="0.289062"/><stop stop-opacity="1" stop-color="rgb(70.932007%, 18.844604%, 44.413757%)" offset="0.292969"/><stop stop-opacity="1" stop-color="rgb(71.362305%, 18.97583%, 44.198608%)" offset="0.296875"/><stop stop-opacity="1" stop-color="rgb(71.791077%, 19.107056%, 43.981934%)" offset="0.300781"/><stop stop-opacity="1" stop-color="rgb(72.221375%, 19.238281%, 43.765259%)" offset="0.304688"/><stop stop-opacity="1" stop-color="rgb(72.650146%, 19.369507%, 43.548584%)" offset="0.308594"/><stop stop-opacity="1" stop-color="rgb(73.080444%, 19.500732%, 43.331909%)" offset="0.3125"/><stop stop-opacity="1" stop-color="rgb(73.509216%, 19.631958%, 43.115234%)" offset="0.316406"/><stop stop-opacity="1" stop-color="rgb(73.939514%, 19.763184%, 42.89856%)" offset="0.320312"/><stop stop-opacity="1" stop-color="rgb(74.368286%, 19.894409%, 42.681885%)" offset="0.324219"/><stop stop-opacity="1" stop-color="rgb(74.798584%, 20.025635%, 42.466736%)" offset="0.328125"/><stop stop-opacity="1" stop-color="rgb(75.227356%, 20.15686%, 42.250061%)" offset="0.332031"/><stop stop-opacity="1" stop-color="rgb(75.657654%, 20.288086%, 42.033386%)" offset="0.335938"/><stop stop-opacity="1" stop-color="rgb(76.086426%, 20.419312%, 41.816711%)" offset="0.339844"/><stop stop-opacity="1" stop-color="rgb(76.516724%, 20.550537%, 41.600037%)" offset="0.34375"/><stop stop-opacity="1" stop-color="rgb(76.945496%, 20.681763%, 41.383362%)" offset="0.347656"/><stop stop-opacity="1" stop-color="rgb(77.375793%, 20.812988%, 41.168213%)" offset="0.351562"/><stop stop-opacity="1" stop-color="rgb(77.804565%, 20.944214%, 40.951538%)" offset="0.355469"/><stop stop-opacity="1" stop-color="rgb(78.234863%, 21.075439%, 40.734863%)" offset="0.359375"/><stop stop-opacity="1" stop-color="rgb(78.663635%, 21.206665%, 40.518188%)" offset="0.363281"/><stop stop-opacity="1" stop-color="rgb(79.093933%, 21.337891%, 40.301514%)" offset="0.367187"/><stop stop-opacity="1" stop-color="rgb(79.522705%, 21.469116%, 40.084839%)" offset="0.371094"/><stop stop-opacity="1" stop-color="rgb(79.953003%, 21.600342%, 39.868164%)" offset="0.375"/><stop stop-opacity="1" stop-color="rgb(80.381775%, 21.731567%, 39.651489%)" offset="0.378906"/><stop stop-opacity="1" stop-color="rgb(80.810547%, 21.862793%, 39.43634%)" offset="0.382812"/><stop stop-opacity="1" stop-color="rgb(81.239319%, 21.994019%, 39.219666%)" offset="0.386719"/><stop stop-opacity="1" stop-color="rgb(81.669617%, 22.125244%, 39.002991%)" offset="0.390625"/><stop stop-opacity="1" stop-color="rgb(82.098389%, 22.25647%, 38.786316%)" offset="0.394531"/><stop stop-opacity="1" stop-color="rgb(82.528687%, 22.387695%, 38.569641%)" offset="0.398438"/><stop stop-opacity="1" stop-color="rgb(82.957458%, 22.518921%, 38.352966%)" offset="0.402344"/><stop stop-opacity="1" stop-color="rgb(83.387756%, 22.650146%, 38.136292%)" offset="0.40625"/><stop stop-opacity="1" stop-color="rgb(83.816528%, 22.781372%, 37.919617%)" offset="0.410156"/><stop stop-opacity="1" stop-color="rgb(84.246826%, 22.912598%, 37.704468%)" offset="0.414062"/><stop stop-opacity="1" stop-color="rgb(84.675598%, 23.043823%, 37.487793%)" offset="0.417969"/><stop stop-opacity="1" stop-color="rgb(85.105896%, 23.176575%, 37.271118%)" offset="0.421875"/><stop stop-opacity="1" stop-color="rgb(85.534668%, 23.3078%, 37.054443%)" offset="0.425781"/><stop stop-opacity="1" stop-color="rgb(85.964966%, 23.439026%, 36.837769%)" offset="0.429687"/><stop stop-opacity="1" stop-color="rgb(86.393738%, 23.570251%, 36.621094%)" offset="0.433594"/><stop stop-opacity="1" stop-color="rgb(86.824036%, 23.701477%, 36.405945%)" offset="0.4375"/><stop stop-opacity="1" stop-color="rgb(87.252808%, 23.832703%, 36.18927%)" offset="0.441406"/><stop stop-opacity="1" stop-color="rgb(87.683105%, 23.963928%, 35.972595%)" offset="0.445312"/><stop stop-opacity="1" stop-color="rgb(88.111877%, 24.095154%, 35.75592%)" offset="0.449219"/><stop stop-opacity="1" stop-color="rgb(88.542175%, 24.226379%, 35.539246%)" offset="0.453125"/><stop stop-opacity="1" stop-color="rgb(88.970947%, 24.357605%, 35.322571%)" offset="0.457031"/><stop stop-opacity="1" stop-color="rgb(89.401245%, 24.488831%, 35.105896%)" offset="0.460937"/><stop stop-opacity="1" stop-color="rgb(89.830017%, 24.620056%, 34.889221%)" offset="0.464844"/><stop stop-opacity="1" stop-color="rgb(90.260315%, 24.751282%, 34.674072%)" offset="0.46875"/><stop stop-opacity="1" stop-color="rgb(90.689087%, 24.882507%, 34.457397%)" offset="0.472656"/><stop stop-opacity="1" stop-color="rgb(91.119385%, 25.013733%, 34.240723%)" offset="0.476562"/><stop stop-opacity="1" stop-color="rgb(91.282654%, 25.189209%, 34.022522%)" offset="0.480469"/><stop stop-opacity="1" stop-color="rgb(91.447449%, 25.364685%, 33.805847%)" offset="0.484375"/><stop stop-opacity="1" stop-color="rgb(91.482544%, 25.561523%, 33.587646%)" offset="0.488281"/><stop stop-opacity="1" stop-color="rgb(91.519165%, 25.758362%, 33.370972%)" offset="0.492188"/><stop stop-opacity="1" stop-color="rgb(91.55426%, 25.9552%, 33.154297%)" offset="0.496094"/><stop stop-opacity="1" stop-color="rgb(91.590881%, 26.152039%, 32.937622%)" offset="0.5"/><stop stop-opacity="1" stop-color="rgb(91.625977%, 26.348877%, 32.719421%)" offset="0.503906"/><stop stop-opacity="1" stop-color="rgb(91.662598%, 26.545715%, 32.502747%)" offset="0.507812"/><stop stop-opacity="1" stop-color="rgb(91.697693%, 26.742554%, 32.284546%)" offset="0.511719"/><stop stop-opacity="1" stop-color="rgb(91.734314%, 26.939392%, 32.067871%)" offset="0.515625"/><stop stop-opacity="1" stop-color="rgb(91.769409%, 27.13623%, 31.84967%)" offset="0.519531"/><stop stop-opacity="1" stop-color="rgb(91.80603%, 27.333069%, 31.632996%)" offset="0.523437"/><stop stop-opacity="1" stop-color="rgb(91.841125%, 27.529907%, 31.414795%)" offset="0.527344"/><stop stop-opacity="1" stop-color="rgb(91.877747%, 27.726746%, 31.19812%)" offset="0.53125"/><stop stop-opacity="1" stop-color="rgb(91.912842%, 27.923584%, 30.979919%)" offset="0.535156"/><stop stop-opacity="1" stop-color="rgb(91.949463%, 28.120422%, 30.763245%)" offset="0.539062"/><stop stop-opacity="1" stop-color="rgb(91.984558%, 28.317261%, 30.545044%)" offset="0.542969"/><stop stop-opacity="1" stop-color="rgb(92.021179%, 28.514099%, 30.328369%)" offset="0.546875"/><stop stop-opacity="1" stop-color="rgb(92.056274%, 28.710938%, 30.111694%)" offset="0.550781"/><stop stop-opacity="1" stop-color="rgb(92.092896%, 28.907776%, 29.89502%)" offset="0.554688"/><stop stop-opacity="1" stop-color="rgb(92.127991%, 29.104614%, 29.676819%)" offset="0.558594"/><stop stop-opacity="1" stop-color="rgb(92.164612%, 29.301453%, 29.460144%)" offset="0.5625"/><stop stop-opacity="1" stop-color="rgb(92.199707%, 29.498291%, 29.241943%)" offset="0.566406"/><stop stop-opacity="1" stop-color="rgb(92.236328%, 29.695129%, 29.025269%)" offset="0.570312"/><stop stop-opacity="1" stop-color="rgb(92.271423%, 29.891968%, 28.807068%)" offset="0.574219"/><stop stop-opacity="1" stop-color="rgb(92.308044%, 30.088806%, 28.590393%)" offset="0.578125"/><stop stop-opacity="1" stop-color="rgb(92.34314%, 30.285645%, 28.372192%)" offset="0.582031"/><stop stop-opacity="1" stop-color="rgb(92.379761%, 30.482483%, 28.155518%)" offset="0.585938"/><stop stop-opacity="1" stop-color="rgb(92.416382%, 30.679321%, 27.937317%)" offset="0.589844"/><stop stop-opacity="1" stop-color="rgb(92.453003%, 30.87616%, 27.720642%)" offset="0.59375"/><stop stop-opacity="1" stop-color="rgb(92.488098%, 31.072998%, 27.502441%)" offset="0.597656"/><stop stop-opacity="1" stop-color="rgb(92.524719%, 31.269836%, 27.285767%)" offset="0.601562"/><stop stop-opacity="1" stop-color="rgb(92.559814%, 31.466675%, 27.067566%)" offset="0.605469"/><stop stop-opacity="1" stop-color="rgb(92.596436%, 31.663513%, 26.850891%)" offset="0.609375"/><stop stop-opacity="1" stop-color="rgb(92.631531%, 31.860352%, 26.634216%)" offset="0.613281"/><stop stop-opacity="1" stop-color="rgb(92.668152%, 32.05719%, 26.417542%)" offset="0.617188"/><stop stop-opacity="1" stop-color="rgb(92.703247%, 32.254028%, 26.199341%)" offset="0.621094"/><stop stop-opacity="1" stop-color="rgb(92.739868%, 32.450867%, 25.982666%)" offset="0.625"/><stop stop-opacity="1" stop-color="rgb(92.774963%, 32.647705%, 25.764465%)" offset="0.628906"/><stop stop-opacity="1" stop-color="rgb(92.811584%, 32.844543%, 25.547791%)" offset="0.632812"/><stop stop-opacity="1" stop-color="rgb(92.84668%, 33.041382%, 25.32959%)" offset="0.636719"/><stop stop-opacity="1" stop-color="rgb(92.883301%, 33.23822%, 25.112915%)" offset="0.640625"/><stop stop-opacity="1" stop-color="rgb(92.918396%, 33.435059%, 24.894714%)" offset="0.644531"/><stop stop-opacity="1" stop-color="rgb(92.955017%, 33.631897%, 24.67804%)" offset="0.648437"/><stop stop-opacity="1" stop-color="rgb(92.990112%, 33.828735%, 24.459839%)" offset="0.652344"/><stop stop-opacity="1" stop-color="rgb(93.026733%, 34.025574%, 24.243164%)" offset="0.65625"/><stop stop-opacity="1" stop-color="rgb(93.061829%, 34.222412%, 24.024963%)" offset="0.660156"/><stop stop-opacity="1" stop-color="rgb(93.09845%, 34.41925%, 23.808289%)" offset="0.664062"/><stop stop-opacity="1" stop-color="rgb(93.133545%, 34.616089%, 23.590088%)" offset="0.667969"/><stop stop-opacity="1" stop-color="rgb(93.170166%, 34.812927%, 23.373413%)" offset="0.671875"/><stop stop-opacity="1" stop-color="rgb(93.205261%, 35.009766%, 23.156738%)" offset="0.675781"/><stop stop-opacity="1" stop-color="rgb(93.241882%, 35.206604%, 22.940063%)" offset="0.679687"/><stop stop-opacity="1" stop-color="rgb(93.276978%, 35.403442%, 22.721863%)" offset="0.683594"/><stop stop-opacity="1" stop-color="rgb(93.313599%, 35.600281%, 22.505188%)" offset="0.6875"/><stop stop-opacity="1" stop-color="rgb(93.348694%, 35.797119%, 22.286987%)" offset="0.691406"/><stop stop-opacity="1" stop-color="rgb(93.385315%, 35.993958%, 22.070312%)" offset="0.695312"/><stop stop-opacity="1" stop-color="rgb(93.42041%, 36.190796%, 21.852112%)" offset="0.699219"/><stop stop-opacity="1" stop-color="rgb(93.457031%, 36.387634%, 21.635437%)" offset="0.703125"/><stop stop-opacity="1" stop-color="rgb(93.492126%, 36.584473%, 21.417236%)" offset="0.707031"/><stop stop-opacity="1" stop-color="rgb(93.528748%, 36.781311%, 21.200562%)" offset="0.710938"/><stop stop-opacity="1" stop-color="rgb(93.563843%, 36.978149%, 20.982361%)" offset="0.714844"/><stop stop-opacity="1" stop-color="rgb(93.600464%, 37.174988%, 20.765686%)" offset="0.71875"/><stop stop-opacity="1" stop-color="rgb(93.635559%, 37.371826%, 20.547485%)" offset="0.722656"/><stop stop-opacity="1" stop-color="rgb(93.67218%, 37.568665%, 20.330811%)" offset="0.726562"/><stop stop-opacity="1" stop-color="rgb(93.707275%, 37.765503%, 20.11261%)" offset="0.730469"/><stop stop-opacity="1" stop-color="rgb(93.743896%, 37.962341%, 19.895935%)" offset="0.734375"/><stop stop-opacity="1" stop-color="rgb(93.778992%, 38.15918%, 19.67926%)" offset="0.738281"/><stop stop-opacity="1" stop-color="rgb(93.815613%, 38.356018%, 19.462585%)" offset="0.742188"/><stop stop-opacity="1" stop-color="rgb(93.850708%, 38.552856%, 19.244385%)" offset="0.746094"/><stop stop-opacity="1" stop-color="rgb(93.887329%, 38.749695%, 19.02771%)" offset="0.75"/><stop stop-opacity="1" stop-color="rgb(93.922424%, 38.946533%, 18.809509%)" offset="0.753906"/><stop stop-opacity="1" stop-color="rgb(93.959045%, 39.143372%, 18.592834%)" offset="0.757812"/><stop stop-opacity="1" stop-color="rgb(93.994141%, 39.34021%, 18.374634%)" offset="0.761719"/><stop stop-opacity="1" stop-color="rgb(94.030762%, 39.537048%, 18.157959%)" offset="0.765625"/><stop stop-opacity="1" stop-color="rgb(94.065857%, 39.733887%, 17.939758%)" offset="0.769531"/><stop stop-opacity="1" stop-color="rgb(94.102478%, 39.930725%, 17.723083%)" offset="0.773437"/><stop stop-opacity="1" stop-color="rgb(94.137573%, 40.127563%, 17.504883%)" offset="0.777344"/><stop stop-opacity="1" stop-color="rgb(94.174194%, 40.324402%, 17.288208%)" offset="0.78125"/><stop stop-opacity="1" stop-color="rgb(94.20929%, 40.52124%, 17.070007%)" offset="0.785156"/><stop stop-opacity="1" stop-color="rgb(94.245911%, 40.718079%, 16.853333%)" offset="0.789062"/><stop stop-opacity="1" stop-color="rgb(94.281006%, 40.914917%, 16.635132%)" offset="0.792969"/><stop stop-opacity="1" stop-color="rgb(94.317627%, 41.111755%, 16.418457%)" offset="0.796875"/><stop stop-opacity="1" stop-color="rgb(94.352722%, 41.308594%, 16.201782%)" offset="0.800781"/><stop stop-opacity="1" stop-color="rgb(94.389343%, 41.505432%, 15.985107%)" offset="0.804687"/><stop stop-opacity="1" stop-color="rgb(94.424438%, 41.702271%, 15.766907%)" offset="0.808594"/><stop stop-opacity="1" stop-color="rgb(94.46106%, 41.899109%, 15.550232%)" offset="0.8125"/><stop stop-opacity="1" stop-color="rgb(94.496155%, 42.095947%, 15.332031%)" offset="0.816406"/><stop stop-opacity="1" stop-color="rgb(94.532776%, 42.292786%, 15.115356%)" offset="0.820312"/><stop stop-opacity="1" stop-color="rgb(94.567871%, 42.489624%, 14.897156%)" offset="0.824219"/><stop stop-opacity="1" stop-color="rgb(94.604492%, 42.686462%, 14.680481%)" offset="0.828125"/><stop stop-opacity="1" stop-color="rgb(94.639587%, 42.883301%, 14.46228%)" offset="0.832031"/><stop stop-opacity="1" stop-color="rgb(94.676208%, 43.080139%, 14.245605%)" offset="0.835937"/><stop stop-opacity="1" stop-color="rgb(94.71283%, 43.276978%, 14.027405%)" offset="0.839844"/><stop stop-opacity="1" stop-color="rgb(94.749451%, 43.473816%, 13.81073%)" offset="0.84375"/><stop stop-opacity="1" stop-color="rgb(94.784546%, 43.670654%, 13.592529%)" offset="0.847656"/><stop stop-opacity="1" stop-color="rgb(94.821167%, 43.867493%, 13.375854%)" offset="0.851562"/><stop stop-opacity="1" stop-color="rgb(94.856262%, 44.064331%, 13.15918%)" offset="0.855469"/><stop stop-opacity="1" stop-color="rgb(94.892883%, 44.261169%, 12.942505%)" offset="0.859375"/><stop stop-opacity="1" stop-color="rgb(94.895935%, 44.27948%, 12.921143%)" offset="0.875"/><stop stop-opacity="1" stop-color="rgb(94.898987%, 44.299316%, 12.89978%)" offset="1"/></linearGradient></defs><g clip-path="url(#9a4f519dc5)"><g clip-path="url(#275eb9e401)"><path fill="url(#8bdea03233)" d="M 0.015625 0.015625 L 0.015625 82.5 L 82.5 82.5 L 82.5 0.015625 Z M 0.015625 0.015625 " fill-rule="nonzero"/></g></g><path fill="#010101" d="M 23.484375 20.492188 C 20.261719 20.492188 17.621094 23.132812 17.621094 26.355469 L 17.621094 30.742188 L 64.925781 30.742188 L 64.925781 26.355469 C 64.925781 23.132812 62.289062 20.492188 59.0625 20.492188 L 58.125 20.492188 L 58.125 23.050781 C 58.125 24.992188 56.542969 26.574219 54.601562 26.574219 C 52.660156 26.574219 51.078125 24.992188 51.078125 23.050781 L 51.078125 20.492188 L 31.472656 20.492188 L 31.472656 23.050781 C 31.472656 24.992188 29.886719 26.574219 27.945312 26.574219 C 26.003906 26.574219 24.421875 24.992188 24.421875 23.050781 L 24.421875 20.492188 Z M 60.371094 36.238281 L 51.855469 36.238281 L 51.855469 44.289062 L 60.371094 44.289062 Z M 49.792969 36.238281 L 42.304688 36.238281 L 42.304688 44.289062 L 49.792969 44.289062 Z M 40.242188 36.238281 L 32.753906 36.238281 L 32.753906 44.289062 L 40.242188 44.289062 Z M 30.691406 36.238281 L 22.175781 36.238281 L 22.175781 44.289062 L 30.691406 44.289062 Z M 22.175781 46.351562 L 22.175781 53.371094 L 30.691406 53.371094 L 30.691406 46.351562 Z M 32.753906 53.371094 L 40.242188 53.371094 L 40.242188 46.351562 L 32.753906 46.351562 Z M 42.304688 53.371094 L 49.792969 53.371094 L 49.792969 46.351562 L 42.304688 46.351562 Z M 51.855469 53.371094 L 60.371094 53.371094 L 60.371094 46.351562 L 51.855469 46.351562 Z M 22.175781 55.433594 L 22.175781 63.484375 L 30.691406 63.484375 L 30.691406 55.433594 Z M 32.753906 63.484375 L 40.242188 63.484375 L 40.242188 55.433594 L 32.753906 55.433594 Z M 42.304688 63.484375 L 49.792969 63.484375 L 49.792969 55.433594 L 42.304688 55.433594 Z M 51.855469 63.484375 L 60.371094 63.484375 L 60.371094 55.433594 L 51.855469 55.433594 Z M 47.21875 26.503906 L 35.328125 26.503906 L 35.328125 25.324219 L 47.21875 25.324219 Z M 17.621094 31.925781 L 17.621094 61.933594 C 17.621094 65.160156 20.261719 67.796875 23.484375 67.796875 L 59.0625 67.796875 C 62.289062 67.796875 64.925781 65.160156 64.925781 61.933594 L 64.925781 31.925781 Z M 17.621094 31.925781 " fill-opacity="1" fill-rule="evenodd"/><path fill="#010101" d="M 54.601562 14.75 C 54.910156 14.75 55.210938 14.808594 55.5 14.929688 C 55.785156 15.046875 56.039062 15.21875 56.257812 15.4375 C 56.480469 15.65625 56.648438 15.910156 56.769531 16.199219 C 56.886719 16.484375 56.945312 16.785156 56.945312 17.097656 L 56.945312 23.050781 C 56.945312 23.359375 56.886719 23.660156 56.769531 23.949219 C 56.648438 24.234375 56.480469 24.488281 56.257812 24.707031 C 56.039062 24.929688 55.785156 25.097656 55.5 25.21875 C 55.210938 25.335938 54.910156 25.394531 54.601562 25.394531 C 54.289062 25.394531 53.992188 25.335938 53.703125 25.21875 C 53.414062 25.097656 53.164062 24.929688 52.941406 24.707031 C 52.722656 24.488281 52.554688 24.234375 52.433594 23.949219 C 52.316406 23.660156 52.253906 23.359375 52.253906 23.050781 L 52.253906 17.097656 C 52.253906 16.785156 52.316406 16.484375 52.433594 16.199219 C 52.554688 15.910156 52.722656 15.65625 52.941406 15.4375 C 53.164062 15.21875 53.414062 15.046875 53.703125 14.929688 C 53.992188 14.808594 54.289062 14.75 54.601562 14.75 Z M 54.601562 14.75 " fill-opacity="1" fill-rule="evenodd"/><path fill="#010101" d="M 27.945312 14.75 C 28.257812 14.75 28.554688 14.808594 28.84375 14.929688 C 29.132812 15.046875 29.382812 15.21875 29.605469 15.4375 C 29.824219 15.65625 29.992188 15.910156 30.113281 16.199219 C 30.230469 16.484375 30.292969 16.785156 30.292969 17.097656 L 30.292969 23.050781 C 30.292969 23.359375 30.230469 23.660156 30.113281 23.949219 C 29.992188 24.234375 29.824219 24.488281 29.605469 24.707031 C 29.382812 24.929688 29.132812 25.097656 28.84375 25.21875 C 28.554688 25.335938 28.257812 25.394531 27.945312 25.394531 C 27.636719 25.394531 27.335938 25.335938 27.046875 25.21875 C 26.761719 25.097656 26.507812 24.929688 26.289062 24.707031 C 26.066406 24.488281 25.898438 24.234375 25.777344 23.949219 C 25.660156 23.660156 25.601562 23.359375 25.601562 23.050781 L 25.601562 17.097656 C 25.601562 16.785156 25.660156 16.484375 25.777344 16.199219 C 25.898438 15.910156 26.066406 15.65625 26.289062 15.4375 C 26.507812 15.21875 26.761719 15.046875 27.046875 14.929688 C 27.335938 14.808594 27.636719 14.75 27.945312 14.75 Z M 27.945312 14.75 " fill-opacity="1" fill-rule="evenodd"/></svg>