<svg xmlns="http://www.w3.org/2000/svg" xmlns:xlink="http://www.w3.org/1999/xlink" width="500" zoomAndPan="magnify" viewBox="0 0 375 374.999991" height="500" preserveAspectRatio="xMidYMid meet" version="1.0"><path fill="#ce1126" d="M 25.5 44.984375 L 24.960938 44.621094 C 24.898438 44.578125 18.6875 40.355469 12.566406 34.515625 C 8.957031 31.066406 6.070312 27.734375 3.988281 24.605469 C 1.347656 20.605469 0 16.898438 0 13.609375 C 0 6.117188 6.128906 0.015625 13.65625 0.015625 C 16.453125 0.015625 19.15625 0.867188 21.460938 2.492188 C 23.132812 3.667969 24.5 5.171875 25.5 6.898438 C 26.5 5.160156 27.867188 3.660156 29.539062 2.492188 C 31.84375 0.867188 34.546875 0.015625 37.34375 0.015625 C 44.871094 0.015625 51 6.117188 51 13.609375 L 51 13.621094 C 50.96875 16.890625 49.613281 20.566406 46.960938 24.554688 C 44.878906 27.683594 42.003906 31.015625 38.394531 34.476562 C 32.28125 40.335938 26.101562 44.578125 26.039062 44.621094 Z M 13.65625 1.914062 C 7.179688 1.914062 1.90625 7.164062 1.90625 13.609375 C 1.90625 16.523438 3.140625 19.863281 5.578125 23.539062 C 7.570312 26.546875 10.363281 29.777344 13.871094 33.125 C 18.839844 37.867188 23.878906 41.535156 25.5 42.671875 C 27.121094 41.523438 32.128906 37.835938 37.085938 33.085938 C 40.585938 29.726562 43.371094 26.503906 45.371094 23.5 C 47.808594 19.824219 49.0625 16.503906 49.082031 13.609375 C 49.082031 7.164062 43.808594 1.921875 37.332031 1.921875 C 32.527344 1.921875 28.132812 4.949219 26.378906 9.457031 L 25.488281 11.75 L 24.613281 9.457031 C 22.859375 4.949219 18.460938 1.914062 13.65625 1.914062 Z M 13.65625 1.914062 " fill-opacity="1" fill-rule="nonzero"/></svg>