<svg xmlns="http://www.w3.org/2000/svg" xmlns:xlink="http://www.w3.org/1999/xlink" width="500" zoomAndPan="magnify" viewBox="0 0 375 374.999991" height="500" preserveAspectRatio="xMidYMid meet" version="1.0"><defs><clipPath id="42a93e3f06"><path d="M 0 21 L 21.75 21 L 21.75 30 L 0 30 Z M 0 21 " clip-rule="nonzero"/></clipPath></defs><g clip-path="url(#42a93e3f06)"><path fill="#e22222" d="M 21.769531 24.976562 C 21.769531 23.511719 20.441406 22.195312 18.035156 21.269531 C 17.941406 21.234375 17.847656 21.234375 17.757812 21.273438 C 17.667969 21.316406 17.605469 21.382812 17.566406 21.472656 C 17.53125 21.566406 17.535156 21.660156 17.574219 21.75 C 17.613281 21.839844 17.679688 21.902344 17.773438 21.9375 C 19.855469 22.738281 21.046875 23.847656 21.046875 24.976562 C 21.046875 27.238281 16.394531 29.148438 10.886719 29.148438 C 5.386719 29.148438 0.738281 27.238281 0.738281 24.976562 C 0.738281 23.84375 1.929688 22.738281 4.011719 21.9375 C 4.109375 21.902344 4.175781 21.839844 4.21875 21.75 C 4.261719 21.65625 4.265625 21.5625 4.226562 21.46875 C 4.191406 21.375 4.125 21.308594 4.035156 21.269531 C 3.941406 21.226562 3.847656 21.226562 3.753906 21.265625 C 1.34375 22.195312 0.015625 23.511719 0.015625 24.976562 C 0.015625 27.71875 4.792969 29.867188 10.886719 29.867188 C 16.988281 29.867188 21.769531 27.71875 21.769531 24.976562 Z M 21.769531 24.976562 " fill-opacity="1" fill-rule="nonzero"/></g><path fill="#e22222" d="M 10.886719 0.152344 C 10.351562 0.15625 9.824219 0.207031 9.296875 0.3125 C 8.773438 0.417969 8.265625 0.570312 7.769531 0.777344 C 7.277344 0.980469 6.804688 1.230469 6.359375 1.527344 C 5.917969 1.824219 5.503906 2.160156 5.125 2.539062 C 4.75 2.914062 4.410156 3.324219 4.113281 3.769531 C 3.816406 4.210938 3.566406 4.679688 3.359375 5.171875 C 3.15625 5.664062 3 6.171875 2.894531 6.695312 C 2.792969 7.21875 2.738281 7.746094 2.738281 8.28125 C 2.738281 11.429688 6.816406 18.066406 9.246094 21.742188 C 9.652344 22.355469 10.015625 22.894531 10.316406 23.332031 C 10.414062 23.476562 10.507812 23.609375 10.589844 23.730469 C 10.707031 23.894531 10.804688 24.035156 10.886719 24.15625 C 11.222656 23.679688 11.816406 22.824219 12.527344 21.742188 C 16.671875 15.5 19.046875 10.59375 19.046875 8.277344 C 19.046875 7.746094 18.992188 7.21875 18.886719 6.695312 C 18.785156 6.171875 18.628906 5.664062 18.421875 5.171875 C 18.21875 4.679688 17.964844 4.210938 17.667969 3.765625 C 17.371094 3.324219 17.03125 2.914062 16.652344 2.535156 C 16.273438 2.160156 15.863281 1.820312 15.417969 1.527344 C 14.972656 1.230469 14.503906 0.980469 14.007812 0.773438 C 13.515625 0.570312 13.003906 0.414062 12.480469 0.3125 C 11.953125 0.207031 11.421875 0.152344 10.886719 0.152344 Z M 10.890625 12.800781 C 10.59375 12.800781 10.296875 12.773438 10.007812 12.714844 C 9.714844 12.65625 9.429688 12.570312 9.152344 12.457031 C 8.878906 12.34375 8.617188 12.203125 8.367188 12.039062 C 8.121094 11.875 7.890625 11.6875 7.679688 11.476562 C 7.46875 11.265625 7.28125 11.039062 7.117188 10.789062 C 6.949219 10.542969 6.808594 10.28125 6.695312 10.007812 C 6.582031 9.734375 6.496094 9.449219 6.4375 9.160156 C 6.378906 8.867188 6.351562 8.574219 6.351562 8.277344 C 6.351562 7.980469 6.378906 7.6875 6.4375 7.394531 C 6.496094 7.101562 6.582031 6.820312 6.695312 6.546875 C 6.8125 6.273438 6.949219 6.011719 7.117188 5.765625 C 7.28125 5.515625 7.46875 5.289062 7.679688 5.078125 C 7.890625 4.867188 8.121094 4.679688 8.371094 4.515625 C 8.617188 4.351562 8.878906 4.210938 9.15625 4.097656 C 9.429688 3.984375 9.714844 3.898438 10.007812 3.839844 C 10.296875 3.78125 10.59375 3.753906 10.890625 3.753906 C 11.191406 3.753906 11.484375 3.78125 11.777344 3.839844 C 12.070312 3.898438 12.355469 3.984375 12.628906 4.097656 C 12.90625 4.210938 13.167969 4.351562 13.414062 4.515625 C 13.664062 4.679688 13.890625 4.867188 14.101562 5.078125 C 14.3125 5.289062 14.503906 5.515625 14.667969 5.765625 C 14.832031 6.011719 14.972656 6.273438 15.085938 6.546875 C 15.203125 6.820312 15.289062 7.105469 15.347656 7.394531 C 15.402344 7.6875 15.433594 7.980469 15.433594 8.277344 C 15.433594 8.574219 15.402344 8.867188 15.34375 9.160156 C 15.289062 9.453125 15.199219 9.734375 15.085938 10.007812 C 14.972656 10.28125 14.832031 10.542969 14.667969 10.789062 C 14.5 11.035156 14.3125 11.265625 14.101562 11.476562 C 13.890625 11.683594 13.664062 11.875 13.414062 12.039062 C 13.167969 12.203125 12.90625 12.34375 12.628906 12.457031 C 12.355469 12.570312 12.070312 12.65625 11.777344 12.714844 C 11.488281 12.773438 11.191406 12.800781 10.894531 12.800781 Z M 10.890625 12.800781 " fill-opacity="1" fill-rule="nonzero"/><path fill="#e22222" d="M 10.886719 27.367188 C 15.09375 27.367188 18.019531 26 18.019531 24.78125 C 18.019531 23.699219 15.882812 22.65625 13.011719 22.324219 L 12.929688 22.445312 L 12.921875 22.457031 C 12.859375 22.554688 12.796875 22.648438 12.734375 22.738281 L 12.71875 22.761719 C 12.664062 22.84375 12.609375 22.925781 12.554688 23.003906 L 12.515625 23.0625 C 12.472656 23.128906 12.425781 23.195312 12.382812 23.257812 L 12.332031 23.335938 L 12.214844 23.507812 L 12.164062 23.578125 L 12.046875 23.75 L 12.011719 23.804688 L 11.898438 23.96875 L 11.867188 24.015625 L 11.753906 24.175781 L 11.734375 24.203125 C 11.390625 24.695312 11.1875 24.984375 11.179688 24.988281 C 11.109375 25.089844 11.011719 25.140625 10.886719 25.140625 C 10.765625 25.140625 10.667969 25.089844 10.59375 24.988281 C 10.59375 24.984375 10.433594 24.765625 10.164062 24.378906 L 10.144531 24.347656 L 10.050781 24.214844 L 10.003906 24.144531 L 9.921875 24.03125 L 9.78125 23.828125 L 9.695312 23.699219 L 9.632812 23.613281 L 9.527344 23.453125 L 9.476562 23.375 C 9.4375 23.320312 9.398438 23.261719 9.359375 23.203125 L 9.300781 23.121094 C 9.261719 23.058594 9.21875 23 9.175781 22.933594 L 9.117188 22.847656 L 8.921875 22.554688 C 8.882812 22.496094 8.84375 22.4375 8.804688 22.375 L 8.765625 22.324219 C 5.898438 22.660156 3.765625 23.699219 3.765625 24.78125 C 3.765625 26.003906 6.691406 27.367188 10.886719 27.367188 Z M 10.886719 27.367188 " fill-opacity="1" fill-rule="nonzero"/></svg>