<svg xmlns="http://www.w3.org/2000/svg" xmlns:xlink="http://www.w3.org/1999/xlink" width="500" zoomAndPan="magnify" viewBox="0 0 375 374.999991" height="500" preserveAspectRatio="xMidYMid meet" version="1.0"><defs><filter x="0%" y="0%" width="100%" height="100%" id="cd6a87925b"><feColorMatrix values="0 0 0 0 1 0 0 0 0 1 0 0 0 0 1 0 0 0 1 0" color-interpolation-filters="sRGB"/></filter><mask id="113913ac2a"><g filter="url(#cd6a87925b)"><rect x="-37.5" width="450" fill="#000000" y="-37.499999" height="449.999989" fill-opacity="0.6"/></g></mask><clipPath id="f20a4dac22"><path d="M 0 0 L 60.75 0 L 60.75 60.75 L 0 60.75 Z M 0 0 " clip-rule="nonzero"/></clipPath><clipPath id="8a191d07d3"><rect x="0" width="61" y="0" height="61"/></clipPath></defs><g mask="url(#113913ac2a)"><g transform="matrix(1, 0, 0, 1, 0, 0)"><g clip-path="url(#8a191d07d3)"><g clip-path="url(#f20a4dac22)"><path fill="#1487ff" d="M 30.375 0 C 13.625 0 0 13.625 0 30.375 C 0 47.125 13.625 60.75 30.375 60.75 C 47.125 60.75 60.75 47.125 60.75 30.375 C 60.75 13.625 47.125 0 30.375 0 Z M 46.242188 30.800781 L 35.976562 44.933594 C 35.417969 45.707031 34.59375 46.210938 33.65625 46.359375 C 33.46875 46.390625 33.277344 46.40625 33.089844 46.40625 C 32.347656 46.40625 31.621094 46.171875 31.007812 45.722656 C 30.238281 45.164062 29.730469 44.34375 29.582031 43.402344 C 29.433594 42.464844 29.660156 41.523438 30.21875 40.753906 L 35.167969 33.933594 L 14.058594 33.933594 C 12.09375 33.933594 10.496094 32.339844 10.496094 30.375 C 10.496094 28.410156 12.09375 26.816406 14.058594 26.816406 L 35.167969 26.816406 L 30.21875 20 C 29.660156 19.230469 29.433594 18.289062 29.582031 17.347656 C 29.730469 16.410156 30.238281 15.585938 31.007812 15.027344 C 31.777344 14.46875 32.722656 14.238281 33.65625 14.390625 C 34.59375 14.539062 35.417969 15.046875 35.976562 15.816406 L 46.242188 29.953125 C 46.425781 30.207031 46.425781 30.546875 46.242188 30.800781 Z M 46.242188 30.800781 " fill-opacity="1" fill-rule="nonzero"/></g></g></g></g></svg>