<svg xmlns="http://www.w3.org/2000/svg" xmlns:xlink="http://www.w3.org/1999/xlink" width="500" zoomAndPan="magnify" viewBox="0 0 375 374.999991" height="500" preserveAspectRatio="xMidYMid meet" version="1.0"><defs><filter x="0%" y="0%" width="100%" height="100%" id="2825255527"><feColorMatrix values="0 0 0 0 1 0 0 0 0 1 0 0 0 0 1 0 0 0 1 0" color-interpolation-filters="sRGB"/></filter><g/><clipPath id="7921614d5b"><path d="M 0 0 L 39.75 0 L 39.75 39.75 L 0 39.75 Z M 0 0 " clip-rule="nonzero"/></clipPath><clipPath id="2f514ac1d0"><path d="M 148.761719 342.820312 L 226.238281 342.820312 L 226.238281 375 L 148.761719 375 Z M 148.761719 342.820312 " clip-rule="nonzero"/></clipPath><clipPath id="15b87ed46d"><path d="M 187.5 342.820312 C 166.105469 342.820312 148.761719 360.164062 148.761719 381.558594 C 148.761719 402.953125 166.105469 420.296875 187.5 420.296875 C 208.894531 420.296875 226.238281 402.953125 226.238281 381.558594 C 226.238281 360.164062 208.894531 342.820312 187.5 342.820312 " clip-rule="nonzero"/></clipPath><clipPath id="f2c00e4735"><path d="M 168 364 L 202.585938 364 L 202.585938 375 L 168 375 Z M 168 364 " clip-rule="nonzero"/></clipPath><clipPath id="dea26d6969"><path d="M 161.335938 365 L 175 365 L 175 369 L 161.335938 369 Z M 161.335938 365 " clip-rule="nonzero"/></clipPath><clipPath id="c89eaa7315"><path d="M 179 348.46875 L 183 348.46875 L 183 362 L 179 362 Z M 179 348.46875 " clip-rule="nonzero"/></clipPath><mask id="bd30eb4a65"><g filter="url(#2825255527)"><rect x="-37.5" width="450" fill="#000000" y="-37.499999" height="449.999989" fill-opacity="0.149"/></g></mask><clipPath id="b46ce86315"><path d="M 13 11 L 23 11 L 23 21 L 13 21 Z M 13 11 " clip-rule="nonzero"/></clipPath><clipPath id="67a57a0031"><rect x="0" width="63" y="0" height="21"/></clipPath></defs><g clip-path="url(#7921614d5b)"><path fill="#100f0d" d="M 31.710938 12.414062 L 31.171875 12.957031 L 26.800781 8.585938 L 27.34375 8.046875 C 27.886719 7.503906 28.765625 7.503906 29.308594 8.046875 L 31.710938 10.449219 C 32.253906 10.992188 32.253906 11.871094 31.710938 12.414062 Z M 15.027344 29.097656 L 10.660156 24.730469 L 26.359375 9.027344 L 30.730469 13.398438 Z M 7.785156 31.972656 L 10.050781 25.335938 L 14.421875 29.707031 Z M 19.878906 0 C 8.902344 0 0 8.902344 0 19.878906 C 0 30.855469 8.902344 39.753906 19.878906 39.753906 C 30.855469 39.753906 39.753906 30.855469 39.753906 19.878906 C 39.753906 8.902344 30.855469 0 19.878906 0 " fill-opacity="1" fill-rule="nonzero"/></g><g clip-path="url(#2f514ac1d0)"><g clip-path="url(#15b87ed46d)"><path fill="#d9e9e9" d="M 148.761719 342.820312 L 226.238281 342.820312 L 226.238281 420.296875 L 148.761719 420.296875 Z M 148.761719 342.820312 " fill-opacity="1" fill-rule="nonzero"/></g></g><g clip-path="url(#f2c00e4735)"><path fill="#ffffff" d="M 202.304688 390.402344 C 202.277344 389.425781 202.25 388.417969 202.261719 388.234375 L 202.261719 382.832031 L 202.238281 382.714844 C 201.699219 380.308594 200.429688 379.804688 199.460938 379.804688 C 199.363281 379.804688 199.257812 379.808594 199.15625 379.820312 C 198.230469 379.84375 197.449219 380.253906 196.9375 380.917969 L 196.9375 379.597656 C 196.9375 377.949219 195.457031 376.605469 193.640625 376.605469 C 192.296875 376.605469 191.144531 377.328125 190.625 378.363281 L 190.625 375.457031 C 190.625 373.808594 189.144531 372.464844 187.328125 372.464844 C 186.035156 372.464844 184.917969 373.140625 184.375 374.121094 L 184.375 368.679688 C 184.375 366.007812 183.296875 364.707031 181.082031 364.707031 C 179.265625 364.707031 177.789062 366.046875 177.789062 367.695312 L 177.914062 391.214844 L 175.3125 384.472656 L 175.257812 384.328125 L 175.164062 384.203125 C 174.308594 383.078125 173.367188 382.554688 172.203125 382.554688 C 171.609375 382.554688 171.039062 382.683594 170.351562 382.851562 C 169.671875 383.019531 169.101562 383.496094 168.742188 384.1875 C 168.261719 385.128906 168.21875 386.367188 168.632812 387.429688 L 172.574219 401.132812 L 172.636719 401.347656 L 172.777344 401.519531 L 179.421875 409.667969 L 181.351562 413.859375 L 181.644531 414.5 L 182.359375 414.496094 L 197.832031 414.371094 L 198.703125 414.363281 L 198.894531 413.519531 L 202.273438 398.535156 L 202.289062 398.464844 C 202.476562 397.273438 202.402344 393.972656 202.304688 390.402344 Z M 202.304688 390.402344 " fill-opacity="1" fill-rule="nonzero"/></g><g clip-path="url(#dea26d6969)"><path fill="#ffffff" d="M 174.625 367.0625 C 174.625 366.160156 173.886719 365.425781 172.976562 365.425781 L 163.054688 365.425781 C 162.144531 365.425781 161.40625 366.160156 161.40625 367.0625 C 161.40625 367.964844 162.144531 368.695312 163.054688 368.695312 L 172.976562 368.695312 C 173.886719 368.695312 174.625 367.964844 174.625 367.0625 Z M 174.625 367.0625 " fill-opacity="1" fill-rule="nonzero"/></g><path fill="#ffffff" d="M 187.640625 367.0625 C 187.640625 367.964844 188.378906 368.695312 189.289062 368.695312 L 199.210938 368.695312 C 200.121094 368.695312 200.859375 367.964844 200.859375 367.0625 C 200.859375 366.160156 200.121094 365.425781 199.210938 365.425781 L 189.289062 365.425781 C 188.378906 365.425781 187.640625 366.15625 187.640625 367.0625 Z M 187.640625 367.0625 " fill-opacity="1" fill-rule="nonzero"/><g clip-path="url(#c89eaa7315)"><path fill="#ffffff" d="M 181.1875 361.601562 C 182.097656 361.601562 182.835938 360.871094 182.835938 359.96875 L 182.835938 350.125 C 182.835938 349.21875 182.097656 348.488281 181.1875 348.488281 C 180.277344 348.488281 179.539062 349.21875 179.539062 350.125 L 179.539062 359.96875 C 179.539062 360.871094 180.277344 361.601562 181.1875 361.601562 Z M 181.1875 361.601562 " fill-opacity="1" fill-rule="nonzero"/></g><path fill="#ffffff" d="M 186.992188 363.878906 C 187.414062 363.878906 187.835938 363.71875 188.160156 363.398438 L 195.175781 356.441406 C 195.820312 355.800781 195.820312 354.765625 195.175781 354.128906 C 194.53125 353.488281 193.488281 353.488281 192.84375 354.128906 L 185.828125 361.089844 C 185.183594 361.726562 185.183594 362.761719 185.828125 363.398438 C 186.148438 363.71875 186.570312 363.878906 186.992188 363.878906 Z M 186.992188 363.878906 " fill-opacity="1" fill-rule="nonzero"/><path fill="#ffffff" d="M 174.105469 363.398438 C 174.425781 363.71875 174.851562 363.878906 175.273438 363.878906 C 175.691406 363.878906 176.113281 363.71875 176.4375 363.398438 C 177.082031 362.761719 177.082031 361.726562 176.4375 361.089844 L 169.421875 354.128906 C 168.777344 353.488281 167.734375 353.488281 167.089844 354.128906 C 166.445312 354.765625 166.445312 355.800781 167.089844 356.441406 Z M 174.105469 363.398438 " fill-opacity="1" fill-rule="nonzero"/><g mask="url(#bd30eb4a65)"><g transform="matrix(1, 0, 0, 1, 156, 354)"><g clip-path="url(#67a57a0031)"><g fill="#000000" fill-opacity="1"><g transform="translate(1.439452, 20.592485)"><g><path d="M 7.382812 -9.207031 L 7.382812 -3.699219 C 7.371094 -1.957031 6.371094 -1.179688 5.105469 -1.179688 C 4.019531 -1.179688 3.089844 -1.808594 3.089844 -3.371094 L 3.089844 -9.207031 L 1.472656 -9.207031 L 1.472656 -3.007812 C 1.472656 -0.9375 2.761719 0.179688 4.65625 0.179688 C 5.863281 0.179688 6.839844 -0.328125 7.410156 -1.21875 L 7.449219 0 L 9.003906 0 L 9.003906 -9.207031 Z M 7.382812 -9.207031 "/></g></g></g><g clip-path="url(#b46ce86315)"><g fill="#000000" fill-opacity="1"><g transform="translate(12.089724, 20.592485)"><g><path d="M 6.511719 -9.386719 C 5.066406 -9.386719 3.832031 -8.617188 3.25 -7.417969 L 3.214844 -9.207031 L 1.648438 -9.207031 L 1.648438 4.722656 L 3.269531 4.722656 L 3.269531 -1.742188 C 3.859375 -0.5625 5.085938 0.195312 6.511719 0.195312 C 8.871094 0.195312 10.808594 -1.648438 10.808594 -4.597656 C 10.808594 -7.539062 8.871094 -9.386719 6.511719 -9.386719 Z M 6.191406 -1.207031 C 4.488281 -1.207031 3.148438 -2.660156 3.148438 -4.597656 C 3.148438 -6.527344 4.488281 -7.980469 6.191406 -7.980469 C 7.820312 -7.980469 9.191406 -6.6875 9.191406 -4.597656 C 9.191406 -2.5 7.820312 -1.207031 6.191406 -1.207031 Z M 6.191406 -1.207031 "/></g></g></g></g><g fill="#000000" fill-opacity="1"><g transform="translate(23.807832, 20.592485)"><g><path d="M 1.648438 0 L 3.289062 0 L 3.289062 -14.390625 L 1.648438 -14.390625 Z M 1.648438 0 "/></g></g></g><g fill="#000000" fill-opacity="1"><g transform="translate(28.744241, 20.592485)"><g><path d="M 5.527344 0.1875 C 8.179688 0.1875 10.164062 -1.65625 10.164062 -4.609375 C 10.164062 -7.539062 8.1875 -9.394531 5.527344 -9.394531 C 2.875 -9.394531 0.890625 -7.539062 0.890625 -4.609375 C 0.890625 -1.65625 2.902344 0.1875 5.527344 0.1875 Z M 5.515625 -1.171875 C 3.8125 -1.171875 2.5 -2.519531 2.5 -4.609375 C 2.5 -6.6875 3.8125 -8.039062 5.515625 -8.039062 C 7.242188 -8.039062 8.5625 -6.6875 8.5625 -4.609375 C 8.5625 -2.519531 7.242188 -1.171875 5.515625 -1.171875 Z M 5.515625 -1.171875 "/></g></g></g><g fill="#000000" fill-opacity="1"><g transform="translate(39.797287, 20.592485)"><g><path d="M 3.773438 0.179688 C 4.898438 0.179688 6.042969 -0.226562 6.792969 -1.246094 L 6.867188 -1.246094 C 7.042969 -0.382812 7.671875 0 8.609375 0 L 9.414062 0 L 9.414062 -1.171875 L 9.265625 -1.171875 C 8.617188 -1.171875 8.328125 -1.386719 8.328125 -2.378906 L 8.328125 -6.183594 C 8.328125 -8.597656 6.640625 -9.367188 4.796875 -9.367188 C 2.753906 -9.367188 1.414062 -8.515625 1.132812 -6.734375 L 2.59375 -6.425781 C 2.746094 -7.652344 3.644531 -8.140625 4.722656 -8.140625 C 5.78125 -8.140625 6.753906 -7.671875 6.753906 -6.332031 C 6.753906 -5.863281 6.5 -5.582031 5.9375 -5.480469 L 4.449219 -5.238281 C 2.445312 -4.898438 0.964844 -4.253906 0.964844 -2.34375 C 0.964844 -0.582031 2.25 0.179688 3.773438 0.179688 Z M 4.148438 -1.132812 C 3.261719 -1.132812 2.546875 -1.515625 2.546875 -2.472656 C 2.546875 -3.382812 3.214844 -3.785156 4.441406 -3.992188 L 6.875 -4.460938 C 6.875 -2.371094 5.761719 -1.132812 4.148438 -1.132812 Z M 4.148438 -1.132812 "/></g></g></g><g fill="#000000" fill-opacity="1"><g transform="translate(49.848072, 20.592485)"><g><path d="M 8.449219 -14.390625 L 8.449219 -7.457031 C 7.859375 -8.636719 6.632812 -9.386719 5.207031 -9.386719 C 2.855469 -9.386719 0.898438 -7.503906 0.898438 -4.597656 C 0.898438 -1.6875 2.847656 0.195312 5.207031 0.195312 C 6.652344 0.195312 7.886719 -0.570312 8.46875 -1.789062 L 8.503906 0 L 10.070312 0 L 10.070312 -14.390625 Z M 5.546875 -1.207031 C 3.867188 -1.207031 2.519531 -2.546875 2.519531 -4.597656 C 2.519531 -6.652344 3.867188 -7.992188 5.546875 -7.992188 C 7.222656 -7.992188 8.550781 -6.539062 8.550781 -4.597656 C 8.550781 -2.660156 7.230469 -1.207031 5.546875 -1.207031 Z M 5.546875 -1.207031 "/></g></g></g></g></g></g></svg>