<svg xmlns="http://www.w3.org/2000/svg" xmlns:xlink="http://www.w3.org/1999/xlink" width="500" zoomAndPan="magnify" viewBox="0 0 375 374.999991" height="500" preserveAspectRatio="xMidYMid meet" version="1.0"><defs><filter x="0%" y="0%" width="100%" height="100%" id="9158f7fbf2"><feColorMatrix values="0 0 0 0 1 0 0 0 0 1 0 0 0 0 1 0 0 0 1 0" color-interpolation-filters="sRGB"/></filter><g/><clipPath id="e20457a0c6"><path d="M 2.183594 0 L 164.148438 0 L 164.148438 161.964844 L 2.183594 161.964844 Z M 2.183594 0 " clip-rule="nonzero"/></clipPath><clipPath id="43baf78575"><path d="M 83.164062 0 C 38.441406 0 2.183594 36.257812 2.183594 80.980469 C 2.183594 125.707031 38.441406 161.964844 83.164062 161.964844 C 127.890625 161.964844 164.148438 125.707031 164.148438 80.980469 C 164.148438 36.257812 127.890625 0 83.164062 0 " clip-rule="nonzero"/></clipPath><mask id="9f34385e0c"><g filter="url(#9158f7fbf2)"><rect x="-37.5" width="450" fill="#000000" y="-37.499999" height="449.999989" fill-opacity="0.1882"/></g></mask><clipPath id="dd4042cecb"><path d="M 23 0.691406 L 76 0.691406 L 76 64 L 23 64 Z M 23 0.691406 " clip-rule="nonzero"/></clipPath><clipPath id="845ac07068"><path d="M 0.703125 110 L 1 110 L 1 112 L 0.703125 112 Z M 0.703125 110 " clip-rule="nonzero"/></clipPath><clipPath id="67b28e35dd"><path d="M 98 110 L 98.203125 110 L 98.203125 112 L 98 112 Z M 98 110 " clip-rule="nonzero"/></clipPath><clipPath id="2dce53cbaa"><path d="M 0.703125 65 L 98.203125 65 L 98.203125 128.679688 L 0.703125 128.679688 Z M 0.703125 65 " clip-rule="nonzero"/></clipPath><clipPath id="c9f16ee278"><rect x="0" width="99" y="0" height="129"/></clipPath><mask id="bb89987b76"><g filter="url(#9158f7fbf2)"><rect x="-37.5" width="450" fill="#000000" y="-37.499999" height="449.999989" fill-opacity="0.2392"/></g></mask><clipPath id="7ad5bb1e79"><rect x="0" width="128" y="0" height="110"/></clipPath></defs><g clip-path="url(#e20457a0c6)"><g clip-path="url(#43baf78575)"><path fill="#cfe3ff" d="M 2.183594 0 L 164.148438 0 L 164.148438 161.964844 L 2.183594 161.964844 Z M 2.183594 0 " fill-opacity="1" fill-rule="nonzero"/></g></g><g mask="url(#9f34385e0c)"><g transform="matrix(1, 0, 0, 1, 35, 17)"><g clip-path="url(#c9f16ee278)"><g clip-path="url(#dd4042cecb)"><path fill="#3d82e9" d="M 49.453125 63.292969 C 63.707031 63.292969 75.261719 49.292969 75.261719 32.019531 C 75.261719 14.746094 71.46875 0.742188 49.453125 0.742188 C 27.441406 0.742188 23.644531 14.746094 23.644531 32.019531 C 23.644531 49.292969 35.203125 63.292969 49.453125 63.292969 Z M 49.453125 63.292969 " fill-opacity="1" fill-rule="nonzero"/></g><g clip-path="url(#845ac07068)"><path fill="#3d82e9" d="M 0.707031 111.050781 C 0.703125 109.996094 0.699219 110.753906 0.707031 111.050781 Z M 0.707031 111.050781 " fill-opacity="1" fill-rule="nonzero"/></g><g clip-path="url(#67b28e35dd)"><path fill="#3d82e9" d="M 98.199219 111.871094 C 98.210938 111.582031 98.203125 109.871094 98.199219 111.871094 Z M 98.199219 111.871094 " fill-opacity="1" fill-rule="nonzero"/></g><g clip-path="url(#2dce53cbaa)"><path fill="#3d82e9" d="M 98.144531 109.789062 C 97.667969 79.699219 93.730469 71.125 63.589844 65.695312 C 63.589844 65.695312 59.34375 71.089844 49.457031 71.089844 C 39.566406 71.089844 35.324219 65.695312 35.324219 65.695312 C 5.511719 71.0625 1.332031 79.511719 0.785156 108.808594 C 0.738281 111.203125 0.71875 111.328125 0.710938 111.050781 C 0.710938 111.570312 0.714844 112.53125 0.714844 114.210938 C 0.714844 114.210938 7.890625 128.644531 49.457031 128.644531 C 91.023438 128.644531 98.199219 114.210938 98.199219 114.210938 C 98.199219 113.132812 98.199219 112.382812 98.199219 111.871094 C 98.191406 112.042969 98.175781 111.710938 98.144531 109.785156 Z M 98.144531 109.789062 " fill-opacity="1" fill-rule="nonzero"/></g></g></g></g><g mask="url(#bb89987b76)"><g transform="matrix(1, 0, 0, 1, 19, 24)"><g clip-path="url(#7ad5bb1e79)"><g fill="#3861f2" fill-opacity="1"><g transform="translate(1.305687, 41.062487)"><g><path d="M 15.433594 -19.253906 L 15.433594 -7.738281 C 15.414062 -4.09375 13.320312 -2.46875 10.675781 -2.46875 C 8.402344 -2.46875 6.464844 -3.78125 6.464844 -7.050781 L 6.464844 -19.253906 L 3.074219 -19.253906 L 3.074219 -6.289062 C 3.074219 -1.957031 5.777344 0.371094 9.734375 0.371094 C 12.261719 0.371094 14.296875 -0.683594 15.492188 -2.546875 L 15.570312 0 L 18.824219 0 L 18.824219 -19.253906 Z M 15.433594 -19.253906 "/></g></g><g transform="translate(23.575261, 41.062487)"><g><path d="M 13.613281 -19.625 C 10.597656 -19.625 8.011719 -18.019531 6.796875 -15.511719 L 6.71875 -19.253906 L 3.445312 -19.253906 L 3.445312 9.871094 L 6.835938 9.871094 L 6.835938 -3.644531 C 8.070312 -1.175781 10.636719 0.410156 13.613281 0.410156 C 18.546875 0.410156 22.601562 -3.445312 22.601562 -9.617188 C 22.601562 -15.765625 18.546875 -19.625 13.613281 -19.625 Z M 12.945312 -2.527344 C 9.382812 -2.527344 6.582031 -5.5625 6.582031 -9.617188 C 6.582031 -13.652344 9.382812 -16.6875 12.945312 -16.6875 C 16.355469 -16.6875 19.214844 -13.984375 19.214844 -9.617188 C 19.214844 -5.230469 16.355469 -2.527344 12.945312 -2.527344 Z M 12.945312 -2.527344 "/></g></g><g transform="translate(48.077667, 41.062487)"><g><path d="M 3.445312 0 L 6.875 0 L 6.875 -30.085938 L 3.445312 -30.085938 Z M 3.445312 0 "/></g></g><g transform="translate(58.399625, 41.062487)"><g><path d="M 11.554688 0.390625 C 17.097656 0.390625 21.25 -3.464844 21.25 -9.636719 C 21.25 -15.765625 17.117188 -19.644531 11.554688 -19.644531 C 6.011719 -19.644531 1.859375 -15.765625 1.859375 -9.636719 C 1.859375 -3.464844 6.070312 0.390625 11.554688 0.390625 Z M 11.535156 -2.449219 C 7.972656 -2.449219 5.230469 -5.269531 5.230469 -9.636719 C 5.230469 -13.984375 7.972656 -16.804688 11.535156 -16.804688 C 15.140625 -16.804688 17.902344 -13.984375 17.902344 -9.636719 C 17.902344 -5.269531 15.140625 -2.449219 11.535156 -2.449219 Z M 11.535156 -2.449219 "/></g></g></g><g fill="#3861f2" fill-opacity="1"><g transform="translate(81.511407, 41.062487)"><g><path d="M 7.894531 0.371094 C 10.242188 0.371094 12.632812 -0.46875 14.199219 -2.605469 L 14.355469 -2.605469 C 14.730469 -0.804688 16.042969 0 18 0 L 19.683594 0 L 19.683594 -2.449219 L 19.371094 -2.449219 C 18.019531 -2.449219 17.414062 -2.898438 17.414062 -4.976562 L 17.414062 -12.925781 C 17.414062 -17.980469 13.886719 -19.585938 10.027344 -19.585938 C 5.757812 -19.585938 2.957031 -17.804688 2.371094 -14.082031 L 5.425781 -13.4375 C 5.738281 -16.003906 7.617188 -17.019531 9.871094 -17.019531 C 12.085938 -17.019531 14.121094 -16.042969 14.121094 -13.242188 C 14.121094 -12.261719 13.59375 -11.671875 12.417969 -11.457031 L 9.304688 -10.949219 C 5.113281 -10.242188 2.015625 -8.890625 2.015625 -4.898438 C 2.015625 -1.214844 4.699219 0.371094 7.894531 0.371094 Z M 8.675781 -2.371094 C 6.816406 -2.371094 5.328125 -3.171875 5.328125 -5.171875 C 5.328125 -7.070312 6.71875 -7.914062 9.285156 -8.34375 L 14.375 -9.324219 C 14.375 -4.957031 12.046875 -2.371094 8.675781 -2.371094 Z M 8.675781 -2.371094 "/></g></g><g transform="translate(102.52746, 41.062487)"><g><path d="M 17.667969 -30.085938 L 17.667969 -15.589844 C 16.433594 -18.058594 13.867188 -19.625 10.890625 -19.625 C 5.972656 -19.625 1.878906 -15.6875 1.878906 -9.617188 C 1.878906 -3.527344 5.953125 0.410156 10.890625 0.410156 C 13.90625 0.410156 16.492188 -1.195312 17.707031 -3.742188 L 17.785156 0 L 21.054688 0 L 21.054688 -30.085938 Z M 11.59375 -2.527344 C 8.089844 -2.527344 5.269531 -5.328125 5.269531 -9.617188 C 5.269531 -13.90625 8.089844 -16.707031 11.59375 -16.707031 C 15.101562 -16.707031 17.882812 -13.671875 17.882812 -9.617188 C 17.882812 -5.5625 15.121094 -2.527344 11.59375 -2.527344 Z M 11.59375 -2.527344 "/></g></g></g><g fill="#3861f2" fill-opacity="1"><g transform="translate(10.790658, 97.220202)"><g><path d="M 13.613281 -19.625 C 10.597656 -19.625 8.011719 -18.019531 6.796875 -15.511719 L 6.71875 -19.253906 L 3.445312 -19.253906 L 3.445312 9.871094 L 6.835938 9.871094 L 6.835938 -3.644531 C 8.070312 -1.175781 10.636719 0.410156 13.613281 0.410156 C 18.546875 0.410156 22.601562 -3.445312 22.601562 -9.617188 C 22.601562 -15.765625 18.546875 -19.625 13.613281 -19.625 Z M 12.945312 -2.527344 C 9.382812 -2.527344 6.582031 -5.5625 6.582031 -9.617188 C 6.582031 -13.652344 9.382812 -16.6875 12.945312 -16.6875 C 16.355469 -16.6875 19.214844 -13.984375 19.214844 -9.617188 C 19.214844 -5.230469 16.355469 -2.527344 12.945312 -2.527344 Z M 12.945312 -2.527344 "/></g></g></g><g fill="#3861f2" fill-opacity="1"><g transform="translate(35.293065, 97.220202)"><g><path d="M 12.652344 -19.625 C 10.085938 -19.625 8.050781 -18.546875 6.835938 -16.707031 L 6.835938 -30.085938 L 3.445312 -30.085938 L 3.445312 0 L 6.835938 0 L 6.835938 -11.515625 C 6.855469 -15.199219 9.050781 -16.765625 11.59375 -16.765625 C 13.867188 -16.765625 15.804688 -15.492188 15.804688 -12.085938 L 15.804688 0 L 19.195312 0 L 19.195312 -12.730469 C 19.195312 -17.292969 16.492188 -19.625 12.652344 -19.625 Z M 12.652344 -19.625 "/></g></g></g><g fill="#3861f2" fill-opacity="1"><g transform="translate(57.562638, 97.220202)"><g><path d="M 11.554688 0.390625 C 17.097656 0.390625 21.25 -3.464844 21.25 -9.636719 C 21.25 -15.765625 17.117188 -19.644531 11.554688 -19.644531 C 6.011719 -19.644531 1.859375 -15.765625 1.859375 -9.636719 C 1.859375 -3.464844 6.070312 0.390625 11.554688 0.390625 Z M 11.535156 -2.449219 C 7.972656 -2.449219 5.230469 -5.269531 5.230469 -9.636719 C 5.230469 -13.984375 7.972656 -16.804688 11.535156 -16.804688 C 15.140625 -16.804688 17.902344 -13.984375 17.902344 -9.636719 C 17.902344 -5.269531 15.140625 -2.449219 11.535156 -2.449219 Z M 11.535156 -2.449219 "/></g></g><g transform="translate(80.674421, 97.220202)"><g><path d="M 9.597656 0 L 12.300781 0 L 12.300781 -2.703125 L 10.539062 -2.703125 C 8.988281 -2.703125 7.875 -3.703125 7.875 -5.582031 L 7.875 -16.550781 L 12.300781 -16.550781 L 12.300781 -19.253906 L 7.875 -19.253906 L 7.875 -25.675781 L 4.71875 -25.675781 L 4.71875 -22.191406 C 4.71875 -20.074219 3.996094 -19.253906 1.976562 -19.253906 L 0.527344 -19.253906 L 0.527344 -16.550781 L 4.464844 -16.550781 L 4.464844 -5.230469 C 4.464844 -1.898438 6.445312 0 9.597656 0 Z M 9.597656 0 "/></g></g><g transform="translate(94.423973, 97.220202)"><g><path d="M 11.554688 0.390625 C 17.097656 0.390625 21.25 -3.464844 21.25 -9.636719 C 21.25 -15.765625 17.117188 -19.644531 11.554688 -19.644531 C 6.011719 -19.644531 1.859375 -15.765625 1.859375 -9.636719 C 1.859375 -3.464844 6.070312 0.390625 11.554688 0.390625 Z M 11.535156 -2.449219 C 7.972656 -2.449219 5.230469 -5.269531 5.230469 -9.636719 C 5.230469 -13.984375 7.972656 -16.804688 11.535156 -16.804688 C 15.140625 -16.804688 17.902344 -13.984375 17.902344 -9.636719 C 17.902344 -5.269531 15.140625 -2.449219 11.535156 -2.449219 Z M 11.535156 -2.449219 "/></g></g></g></g></g></g></svg>