<svg xmlns="http://www.w3.org/2000/svg" xmlns:xlink="http://www.w3.org/1999/xlink" width="500" zoomAndPan="magnify" viewBox="0 0 375 374.999991" height="500" preserveAspectRatio="xMidYMid meet" version="1.0"><defs><filter x="0%" y="0%" width="100%" height="100%" id="6d8a05b345"><feColorMatrix values="0 0 0 0 1 0 0 0 0 1 0 0 0 0 1 0 0 0 1 0" color-interpolation-filters="sRGB"/></filter><g/><clipPath id="06b6f3dcdc"><path d="M 0 0 L 76.238281 0 L 76.238281 77.476562 L 0 77.476562 Z M 0 0 " clip-rule="nonzero"/></clipPath><clipPath id="1ace6f42b7"><path d="M 37.5 0 C 16.105469 0 -1.238281 17.34375 -1.238281 38.738281 C -1.238281 60.132812 16.105469 77.476562 37.5 77.476562 C 58.894531 77.476562 76.238281 60.132812 76.238281 38.738281 C 76.238281 17.34375 58.894531 0 37.5 0 " clip-rule="nonzero"/></clipPath><clipPath id="7907c71bad"><path d="M 18 21 L 52.585938 21 L 52.585938 71.648438 L 18 71.648438 Z M 18 21 " clip-rule="nonzero"/></clipPath><clipPath id="a8c89df313"><path d="M 11.335938 22 L 25 22 L 25 26 L 11.335938 26 Z M 11.335938 22 " clip-rule="nonzero"/></clipPath><clipPath id="24f2cec210"><path d="M 29 5.648438 L 33 5.648438 L 33 19 L 29 19 Z M 29 5.648438 " clip-rule="nonzero"/></clipPath><mask id="d3f6ed474e"><g filter="url(#6d8a05b345)"><rect x="-37.5" width="450" fill="#000000" y="-37.499999" height="449.999989" fill-opacity="0.149"/></g></mask><clipPath id="adca34893b"><rect x="0" width="63" y="0" height="53"/></clipPath></defs><g clip-path="url(#06b6f3dcdc)"><g clip-path="url(#1ace6f42b7)"><path fill="#d9e9e9" d="M -1.238281 0 L 76.238281 0 L 76.238281 77.476562 L -1.238281 77.476562 Z M -1.238281 0 " fill-opacity="1" fill-rule="nonzero"/></g></g><g clip-path="url(#7907c71bad)"><path fill="#ffffff" d="M 52.304688 47.582031 C 52.277344 46.609375 52.25 45.601562 52.261719 45.417969 L 52.261719 40.015625 L 52.238281 39.898438 C 51.699219 37.492188 50.429688 36.984375 49.460938 36.984375 C 49.363281 36.984375 49.257812 36.992188 49.15625 37.003906 C 48.230469 37.023438 47.449219 37.433594 46.9375 38.097656 L 46.9375 36.78125 C 46.9375 35.128906 45.457031 33.789062 43.640625 33.789062 C 42.296875 33.789062 41.144531 34.507812 40.625 35.542969 L 40.625 32.636719 C 40.625 30.988281 39.144531 29.648438 37.328125 29.648438 C 36.035156 29.648438 34.917969 30.320312 34.375 31.300781 L 34.375 25.863281 C 34.375 23.1875 33.296875 21.886719 31.082031 21.886719 C 29.265625 21.886719 27.789062 23.230469 27.789062 24.878906 L 27.914062 48.398438 L 25.3125 41.652344 L 25.257812 41.507812 L 25.164062 41.386719 C 24.308594 40.261719 23.367188 39.734375 22.203125 39.734375 C 21.609375 39.734375 21.039062 39.863281 20.351562 40.035156 C 19.671875 40.203125 19.101562 40.675781 18.742188 41.367188 C 18.261719 42.3125 18.21875 43.546875 18.632812 44.613281 L 22.574219 58.3125 L 22.636719 58.527344 L 22.777344 58.699219 L 29.421875 66.847656 L 31.351562 71.039062 L 31.644531 71.683594 L 32.359375 71.675781 L 47.832031 71.550781 L 48.703125 71.546875 L 48.894531 70.699219 L 52.273438 55.714844 L 52.28125 55.683594 L 52.289062 55.648438 C 52.476562 54.457031 52.40625 51.152344 52.304688 47.582031 Z M 52.304688 47.582031 " fill-opacity="1" fill-rule="nonzero"/></g><g clip-path="url(#a8c89df313)"><path fill="#ffffff" d="M 24.625 24.242188 C 24.625 23.339844 23.886719 22.605469 22.976562 22.605469 L 13.054688 22.605469 C 12.144531 22.605469 11.40625 23.339844 11.40625 24.242188 C 11.40625 25.144531 12.144531 25.878906 13.054688 25.878906 L 22.976562 25.878906 C 23.886719 25.878906 24.625 25.144531 24.625 24.242188 Z M 24.625 24.242188 " fill-opacity="1" fill-rule="nonzero"/></g><path fill="#ffffff" d="M 37.640625 24.242188 C 37.640625 25.144531 38.378906 25.878906 39.289062 25.878906 L 49.210938 25.878906 C 50.121094 25.878906 50.859375 25.144531 50.859375 24.242188 C 50.859375 23.339844 50.121094 22.605469 49.210938 22.605469 L 39.289062 22.605469 C 38.378906 22.605469 37.640625 23.339844 37.640625 24.242188 Z M 37.640625 24.242188 " fill-opacity="1" fill-rule="nonzero"/><g clip-path="url(#24f2cec210)"><path fill="#ffffff" d="M 31.1875 18.785156 C 32.097656 18.785156 32.835938 18.050781 32.835938 17.148438 L 32.835938 7.304688 C 32.835938 6.402344 32.097656 5.667969 31.1875 5.667969 C 30.277344 5.667969 29.539062 6.402344 29.539062 7.304688 L 29.539062 17.148438 C 29.539062 18.050781 30.277344 18.785156 31.1875 18.785156 Z M 31.1875 18.785156 " fill-opacity="1" fill-rule="nonzero"/></g><path fill="#ffffff" d="M 36.992188 21.058594 C 37.414062 21.058594 37.835938 20.902344 38.160156 20.582031 L 45.175781 13.621094 C 45.820312 12.984375 45.820312 11.949219 45.175781 11.308594 C 44.53125 10.671875 43.488281 10.671875 42.84375 11.308594 L 35.828125 18.269531 C 35.183594 18.90625 35.183594 19.945312 35.828125 20.582031 C 36.148438 20.902344 36.570312 21.058594 36.992188 21.058594 Z M 36.992188 21.058594 " fill-opacity="1" fill-rule="nonzero"/><path fill="#ffffff" d="M 24.105469 20.582031 C 24.425781 20.902344 24.851562 21.058594 25.273438 21.058594 C 25.691406 21.058594 26.113281 20.902344 26.4375 20.582031 C 27.082031 19.945312 27.082031 18.90625 26.4375 18.269531 L 19.421875 11.308594 C 18.777344 10.671875 17.734375 10.671875 17.089844 11.308594 C 16.445312 11.949219 16.445312 12.980469 17.089844 13.621094 Z M 24.105469 20.582031 " fill-opacity="1" fill-rule="nonzero"/><g mask="url(#d3f6ed474e)"><g transform="matrix(1, 0, 0, 1, 6, 12)"><g clip-path="url(#adca34893b)"><g fill="#000000" fill-opacity="1"><g transform="translate(1.439469, 19.773591)"><g><path d="M 7.382812 -9.207031 L 7.382812 -3.699219 C 7.371094 -1.957031 6.371094 -1.179688 5.105469 -1.179688 C 4.019531 -1.179688 3.089844 -1.808594 3.089844 -3.371094 L 3.089844 -9.207031 L 1.472656 -9.207031 L 1.472656 -3.007812 C 1.472656 -0.9375 2.761719 0.179688 4.65625 0.179688 C 5.863281 0.179688 6.839844 -0.328125 7.410156 -1.21875 L 7.449219 0 L 9.003906 0 L 9.003906 -9.207031 Z M 7.382812 -9.207031 "/></g></g></g><g fill="#000000" fill-opacity="1"><g transform="translate(12.089741, 19.773591)"><g><path d="M 6.511719 -9.386719 C 5.066406 -9.386719 3.832031 -8.617188 3.25 -7.417969 L 3.214844 -9.207031 L 1.648438 -9.207031 L 1.648438 4.722656 L 3.269531 4.722656 L 3.269531 -1.742188 C 3.859375 -0.5625 5.085938 0.195312 6.511719 0.195312 C 8.871094 0.195312 10.808594 -1.648438 10.808594 -4.597656 C 10.808594 -7.539062 8.871094 -9.386719 6.511719 -9.386719 Z M 6.191406 -1.207031 C 4.488281 -1.207031 3.148438 -2.660156 3.148438 -4.597656 C 3.148438 -6.527344 4.488281 -7.980469 6.191406 -7.980469 C 7.820312 -7.980469 9.191406 -6.6875 9.191406 -4.597656 C 9.191406 -2.5 7.820312 -1.207031 6.191406 -1.207031 Z M 6.191406 -1.207031 "/></g></g></g><g fill="#000000" fill-opacity="1"><g transform="translate(23.807849, 19.773591)"><g><path d="M 1.648438 0 L 3.289062 0 L 3.289062 -14.390625 L 1.648438 -14.390625 Z M 1.648438 0 "/></g></g></g><g fill="#000000" fill-opacity="1"><g transform="translate(28.744258, 19.773591)"><g><path d="M 5.527344 0.1875 C 8.179688 0.1875 10.164062 -1.65625 10.164062 -4.609375 C 10.164062 -7.539062 8.1875 -9.394531 5.527344 -9.394531 C 2.875 -9.394531 0.890625 -7.539062 0.890625 -4.609375 C 0.890625 -1.65625 2.902344 0.1875 5.527344 0.1875 Z M 5.515625 -1.171875 C 3.8125 -1.171875 2.5 -2.519531 2.5 -4.609375 C 2.5 -6.6875 3.8125 -8.039062 5.515625 -8.039062 C 7.242188 -8.039062 8.5625 -6.6875 8.5625 -4.609375 C 8.5625 -2.519531 7.242188 -1.171875 5.515625 -1.171875 Z M 5.515625 -1.171875 "/></g></g></g><g fill="#000000" fill-opacity="1"><g transform="translate(39.797305, 19.773591)"><g><path d="M 3.773438 0.179688 C 4.898438 0.179688 6.042969 -0.226562 6.792969 -1.246094 L 6.867188 -1.246094 C 7.042969 -0.382812 7.671875 0 8.609375 0 L 9.414062 0 L 9.414062 -1.171875 L 9.265625 -1.171875 C 8.617188 -1.171875 8.328125 -1.386719 8.328125 -2.378906 L 8.328125 -6.183594 C 8.328125 -8.597656 6.640625 -9.367188 4.796875 -9.367188 C 2.753906 -9.367188 1.414062 -8.515625 1.132812 -6.734375 L 2.59375 -6.425781 C 2.746094 -7.652344 3.644531 -8.140625 4.722656 -8.140625 C 5.78125 -8.140625 6.753906 -7.671875 6.753906 -6.332031 C 6.753906 -5.863281 6.5 -5.582031 5.9375 -5.480469 L 4.449219 -5.238281 C 2.445312 -4.898438 0.964844 -4.253906 0.964844 -2.34375 C 0.964844 -0.582031 2.25 0.179688 3.773438 0.179688 Z M 4.148438 -1.132812 C 3.261719 -1.132812 2.546875 -1.515625 2.546875 -2.472656 C 2.546875 -3.382812 3.214844 -3.785156 4.441406 -3.992188 L 6.875 -4.460938 C 6.875 -2.371094 5.761719 -1.132812 4.148438 -1.132812 Z M 4.148438 -1.132812 "/></g></g></g><g fill="#000000" fill-opacity="1"><g transform="translate(49.848089, 19.773591)"><g><path d="M 8.449219 -14.390625 L 8.449219 -7.457031 C 7.859375 -8.636719 6.632812 -9.386719 5.207031 -9.386719 C 2.855469 -9.386719 0.898438 -7.503906 0.898438 -4.597656 C 0.898438 -1.6875 2.847656 0.195312 5.207031 0.195312 C 6.652344 0.195312 7.886719 -0.570312 8.46875 -1.789062 L 8.503906 0 L 10.070312 0 L 10.070312 -14.390625 Z M 5.546875 -1.207031 C 3.867188 -1.207031 2.519531 -2.546875 2.519531 -4.597656 C 2.519531 -6.652344 3.867188 -7.992188 5.546875 -7.992188 C 7.222656 -7.992188 8.550781 -6.539062 8.550781 -4.597656 C 8.550781 -2.660156 7.230469 -1.207031 5.546875 -1.207031 Z M 5.546875 -1.207031 "/></g></g></g><g fill="#000000" fill-opacity="1"><g transform="translate(5.974625, 46.02359)"><g><path d="M 6.511719 -9.386719 C 5.066406 -9.386719 3.832031 -8.617188 3.25 -7.417969 L 3.214844 -9.207031 L 1.648438 -9.207031 L 1.648438 4.722656 L 3.269531 4.722656 L 3.269531 -1.742188 C 3.859375 -0.5625 5.085938 0.195312 6.511719 0.195312 C 8.871094 0.195312 10.808594 -1.648438 10.808594 -4.597656 C 10.808594 -7.539062 8.871094 -9.386719 6.511719 -9.386719 Z M 6.191406 -1.207031 C 4.488281 -1.207031 3.148438 -2.660156 3.148438 -4.597656 C 3.148438 -6.527344 4.488281 -7.980469 6.191406 -7.980469 C 7.820312 -7.980469 9.191406 -6.6875 9.191406 -4.597656 C 9.191406 -2.5 7.820312 -1.207031 6.191406 -1.207031 Z M 6.191406 -1.207031 "/></g></g></g><g fill="#000000" fill-opacity="1"><g transform="translate(17.692734, 46.02359)"><g><path d="M 6.050781 -9.386719 C 4.824219 -9.386719 3.851562 -8.871094 3.269531 -7.992188 L 3.269531 -14.390625 L 1.648438 -14.390625 L 1.648438 0 L 3.269531 0 L 3.269531 -5.507812 C 3.277344 -7.269531 4.328125 -8.019531 5.546875 -8.019531 C 6.632812 -8.019531 7.558594 -7.410156 7.558594 -5.78125 L 7.558594 0 L 9.179688 0 L 9.179688 -6.089844 C 9.179688 -8.273438 7.886719 -9.386719 6.050781 -9.386719 Z M 6.050781 -9.386719 "/></g></g></g><g fill="#000000" fill-opacity="1"><g transform="translate(28.343005, 46.02359)"><g><path d="M 5.527344 0.1875 C 8.179688 0.1875 10.164062 -1.65625 10.164062 -4.609375 C 10.164062 -7.539062 8.1875 -9.394531 5.527344 -9.394531 C 2.875 -9.394531 0.890625 -7.539062 0.890625 -4.609375 C 0.890625 -1.65625 2.902344 0.1875 5.527344 0.1875 Z M 5.515625 -1.171875 C 3.8125 -1.171875 2.5 -2.519531 2.5 -4.609375 C 2.5 -6.6875 3.8125 -8.039062 5.515625 -8.039062 C 7.242188 -8.039062 8.5625 -6.6875 8.5625 -4.609375 C 8.5625 -2.519531 7.242188 -1.171875 5.515625 -1.171875 Z M 5.515625 -1.171875 "/></g></g></g><g fill="#000000" fill-opacity="1"><g transform="translate(39.396052, 46.02359)"><g><path d="M 4.589844 0 L 5.882812 0 L 5.882812 -1.292969 L 5.039062 -1.292969 C 4.300781 -1.292969 3.765625 -1.769531 3.765625 -2.667969 L 3.765625 -7.914062 L 5.882812 -7.914062 L 5.882812 -9.207031 L 3.765625 -9.207031 L 3.765625 -12.28125 L 2.257812 -12.28125 L 2.257812 -10.613281 C 2.257812 -9.601562 1.910156 -9.207031 0.945312 -9.207031 L 0.253906 -9.207031 L 0.253906 -7.914062 L 2.136719 -7.914062 L 2.136719 -2.5 C 2.136719 -0.910156 3.082031 0 4.589844 0 Z M 4.589844 0 "/></g></g></g><g fill="#000000" fill-opacity="1"><g transform="translate(45.971678, 46.02359)"><g><path d="M 5.527344 0.1875 C 8.179688 0.1875 10.164062 -1.65625 10.164062 -4.609375 C 10.164062 -7.539062 8.1875 -9.394531 5.527344 -9.394531 C 2.875 -9.394531 0.890625 -7.539062 0.890625 -4.609375 C 0.890625 -1.65625 2.902344 0.1875 5.527344 0.1875 Z M 5.515625 -1.171875 C 3.8125 -1.171875 2.5 -2.519531 2.5 -4.609375 C 2.5 -6.6875 3.8125 -8.039062 5.515625 -8.039062 C 7.242188 -8.039062 8.5625 -6.6875 8.5625 -4.609375 C 8.5625 -2.519531 7.242188 -1.171875 5.515625 -1.171875 Z M 5.515625 -1.171875 "/></g></g></g></g></g></g></svg>