<svg xmlns="http://www.w3.org/2000/svg" xmlns:xlink="http://www.w3.org/1999/xlink" width="500" zoomAndPan="magnify" viewBox="0 0 375 374.999991" height="500" preserveAspectRatio="xMidYMid meet" version="1.0"><path fill="#040606" d="M 19.347656 13.726562 C 18.273438 13.726562 17.398438 12.851562 17.398438 11.777344 C 17.398438 10.699219 18.273438 9.824219 19.347656 9.824219 C 20.425781 9.824219 21.300781 10.699219 21.300781 11.777344 C 21.300781 12.851562 20.425781 13.726562 19.347656 13.726562 Z M 13.5 13.726562 C 12.421875 13.726562 11.550781 12.851562 11.550781 11.777344 C 11.550781 10.699219 12.421875 9.824219 13.5 9.824219 C 14.578125 9.824219 15.449219 10.699219 15.449219 11.777344 C 15.449219 12.851562 14.578125 13.726562 13.5 13.726562 Z M 7.652344 13.726562 C 6.574219 13.726562 5.699219 12.851562 5.699219 11.777344 C 5.699219 10.699219 6.574219 9.824219 7.652344 9.824219 C 8.726562 9.824219 9.601562 10.699219 9.601562 11.777344 C 9.601562 12.851562 8.726562 13.726562 7.652344 13.726562 Z M 13.5 0.152344 C 6.042969 0.152344 0 5.355469 0 11.777344 C 0 14.289062 0.925781 16.613281 2.5 18.515625 C 2.945312 19.050781 3.097656 19.191406 3.097656 19.191406 C 3.578125 19.644531 3.894531 20.453125 3.792969 20.996094 C 3.695312 21.539062 3.613281 21.976562 3.613281 21.976562 L 2.886719 25.972656 C 2.769531 26.621094 3.117188 26.847656 3.664062 26.480469 L 7 24.230469 L 8.398438 23.28125 C 8.808594 23.007812 9.539062 22.863281 10.023438 22.96875 C 10.023438 22.96875 11.976562 23.398438 13.5 23.398438 C 20.953125 23.398438 27 18.195312 27 11.777344 C 27 5.355469 20.957031 0.152344 13.5 0.152344 " fill-opacity="1" fill-rule="nonzero"/></svg>