<svg xmlns="http://www.w3.org/2000/svg" xmlns:xlink="http://www.w3.org/1999/xlink" width="500" zoomAndPan="magnify" viewBox="0 0 375 374.999991" height="500" preserveAspectRatio="xMidYMid meet" version="1.0"><defs><filter x="0%" y="0%" width="100%" height="100%" id="e2421da554"><feColorMatrix values="0 0 0 0 1 0 0 0 0 1 0 0 0 0 1 0 0 0 1 0" color-interpolation-filters="sRGB"/></filter><mask id="95402fbba4"><g filter="url(#e2421da554)"><rect x="-37.5" width="450" fill="#000000" y="-37.499999" height="449.999989" fill-opacity="0.4"/></g></mask><clipPath id="e894a8f33b"><path d="M 0.644531 0.644531 L 37.394531 0.644531 L 37.394531 37.394531 L 0.644531 37.394531 Z M 0.644531 0.644531 " clip-rule="nonzero"/></clipPath><clipPath id="d26ddfe1a2"><rect x="0" width="38" y="0" height="38"/></clipPath></defs><g mask="url(#95402fbba4)"><g transform="matrix(1, 0, 0, 1, 0.000000000000000056, 0)"><g clip-path="url(#d26ddfe1a2)"><g clip-path="url(#e894a8f33b)"><path fill="#6aa3d7" d="M 19.007812 0.644531 C 19.015625 0.644531 19.023438 0.644531 19.035156 0.644531 C 19.949219 0.648438 20.777344 1.023438 21.378906 1.625 C 21.984375 2.230469 22.359375 3.0625 22.359375 3.984375 L 22.359375 15.679688 L 34.054688 15.679688 C 34.972656 15.679688 35.808594 16.054688 36.414062 16.660156 C 37.015625 17.261719 37.390625 18.089844 37.394531 19.007812 C 37.394531 19.015625 37.394531 19.023438 37.394531 19.035156 C 37.390625 19.949219 37.015625 20.777344 36.414062 21.378906 C 35.808594 21.984375 34.972656 22.359375 34.054688 22.359375 L 22.359375 22.359375 L 22.359375 34.054688 C 22.359375 34.972656 21.984375 35.808594 21.378906 36.414062 C 20.777344 37.015625 19.945312 37.390625 19.03125 37.394531 C 19.023438 37.394531 19.011719 37.394531 19.003906 37.394531 C 18.089844 37.390625 17.261719 37.015625 16.660156 36.414062 C 16.054688 35.808594 15.679688 34.972656 15.679688 34.054688 L 15.679688 22.359375 L 3.984375 22.359375 C 3.066406 22.359375 2.230469 21.984375 1.625 21.378906 C 1.023438 20.777344 0.648438 19.945312 0.644531 19.03125 C 0.644531 19.023438 0.644531 19.011719 0.644531 19.003906 C 0.648438 18.089844 1.023438 17.261719 1.625 16.660156 C 2.230469 16.054688 3.0625 15.679688 3.984375 15.679688 L 15.679688 15.679688 L 15.679688 3.984375 C 15.679688 3.066406 16.054688 2.230469 16.660156 1.625 C 17.261719 1.023438 18.089844 0.648438 19.007812 0.644531 " fill-opacity="1" fill-rule="nonzero"/></g></g></g></g></svg>