<svg xmlns="http://www.w3.org/2000/svg" xmlns:xlink="http://www.w3.org/1999/xlink" width="500" zoomAndPan="magnify" viewBox="0 0 375 374.999991" height="500" preserveAspectRatio="xMidYMid meet" version="1.0"><defs><clipPath id="d30f11561e"><path d="M 0 0 L 82.714844 0 L 82.714844 82.714844 L 0 82.714844 Z M 0 0 " clip-rule="nonzero"/></clipPath><clipPath id="626173b7b3"><path d="M 41.359375 0 C 18.515625 0 0 18.515625 0 41.359375 C 0 64.199219 18.515625 82.714844 41.359375 82.714844 C 64.199219 82.714844 82.714844 64.199219 82.714844 41.359375 C 82.714844 18.515625 64.199219 0 41.359375 0 " clip-rule="nonzero"/></clipPath><clipPath id="ae9349f9e2"><path d="M 7.105469 0.0664062 L 76.414062 0.0664062 L 76.414062 81.53125 L 7.105469 81.53125 Z M 7.105469 0.0664062 " clip-rule="nonzero"/></clipPath></defs><g clip-path="url(#d30f11561e)"><g clip-path="url(#626173b7b3)"><path fill="#eeeaea" d="M 0 0 L 82.714844 0 L 82.714844 82.714844 L 0 82.714844 Z M 0 0 " fill-opacity="1" fill-rule="nonzero"/></g></g><g clip-path="url(#ae9349f9e2)"><path fill="#000000" d="M 7.597656 69.941406 C 7.867188 70.535156 8.59375 70.917969 9.074219 71.328125 C 9.542969 71.726562 9.96875 72.023438 10.507812 72.222656 C 11.046875 73.042969 11.65625 73.792969 12.335938 74.503906 C 13.089844 75.296875 13.898438 76.019531 14.875 76.5 C 15.570312 76.839844 17.65625 77.707031 17.894531 76.386719 C 18.082031 75.367188 16.890625 74.445312 16.535156 73.582031 C 16.109375 72.519531 15.867188 71.328125 15.613281 70.210938 C 15.640625 70.167969 15.667969 70.125 15.699219 70.097656 C 15.867188 69.871094 16.082031 69.683594 16.28125 69.472656 C 16.578125 69.613281 16.890625 69.699219 17.1875 69.8125 C 17.8125 70.054688 18.09375 70.054688 18.546875 69.515625 C 19.9375 67.84375 21.34375 66.144531 22.621094 64.371094 C 23.285156 63.449219 23.710938 62.402344 24.476562 61.539062 C 25.042969 60.914062 25.980469 59.9375 26.804688 59.667969 C 26.832031 60.445312 26.960938 61.253906 26.960938 62.046875 C 26.960938 63.863281 27.230469 65.5625 27.230469 67.375 C 27.230469 68.269531 27.230469 69.105469 27.074219 69.96875 C 27 70.335938 26.960938 70.804688 27.03125 71.1875 C 27.085938 71.542969 27.214844 71.667969 27.441406 71.796875 C 27.425781 72.265625 27.414062 72.730469 27.398438 73.214844 C 27.058594 73.878906 26.730469 74.320312 26.816406 75.113281 C 26.875 75.664062 26.703125 76.726562 27.101562 77.152344 C 27.527344 77.59375 28.546875 77.449219 29.101562 77.523438 C 29.808594 77.605469 30.503906 77.480469 31.199219 77.550781 C 31.78125 77.605469 32.363281 77.75 32.945312 77.804688 L 32.40625 79.929688 C 32.292969 79.902344 32.191406 79.917969 32.136719 80.042969 C 32.066406 80.199219 32.066406 80.398438 32.007812 80.566406 C 31.9375 80.808594 31.765625 81.105469 32.050781 81.277344 C 32.234375 81.390625 32.632812 81.53125 32.832031 81.390625 C 33.03125 81.25 33.058594 80.894531 33.15625 80.667969 C 33.285156 80.382812 33.328125 80.144531 33.058594 80.015625 L 33.625 77.777344 C 34.617188 77.863281 35.570312 77.863281 36.5625 77.777344 C 37.414062 77.707031 38.503906 77.875 39.285156 77.449219 C 40.164062 76.96875 39.910156 76.046875 39.113281 75.636719 C 38.363281 75.253906 37.511719 75.183594 36.761719 74.785156 C 36.066406 74.417969 35.382812 74.035156 34.703125 73.652344 L 34.6875 73.652344 L 38.363281 59.355469 C 38.488281 59.398438 38.632812 59.425781 38.773438 59.425781 C 38.945312 59.441406 39.101562 59.453125 39.214844 59.296875 C 39.296875 59.199219 39.398438 59.03125 39.398438 58.886719 C 39.410156 58.703125 39.296875 58.617188 39.183594 58.492188 C 39.140625 58.449219 39.113281 58.390625 39.070312 58.335938 C 39.140625 58.335938 39.199219 58.320312 39.257812 58.320312 C 39.46875 58.277344 39.582031 57.964844 39.511719 57.753906 C 39.453125 57.582031 39.199219 57.429688 39.058594 57.328125 L 39.640625 55.105469 C 39.738281 55.203125 39.992188 55.175781 40.136719 55.1875 C 40.136719 55.316406 40.234375 55.429688 40.363281 55.488281 C 40.488281 55.542969 40.632812 55.542969 40.773438 55.542969 L 37.683594 71.753906 C 37.46875 71.824219 37.46875 72.109375 37.425781 72.335938 C 37.382812 72.546875 37.257812 72.902344 37.484375 73.058594 C 37.640625 73.15625 38.035156 73.214844 38.207031 73.144531 C 38.417969 73.042969 38.40625 72.71875 38.460938 72.519531 C 38.53125 72.265625 38.617188 72.050781 38.40625 71.867188 L 41.640625 55.515625 C 41.738281 55.527344 41.851562 55.5 41.921875 55.402344 C 41.992188 55.289062 42.007812 55.117188 42.050781 54.992188 C 42.09375 54.847656 42.121094 54.691406 42.136719 54.550781 C 42.164062 54.394531 42.207031 54.226562 42.191406 54.070312 C 42.175781 53.929688 42.09375 53.886719 41.980469 53.871094 L 43.539062 46.019531 C 43.695312 46.375 44.121094 46.488281 44.289062 46.078125 C 44.460938 45.695312 44.433594 45.085938 44.503906 44.660156 C 44.617188 43.996094 45.058594 42.476562 44.191406 42.082031 L 44.363281 41.316406 C 44.460938 41.375 44.589844 41.34375 44.644531 41.246094 C 44.800781 40.992188 44.800781 40.652344 44.902344 40.367188 C 44.945312 40.238281 45.015625 40.070312 44.945312 39.929688 C 44.902344 39.855469 44.800781 39.773438 44.703125 39.742188 L 47.90625 25.164062 L 48.148438 40.890625 C 48.304688 40.949219 48.476562 40.917969 48.632812 40.917969 C 48.800781 40.917969 48.972656 40.90625 49.128906 40.890625 L 48.929688 22.527344 C 49.199219 22.539062 49.4375 22.613281 49.679688 22.683594 C 49.59375 22.765625 49.539062 22.851562 49.609375 22.980469 C 49.695312 23.136719 49.835938 23.25 49.921875 23.40625 C 50.019531 23.589844 49.992188 23.71875 49.964844 23.929688 C 49.90625 24.285156 50.121094 24.609375 50.246094 24.9375 C 50.375 24.964844 50.476562 24.878906 50.574219 24.824219 L 58.089844 40.410156 C 58.019531 40.4375 57.964844 40.453125 57.921875 40.523438 C 57.863281 40.621094 57.921875 40.707031 57.964844 40.792969 C 58.121094 41.089844 58.175781 41.429688 58.347656 41.714844 C 58.417969 41.828125 58.503906 42.023438 58.601562 42.109375 C 58.714844 42.222656 58.828125 42.109375 58.957031 42.097656 L 65.351562 55.855469 C 65.226562 55.925781 65.226562 56.066406 65.28125 56.210938 C 65.410156 56.519531 65.566406 56.804688 65.734375 57.089844 C 65.890625 57.355469 66.035156 57.738281 66.359375 57.710938 L 75.109375 76.089844 C 74.855469 76.261719 75.039062 76.585938 75.167969 76.8125 C 75.253906 76.996094 75.367188 77.253906 75.605469 77.222656 C 75.71875 77.210938 75.847656 77.140625 75.949219 77.082031 C 76.0625 77.027344 76.1875 76.984375 76.257812 76.882812 C 76.402344 76.671875 76.203125 76.375 76.132812 76.175781 C 76.089844 76.0625 76.046875 75.921875 75.960938 75.847656 C 75.890625 75.792969 75.804688 75.808594 75.71875 75.847656 L 66.96875 57.371094 C 67.027344 57.316406 67.070312 57.203125 67.070312 57.128906 C 67.183594 57.101562 67.394531 57.117188 67.480469 57.003906 C 67.636719 56.820312 67.421875 56.335938 67.339844 56.152344 C 67.183594 55.839844 66.984375 55.925781 66.785156 56.097656 C 66.769531 56.066406 66.757812 56.054688 66.757812 56.023438 C 66.671875 55.839844 66.558594 55.683594 66.445312 55.515625 C 66.375 55.414062 66.34375 55.386719 66.230469 55.429688 C 66.191406 55.445312 66.148438 55.472656 66.105469 55.5 L 59.890625 41.796875 C 60.003906 41.753906 60.148438 41.742188 60.234375 41.65625 C 60.347656 41.542969 60.316406 41.359375 60.289062 41.21875 C 60.261719 41.0625 60.191406 40.933594 60.121094 40.792969 C 60.0625 40.679688 60.019531 40.523438 59.878906 40.480469 C 59.734375 40.4375 59.652344 40.507812 59.621094 40.609375 C 59.550781 40.464844 59.453125 40.339844 59.382812 40.210938 C 59.28125 40.011719 59.199219 39.886719 59 39.96875 L 51.566406 24.339844 C 51.808594 24.226562 51.550781 23.886719 51.46875 23.703125 C 51.398438 23.5625 51.355469 23.40625 51.269531 23.277344 C 51.226562 23.207031 51.167969 23.050781 51.097656 22.964844 C 51.269531 22.839844 51.269531 22.582031 51.140625 22.414062 C 51.027344 22.242188 50.785156 22.085938 50.601562 21.988281 C 50.558594 21.875 50.476562 21.777344 50.402344 21.691406 C 50.320312 21.589844 50.105469 21.363281 49.964844 21.308594 C 49.992188 21.238281 50.007812 21.152344 50.007812 21.09375 C 50.019531 20.769531 49.792969 20.5 49.59375 20.273438 C 49.496094 20.160156 49.382812 20.0625 49.285156 19.949219 C 49.210938 19.863281 49.15625 19.777344 49.097656 19.679688 C 49.128906 19.507812 49.15625 19.265625 49.171875 19.082031 C 49.339844 19.125 49.539062 19.152344 49.636719 18.96875 C 49.738281 18.785156 49.707031 18.515625 49.695312 18.316406 C 49.652344 17.808594 49.382812 17.496094 48.902344 17.46875 C 48.714844 17.453125 48.503906 17.425781 48.304688 17.398438 C 48.320312 17.339844 48.320312 17.285156 48.320312 17.242188 C 48.332031 17.070312 48.375 16.914062 48.390625 16.757812 C 48.445312 16.730469 48.503906 16.703125 48.546875 16.6875 C 48.660156 16.617188 48.773438 16.53125 48.828125 16.40625 C 48.902344 16.25 48.984375 15.980469 49.015625 15.765625 C 49.085938 15.765625 49.140625 15.765625 49.210938 15.753906 C 49.3125 15.738281 49.496094 15.765625 49.582031 15.710938 C 49.695312 15.640625 49.707031 15.355469 49.722656 15.15625 C 49.808594 15.128906 49.894531 15.058594 49.949219 14.960938 C 50.234375 14.492188 50.148438 13.839844 49.894531 13.386719 C 49.992188 13.273438 50.078125 13.175781 50.148438 13.03125 C 50.347656 12.621094 50.445312 12.183594 50.601562 11.757812 C 50.6875 11.53125 50.757812 11.304688 50.84375 11.078125 C 50.898438 10.921875 50.957031 10.78125 50.984375 10.625 C 51.15625 10.636719 51.339844 10.652344 51.480469 10.667969 C 51.851562 10.695312 52.007812 10.695312 52.515625 10.765625 C 52.671875 10.78125 52.957031 10.820312 53.113281 10.78125 C 53.242188 10.75 53.253906 10.652344 53.28125 10.554688 C 53.410156 10.722656 53.679688 10.808594 53.851562 10.78125 C 54.078125 10.765625 54.234375 10.667969 54.390625 10.539062 C 54.460938 10.625 54.558594 10.679688 54.6875 10.707031 C 54.800781 10.738281 54.914062 10.78125 55.027344 10.792969 C 55.085938 10.808594 55.167969 10.792969 55.253906 10.792969 L 55.539062 7.492188 C 55.226562 7.449219 54.816406 7.433594 54.574219 7.660156 C 54.488281 7.28125 53.851562 7.195312 53.582031 7.476562 C 53.550781 7.238281 53.480469 7.082031 53.199219 7.050781 C 52.929688 7.039062 52.644531 7.023438 52.375 6.996094 C 51.820312 6.953125 51.253906 6.769531 50.6875 6.839844 C 50.488281 6.867188 50.320312 6.96875 50.164062 7.082031 C 50.09375 6.996094 49.992188 6.910156 49.878906 6.882812 C 50.207031 6.527344 50.09375 5.847656 49.652344 5.621094 C 49.398438 5.492188 49.097656 5.4375 48.828125 5.351562 C 48.558594 5.28125 48.234375 5.195312 47.949219 5.308594 C 47.710938 5.410156 47.59375 5.679688 47.480469 5.90625 C 47.226562 5.835938 46.902344 5.679688 46.828125 6.03125 C 46.800781 6.1875 46.789062 6.34375 46.789062 6.5 C 46.789062 6.628906 46.730469 6.867188 46.789062 6.996094 C 46.828125 7.109375 46.957031 7.136719 47.085938 7.136719 L 46.957031 8.457031 C 46.914062 8.398438 46.859375 8.355469 46.800781 8.34375 C 46.589844 8.285156 46.574219 8.511719 46.53125 8.683594 C 46.488281 8.851562 46.417969 9.007812 46.320312 9.148438 C 46.21875 9.292969 46.078125 9.40625 46.035156 9.589844 C 46.019531 9.675781 46.007812 9.789062 46.007812 9.902344 C 46.007812 10.339844 45.90625 10.75 45.9375 11.191406 C 45.964844 11.585938 46.261719 11.898438 46.363281 12.265625 C 46.390625 12.410156 46.445312 12.566406 46.476562 12.707031 C 46.375 12.691406 46.277344 12.679688 46.207031 12.722656 C 46.078125 12.792969 46.078125 12.988281 46.0625 13.117188 C 46.035156 13.34375 45.9375 13.824219 46.09375 13.996094 C 46.175781 14.082031 46.304688 14.09375 46.417969 14.09375 C 46.390625 14.25 46.304688 14.421875 46.277344 14.5625 C 46.21875 14.804688 46.164062 15.058594 46.078125 15.285156 C 46.050781 15.371094 46.019531 15.46875 45.992188 15.554688 L 44.914062 15.726562 L 44.828125 15.015625 L 41.824219 15.386719 L 42.023438 17.058594 L 45.027344 16.6875 L 44.957031 16.023438 L 45.894531 15.878906 C 45.808594 16.136719 45.722656 16.390625 45.609375 16.632812 C 45.539062 16.800781 45.453125 16.957031 45.382812 17.128906 C 45.085938 17.113281 44.714844 17.015625 44.503906 17.226562 C 44.277344 17.46875 44.234375 17.933594 44.363281 18.234375 C 44.40625 18.332031 44.460938 18.417969 44.519531 18.503906 C 44.363281 18.644531 44.21875 18.828125 44.09375 18.96875 C 43.980469 19.097656 43.824219 19.226562 43.710938 19.382812 C 43.523438 19.367188 43.339844 19.367188 43.15625 19.339844 C 42.957031 19.308594 42.746094 19.28125 42.546875 19.28125 C 42.390625 18.957031 42.105469 18.445312 42.023438 18.289062 C 41.910156 18.089844 40.929688 16.136719 40.773438 15.652344 C 40.632812 15.242188 40.546875 13.882812 40.261719 13.019531 C 40.332031 12.976562 40.390625 12.949219 40.433594 12.917969 C 40.746094 12.734375 41.042969 12.507812 41.269531 12.210938 C 41.441406 12 41.640625 11.828125 41.792969 11.617188 C 41.949219 11.671875 42.09375 11.714844 42.25 11.769531 C 42.800781 11.925781 43.539062 12.125 44.105469 11.984375 C 44.644531 11.855469 44.632812 11.132812 44.6875 10.636719 C 44.828125 10.609375 44.972656 10.539062 45.027344 10.382812 C 45.070312 10.253906 45.015625 10.097656 44.945312 9.972656 C 45.128906 9.957031 45.285156 9.902344 45.296875 9.660156 C 45.3125 9.476562 45.171875 9.136719 45.253906 8.9375 C 45.453125 8.9375 45.652344 8.9375 45.851562 8.894531 C 46.460938 8.765625 46.175781 8.214844 45.9375 7.859375 C 45.695312 7.519531 45.46875 7.222656 45.398438 6.824219 C 45.496094 6.726562 45.566406 6.613281 45.636719 6.484375 C 45.851562 6.101562 45.75 5.550781 45.75 5.125 C 45.75 4.882812 45.792969 4.617188 45.792969 4.347656 C 46.035156 4.160156 46.234375 3.933594 46.289062 3.609375 C 46.363281 3.183594 46.402344 2.632812 46.234375 2.25 C 45.851562 1.398438 44.929688 1.144531 44.136719 0.902344 C 43.140625 0.605469 42.105469 0.421875 41.101562 0.28125 C 40.191406 0.152344 39.15625 0.0664062 38.320312 0.5625 C 37.695312 0.945312 37.269531 1.597656 37.371094 2.335938 C 37.042969 2.503906 36.832031 2.871094 36.660156 3.199219 C 36.40625 3.652344 36.40625 4.148438 36.40625 4.671875 C 36.417969 5.226562 36.53125 5.777344 36.589844 6.328125 C 36.644531 6.882812 36.589844 7.394531 36.546875 7.945312 C 36.519531 8.242188 36.492188 8.597656 36.589844 8.894531 C 35.453125 8.851562 34.347656 9.261719 33.3125 9.730469 C 32.789062 9.972656 32.191406 10.4375 31.738281 10.820312 C 31.371094 11.132812 31 11.332031 30.71875 11.730469 C 30.546875 11.957031 30.378906 12.183594 30.234375 12.421875 C 29.527344 13.101562 28.703125 14.023438 28.433594 14.5625 C 27.882812 15.640625 27.128906 16.6875 26.703125 17.820312 C 25.851562 20.105469 25.214844 22.527344 24.675781 24.90625 C 24.433594 25.984375 24.050781 27.0625 23.78125 28.109375 C 23.640625 28.351562 23.46875 28.589844 23.328125 28.832031 C 23.015625 29.3125 22.875 29.851562 22.589844 30.335938 C 22.320312 30.800781 21.953125 31.015625 21.78125 31.582031 C 21.65625 31.992188 21.753906 32.277344 21.882812 32.546875 C 21.726562 32.957031 21.554688 33.382812 21.441406 33.777344 C 21.386719 33.949219 21.355469 34.144531 21.316406 34.34375 C 20.804688 34.558594 20.449219 35.292969 20.378906 35.789062 C 20.265625 36.527344 20.394531 37.347656 20.433594 38.101562 C 20.535156 39.574219 20.988281 40.75 21.710938 42.023438 C 21.8125 42.195312 21.910156 42.351562 22.007812 42.492188 C 22.023438 43.144531 22.082031 43.78125 22.277344 44.390625 C 22.492188 45.027344 22.804688 45.597656 23.03125 46.207031 C 23.542969 47.550781 23.5 49.109375 23.753906 50.511719 C 23.839844 50.980469 23.839844 51.503906 23.894531 52 C 23.769531 52.257812 23.570312 52.554688 23.484375 52.695312 C 23.285156 53.050781 23.074219 53.402344 22.847656 53.757812 C 22.648438 54.070312 22.351562 54.394531 22.179688 54.722656 C 22.179688 54.734375 22.164062 54.75 22.164062 54.75 C 21.285156 55.273438 20.433594 56.011719 19.839844 56.832031 C 19.5 57.300781 19.316406 57.8125 18.902344 58.222656 C 18.464844 58.660156 18.066406 59.214844 17.699219 59.710938 C 17.398438 60.105469 17.058594 60.488281 16.71875 60.855469 C 16.308594 61.3125 15.839844 61.609375 15.414062 62.046875 C 14.605469 62.882812 14.136719 63.804688 13.117188 64.457031 C 12.71875 64.710938 11.96875 64.8125 11.683594 65.222656 C 11.402344 65.648438 11.785156 66.128906 11.882812 66.609375 C 11.671875 66.765625 11.429688 66.949219 11.246094 67.121094 C 10.777344 66.710938 10.335938 67.019531 9.742188 67.417969 C 9.074219 67.871094 7.117188 68.863281 7.597656 69.941406 Z M 45.921875 25.742188 C 45.921875 25.6875 45.921875 25.628906 45.921875 25.585938 C 45.9375 25.332031 45.980469 25.078125 45.992188 24.835938 C 46.007812 24.636719 46.078125 24.453125 46.105469 24.253906 C 46.148438 24.269531 46.191406 24.296875 46.234375 24.3125 C 46.277344 24.328125 46.347656 24.355469 46.402344 24.382812 C 46.363281 24.453125 46.320312 24.511719 46.289062 24.566406 C 46.234375 24.679688 46.207031 24.792969 46.164062 24.90625 C 46.09375 25.164062 46.019531 25.402344 45.9375 25.660156 C 45.949219 25.6875 45.9375 25.714844 45.921875 25.742188 Z M 42.6875 39.105469 C 42.476562 38.609375 42.078125 37.988281 41.910156 37.605469 C 41.296875 36.1875 41.214844 34.742188 40.789062 33.269531 C 40.589844 32.546875 40.433594 31.78125 40.25 31.070312 C 40.121094 30.589844 39.980469 29.769531 39.609375 29.34375 C 39.679688 29.015625 39.753906 28.691406 39.753906 28.308594 C 39.753906 27.203125 39.652344 26.140625 39.425781 25.089844 C 39.3125 24.582031 39.171875 24.113281 39.042969 23.617188 C 39.015625 23.503906 39 23.234375 38.972656 22.9375 C 39.085938 23.109375 39.183594 23.261719 39.3125 23.417969 C 39.992188 24.355469 40.644531 25.429688 41.667969 26.027344 C 42.773438 26.679688 43.652344 25.914062 44.503906 25.234375 C 44.347656 25.601562 44.25 25.984375 44.136719 26.382812 C 43.992188 26.863281 43.792969 27.273438 43.554688 27.699219 C 43.453125 27.867188 43.339844 28.066406 43.367188 28.28125 C 43.398438 28.492188 43.566406 28.632812 43.710938 28.777344 C 43.867188 28.917969 44.023438 29.117188 44.207031 29.199219 C 44.390625 29.285156 44.558594 29.1875 44.703125 29.058594 C 45 28.777344 45.199219 28.40625 45.398438 28.054688 Z M 39.910156 54.183594 L 41.566406 47.890625 C 41.722656 48.117188 41.921875 48.203125 42.175781 48.289062 L 41.140625 53.703125 C 40.945312 53.671875 40.6875 53.644531 40.503906 53.6875 C 40.390625 53.714844 40.320312 53.816406 40.277344 53.929688 C 40.25 53.984375 40.25 54.042969 40.234375 54.113281 C 40.21875 54.210938 40.234375 54.183594 40.148438 54.195312 C 40.09375 54.183594 39.992188 54.167969 39.910156 54.183594 Z M 33.484375 71.710938 C 33.808594 71.699219 34.234375 71.554688 34.53125 71.542969 L 34.136719 73.144531 C 33.992188 73.015625 33.808594 72.902344 33.710938 72.730469 C 33.539062 72.492188 33.414062 71.980469 33.484375 71.710938 Z M 31.457031 35.363281 C 31.527344 34.980469 31.613281 34.585938 31.667969 34.1875 C 32.136719 34.105469 32.5625 33.765625 32.648438 33.308594 C 32.773438 32.628906 32.589844 31.808594 32.746094 31.128906 C 32.875 30.589844 33.398438 30.023438 33.625 29.511719 C 33.894531 28.917969 34.222656 28.378906 34.503906 27.828125 C 34.773438 27.300781 35.042969 26.664062 35.382812 26.152344 C 35.652344 27.03125 35.738281 28.09375 35.921875 28.917969 C 36.121094 29.78125 36.121094 30.675781 36.40625 31.511719 C 36.335938 32.84375 37.46875 34.359375 37.964844 35.5625 C 38.5625 37.023438 39.554688 38.171875 40.136719 39.601562 C 40.449219 40.351562 40.789062 41.117188 40.929688 41.898438 C 40.945312 41.96875 40.957031 42.039062 40.972656 42.125 C 41.015625 42.167969 40.914062 42.097656 40.902344 42.082031 C 40.789062 42.605469 40.546875 43.144531 40.519531 43.640625 C 40.476562 44.390625 40.703125 44.816406 41.101562 45.328125 L 38.207031 57.160156 C 38.136719 57.160156 38.050781 57.160156 38.007812 57.171875 C 37.910156 57.1875 37.824219 57.257812 37.78125 57.355469 C 37.722656 57.484375 37.710938 57.65625 37.710938 57.8125 C 37.582031 57.796875 37.453125 57.78125 37.355469 57.824219 C 37.199219 57.882812 37.171875 58.039062 37.15625 58.191406 C 37.128906 58.460938 36.988281 58.914062 37.269531 59.101562 C 37.371094 59.15625 37.496094 59.183594 37.609375 59.199219 L 34.972656 69.742188 C 34.914062 69.304688 34.800781 68.835938 34.773438 68.523438 C 34.746094 68.226562 34.546875 67.09375 34.40625 66.738281 C 34.40625 66.453125 34.390625 66.183594 34.390625 65.917969 C 34.390625 64.667969 33.964844 63.519531 33.695312 62.332031 C 33.554688 61.707031 33.484375 61.070312 33.355469 60.445312 C 33.242188 59.894531 32.886719 59.398438 32.71875 58.875 C 32.832031 58.25 32.832031 57.511719 32.875 57.046875 C 32.945312 56.167969 33.257812 55.359375 33.257812 54.464844 C 33.257812 53.628906 33.269531 52.824219 33.171875 52 C 33.070312 51.191406 32.816406 50.429688 32.773438 49.621094 C 32.6875 47.878906 32.605469 46.09375 32.800781 44.347656 C 32.988281 42.675781 32.703125 41.144531 32.546875 39.503906 C 32.476562 38.695312 32.347656 37.972656 32.148438 37.179688 C 32.050781 36.753906 31.910156 35.578125 31.457031 35.363281 Z M 31.457031 35.363281 " fill-opacity="1" fill-rule="nonzero"/></g></svg>