<svg xmlns="http://www.w3.org/2000/svg" xmlns:xlink="http://www.w3.org/1999/xlink" width="500" zoomAndPan="magnify" viewBox="0 0 375 374.999991" height="500" preserveAspectRatio="xMidYMid meet" version="1.0"><defs><clipPath id="f4141ebb6f"><path d="M 0 0 L 82.074219 0 L 82.074219 82.074219 L 0 82.074219 Z M 0 0 " clip-rule="nonzero"/></clipPath><clipPath id="7d5cca560c"><path d="M 41.039062 0 C 18.375 0 0 18.375 0 41.039062 C 0 63.703125 18.375 82.074219 41.039062 82.074219 C 63.703125 82.074219 82.074219 63.703125 82.074219 41.039062 C 82.074219 18.375 63.703125 0 41.039062 0 " clip-rule="nonzero"/></clipPath><clipPath id="37735fdca4"><path d="M 11.054688 45.339844 L 67.753906 45.339844 L 67.753906 67.761719 L 11.054688 67.761719 Z M 11.054688 45.339844 " clip-rule="nonzero"/></clipPath><clipPath id="db44283443"><path d="M 26 9.246094 L 53 9.246094 L 53 23 L 26 23 Z M 26 9.246094 " clip-rule="nonzero"/></clipPath><clipPath id="fb71ea6b95"><path d="M 11.054688 22.191406 L 31.894531 22.191406 L 31.894531 67.761719 L 11.054688 67.761719 Z M 11.054688 22.191406 " clip-rule="nonzero"/></clipPath><clipPath id="42fb19a091"><path d="M 11.054688 47.175781 L 39.496094 47.175781 L 39.496094 67.761719 L 11.054688 67.761719 Z M 11.054688 47.175781 " clip-rule="nonzero"/></clipPath><clipPath id="f28a61181b"><path d="M 26 9.246094 L 40 9.246094 L 40 23 L 26 23 Z M 26 9.246094 " clip-rule="nonzero"/></clipPath></defs><g clip-path="url(#f4141ebb6f)"><g clip-path="url(#7d5cca560c)"><path fill="#3861f2" d="M 0 0 L 82.074219 0 L 82.074219 82.074219 L 0 82.074219 Z M 0 0 " fill-opacity="1" fill-rule="nonzero"/></g></g><g clip-path="url(#37735fdca4)"><path fill="#a7e5ea" d="M 59.570312 49.859375 L 39.402344 45.34375 L 19.238281 49.859375 C 16.339844 50.507812 14.09375 52.804688 13.5 55.722656 L 11.054688 67.761719 L 67.753906 67.761719 L 65.304688 55.722656 C 64.714844 52.804688 62.464844 50.507812 59.570312 49.859375 " fill-opacity="1" fill-rule="nonzero"/></g><path fill="#da923e" d="M 47.601562 47.195312 C 42.292969 51.566406 36.832031 51.695312 31.203125 47.195312 L 32.488281 37.035156 L 46.316406 37.035156 L 47.601562 47.195312 " fill-opacity="1" fill-rule="nonzero"/><path fill="#eb9c48" d="M 49.878906 33.765625 L 50.402344 24.273438 L 52.636719 24.398438 C 53.683594 24.453125 54.484375 25.351562 54.425781 26.402344 L 54.234375 29.851562 C 54.109375 32.140625 52.160156 33.894531 49.878906 33.765625 " fill-opacity="1" fill-rule="nonzero"/><path fill="#eb9c48" d="M 28.925781 33.765625 L 28.402344 24.273438 L 26.171875 24.398438 C 25.125 24.453125 24.324219 25.351562 24.378906 26.402344 L 24.570312 29.851562 C 24.695312 32.140625 26.648438 33.894531 28.925781 33.765625 " fill-opacity="1" fill-rule="nonzero"/><path fill="#663124" d="M 26.570312 24.988281 C 26.570312 16.097656 32.316406 10.535156 39.402344 10.535156 C 46.488281 10.535156 52.234375 16.097656 52.234375 24.988281 C 52.234375 25.386719 51.402344 33.179688 51.34375 33.5625 C 50.511719 39.179688 43.429688 44.785156 39.402344 44.785156 C 35.238281 44.785156 28.296875 39.453125 27.507812 33.984375 C 27.433594 33.460938 26.570312 25.527344 26.570312 24.988281 " fill-opacity="1" fill-rule="nonzero"/><path fill="#eb9c48" d="M 36.207031 39.90625 C 35.175781 39.910156 34.46875 38.824219 34.929688 37.902344 C 35.664062 36.433594 37.179688 35.425781 38.925781 35.425781 C 40.65625 35.425781 42.15625 36.421875 42.882812 37.871094 C 43.34375 38.789062 42.644531 39.871094 41.621094 39.875 L 36.207031 39.90625 " fill-opacity="1" fill-rule="nonzero"/><path fill="#eb9c48" d="M 28.714844 29.257812 L 29.257812 22.628906 C 29.417969 20.699219 31.316406 19.410156 33.160156 19.976562 L 39.332031 21.878906 L 45.433594 19.984375 C 47.277344 19.414062 49.175781 20.699219 49.339844 22.632812 L 49.878906 29.078125 C 49.878906 30.960938 49.046875 32.75 47.613281 33.960938 L 46.664062 34.757812 C 45.90625 35.398438 45.46875 36.339844 45.46875 37.332031 C 45.46875 38.492188 45.46875 39.878906 45.46875 39.878906 C 45.46875 40.074219 45.3125 40.230469 45.121094 40.230469 C 44.929688 40.230469 44.773438 40.074219 44.773438 39.878906 L 44.773438 39.527344 C 44.773438 37.449219 44.101562 35.429688 42.859375 33.765625 L 35.160156 33.765625 C 34.023438 35.378906 33.414062 37.304688 33.414062 39.28125 L 33.414062 39.878906 C 33.414062 40.074219 33.257812 40.230469 33.066406 40.230469 C 32.875 40.230469 32.71875 40.074219 32.71875 39.878906 C 32.71875 39.878906 32.71875 38.363281 32.71875 37.167969 C 32.71875 36.273438 32.347656 35.417969 31.691406 34.808594 L 30.753906 33.941406 C 29.453125 32.734375 28.714844 31.039062 28.714844 29.257812 " fill-opacity="1" fill-rule="nonzero"/><g clip-path="url(#db44283443)"><path fill="#a7e5ea" d="M 26.246094 22.632812 L 26.285156 22.0625 C 26.785156 14.429688 32.289062 9.246094 39.402344 9.246094 C 46.515625 9.246094 52.019531 14.429688 52.519531 22.0625 L 52.558594 22.632812 C 43.734375 15.644531 34.960938 15.242188 26.246094 22.632812 " fill-opacity="1" fill-rule="nonzero"/></g><path fill="#72909c" d="M 37.695312 59.25 L 40.894531 59.25 L 40.894531 50.40625 L 37.695312 50.40625 Z M 37.695312 59.25 " fill-opacity="1" fill-rule="nonzero"/><g clip-path="url(#fb71ea6b95)"><path fill="#ece7e5" d="M 11.054688 67.761719 L 13.5 55.722656 C 13.785156 54.316406 14.457031 53.054688 15.398438 52.050781 C 14.457031 53.054688 13.785156 54.316406 13.5 55.722656 L 11.054688 67.761719 M 31.207031 47.179688 L 31.890625 41.75 L 31.207031 47.179688 M 27.53125 34.132812 L 27.53125 34.132812 M 27.53125 34.125 L 27.53125 34.125 M 27.53125 34.117188 C 27.53125 34.117188 27.53125 34.117188 27.527344 34.117188 C 27.53125 34.117188 27.53125 34.117188 27.53125 34.117188 M 27.527344 34.109375 L 27.527344 34.109375 M 27.527344 34.101562 L 27.527344 34.101562 M 27.527344 34.09375 L 27.527344 34.09375 M 27.523438 34.085938 L 27.523438 34.085938 M 27.523438 34.078125 L 27.523438 34.078125 M 27.523438 34.074219 C 27.523438 34.070312 27.523438 34.070312 27.523438 34.066406 C 27.523438 34.070312 27.523438 34.070312 27.523438 34.074219 M 27.519531 34.066406 C 27.519531 34.0625 27.519531 34.0625 27.519531 34.058594 C 27.519531 34.0625 27.519531 34.0625 27.519531 34.066406 M 27.519531 34.058594 C 27.519531 34.054688 27.519531 34.054688 27.519531 34.050781 C 27.519531 34.054688 27.519531 34.054688 27.519531 34.058594 M 27.519531 34.050781 C 27.519531 34.046875 27.519531 34.046875 27.519531 34.042969 C 27.519531 34.046875 27.519531 34.046875 27.519531 34.050781 M 27.515625 34.042969 C 27.515625 34.039062 27.515625 34.039062 27.515625 34.035156 C 27.515625 34.039062 27.515625 34.039062 27.515625 34.042969 M 27.515625 34.03125 C 27.515625 34.03125 27.515625 34.03125 27.515625 34.027344 C 27.515625 34.03125 27.515625 34.03125 27.515625 34.03125 M 27.515625 34.023438 C 27.515625 34.023438 27.515625 34.023438 27.515625 34.019531 C 27.515625 34.023438 27.515625 34.023438 27.515625 34.023438 M 27.515625 34.015625 C 27.515625 34.015625 27.511719 34.015625 27.511719 34.011719 C 27.511719 34.015625 27.511719 34.015625 27.515625 34.015625 M 27.511719 34.007812 C 27.511719 34.007812 27.511719 34.007812 27.511719 34.003906 C 27.511719 34.007812 27.511719 34.007812 27.511719 34.007812 M 27.511719 34 C 27.511719 34 27.511719 33.996094 27.511719 33.996094 C 27.511719 33.996094 27.511719 34 27.511719 34 M 27.511719 33.992188 C 27.511719 33.992188 27.507812 33.988281 27.507812 33.984375 C 27.507812 33.988281 27.511719 33.992188 27.511719 33.992188 M 24.574219 29.925781 L 24.574219 29.925781 M 24.574219 29.921875 C 24.574219 29.921875 24.574219 29.917969 24.574219 29.917969 C 24.574219 29.917969 24.574219 29.921875 24.574219 29.921875 M 24.574219 29.914062 L 24.574219 29.914062 M 24.574219 29.910156 C 24.574219 29.90625 24.574219 29.90625 24.574219 29.902344 C 24.574219 29.90625 24.574219 29.90625 24.574219 29.910156 M 24.574219 29.902344 C 24.574219 29.902344 24.574219 29.898438 24.574219 29.898438 C 24.574219 29.898438 24.574219 29.902344 24.574219 29.902344 M 24.574219 29.894531 C 24.574219 29.894531 24.574219 29.894531 24.574219 29.890625 C 24.574219 29.894531 24.574219 29.894531 24.574219 29.894531 M 24.574219 29.890625 C 24.574219 29.886719 24.574219 29.886719 24.574219 29.886719 C 24.574219 29.886719 24.574219 29.886719 24.574219 29.890625 M 24.574219 29.882812 C 24.570312 29.882812 24.570312 29.878906 24.570312 29.878906 C 24.570312 29.878906 24.570312 29.882812 24.574219 29.882812 M 24.570312 29.878906 C 24.570312 29.875 24.570312 29.875 24.570312 29.871094 C 24.570312 29.875 24.570312 29.875 24.570312 29.878906 M 24.570312 29.871094 C 24.570312 29.867188 24.570312 29.867188 24.570312 29.867188 C 24.570312 29.867188 24.570312 29.867188 24.570312 29.871094 M 24.570312 29.863281 C 24.570312 29.863281 24.570312 29.859375 24.570312 29.859375 C 24.570312 29.859375 24.570312 29.863281 24.570312 29.863281 M 24.570312 29.859375 C 24.570312 29.855469 24.570312 29.855469 24.570312 29.851562 L 24.378906 26.402344 C 24.328125 25.453125 24.980469 24.625 25.878906 24.433594 C 24.980469 24.625 24.328125 25.453125 24.378906 26.402344 L 24.570312 29.851562 C 24.570312 29.855469 24.570312 29.855469 24.570312 29.859375 M 26.171875 24.398438 L 26.578125 24.375 L 26.171875 24.398438 M 26.246094 22.632812 C 26.421875 22.484375 26.597656 22.339844 26.769531 22.195312 C 26.769531 22.199219 26.769531 22.199219 26.769531 22.203125 C 26.59375 22.34375 26.421875 22.484375 26.246094 22.632812 " fill-opacity="1" fill-rule="nonzero"/></g><g clip-path="url(#42fb19a091)"><path fill="#9fd0d2" d="M 39.402344 67.761719 L 11.054688 67.761719 L 13.5 55.722656 C 13.785156 54.316406 14.457031 53.054688 15.398438 52.050781 C 16.410156 50.972656 17.734375 50.195312 19.238281 49.859375 L 31.207031 47.179688 L 31.203125 47.195312 C 33.476562 49.011719 35.722656 50.074219 37.941406 50.40625 L 37.695312 50.40625 L 37.695312 59.25 L 39.476562 59.25 C 39.433594 64.382812 39.402344 67.761719 39.402344 67.761719 " fill-opacity="1" fill-rule="nonzero"/></g><path fill="#cf8538" d="M 39.542969 50.40625 L 37.941406 50.40625 C 35.722656 50.074219 33.476562 49.011719 31.203125 47.195312 L 31.207031 47.179688 L 31.890625 41.75 L 31.957031 41.234375 C 34.359375 43.363281 37.253906 44.785156 39.402344 44.785156 C 39.460938 44.785156 39.519531 44.785156 39.578125 44.78125 C 39.566406 46.707031 39.554688 48.59375 39.542969 50.40625 " fill-opacity="1" fill-rule="nonzero"/><path fill="#df8e41" d="M 27.460938 33.578125 C 25.894531 33.082031 24.710938 31.675781 24.578125 29.945312 C 24.578125 29.945312 24.578125 29.941406 24.578125 29.941406 C 24.574219 29.933594 24.574219 29.929688 24.574219 29.925781 C 24.574219 29.921875 24.574219 29.921875 24.574219 29.921875 C 24.574219 29.921875 24.574219 29.917969 24.574219 29.917969 C 24.574219 29.917969 24.574219 29.917969 24.574219 29.914062 C 24.574219 29.910156 24.574219 29.910156 24.574219 29.910156 C 24.574219 29.90625 24.574219 29.90625 24.574219 29.902344 C 24.574219 29.902344 24.574219 29.898438 24.574219 29.898438 C 24.574219 29.898438 24.574219 29.898438 24.574219 29.894531 C 24.574219 29.894531 24.574219 29.894531 24.574219 29.890625 C 24.574219 29.886719 24.574219 29.886719 24.574219 29.886719 C 24.574219 29.886719 24.574219 29.882812 24.574219 29.882812 C 24.570312 29.882812 24.570312 29.878906 24.570312 29.878906 C 24.570312 29.875 24.570312 29.875 24.570312 29.871094 C 24.570312 29.867188 24.570312 29.867188 24.570312 29.867188 C 24.570312 29.867188 24.570312 29.863281 24.570312 29.863281 C 24.570312 29.863281 24.570312 29.859375 24.570312 29.859375 C 24.570312 29.855469 24.570312 29.855469 24.570312 29.851562 L 24.378906 26.402344 C 24.328125 25.453125 24.980469 24.625 25.878906 24.433594 C 25.972656 24.414062 26.070312 24.402344 26.171875 24.398438 L 26.578125 24.375 C 26.574219 24.578125 26.570312 24.78125 26.570312 24.988281 C 26.570312 25.46875 27.257812 31.839844 27.460938 33.578125 " fill-opacity="1" fill-rule="nonzero"/><path fill="#612d20" d="M 39.402344 44.785156 C 37.253906 44.785156 34.359375 43.363281 31.957031 41.234375 L 31.957031 41.230469 C 29.75 39.277344 27.957031 36.726562 27.53125 34.132812 C 27.53125 34.128906 27.53125 34.128906 27.53125 34.125 C 27.53125 34.121094 27.53125 34.121094 27.53125 34.117188 C 27.53125 34.117188 27.53125 34.117188 27.527344 34.117188 C 27.527344 34.113281 27.527344 34.113281 27.527344 34.109375 C 27.527344 34.105469 27.527344 34.105469 27.527344 34.101562 C 27.527344 34.097656 27.527344 34.097656 27.527344 34.09375 C 27.523438 34.089844 27.523438 34.089844 27.523438 34.089844 C 27.523438 34.085938 27.523438 34.085938 27.523438 34.085938 C 27.523438 34.082031 27.523438 34.082031 27.523438 34.082031 C 27.523438 34.078125 27.523438 34.078125 27.523438 34.078125 C 27.523438 34.074219 27.523438 34.074219 27.523438 34.074219 C 27.523438 34.070312 27.523438 34.070312 27.523438 34.070312 C 27.519531 34.066406 27.519531 34.066406 27.519531 34.066406 C 27.519531 34.0625 27.519531 34.0625 27.519531 34.058594 C 27.519531 34.054688 27.519531 34.054688 27.519531 34.050781 C 27.519531 34.046875 27.519531 34.046875 27.519531 34.042969 C 27.519531 34.042969 27.519531 34.042969 27.515625 34.042969 C 27.515625 34.039062 27.515625 34.039062 27.515625 34.035156 C 27.515625 34.035156 27.515625 34.035156 27.515625 34.03125 C 27.515625 34.03125 27.515625 34.03125 27.515625 34.027344 C 27.515625 34.023438 27.515625 34.023438 27.515625 34.019531 C 27.511719 34.015625 27.511719 34.015625 27.511719 34.011719 C 27.511719 34.011719 27.511719 34.011719 27.511719 34.007812 C 27.511719 34.007812 27.511719 34.007812 27.511719 34.003906 C 27.511719 34.003906 27.511719 34.003906 27.511719 34 C 27.511719 34 27.511719 33.996094 27.511719 33.996094 C 27.511719 33.996094 27.511719 33.996094 27.511719 33.992188 C 27.511719 33.992188 27.507812 33.988281 27.507812 33.984375 C 27.5 33.929688 27.484375 33.785156 27.460938 33.578125 C 27.257812 31.839844 26.570312 25.472656 26.570312 24.988281 C 26.570312 24.78125 26.574219 24.578125 26.578125 24.375 L 26.582031 24.375 C 26.605469 23.625 26.671875 22.898438 26.773438 22.199219 C 26.773438 22.199219 26.769531 22.199219 26.769531 22.203125 C 26.769531 22.199219 26.769531 22.199219 26.769531 22.195312 C 30.894531 18.847656 35.027344 17.238281 39.175781 17.238281 C 39.328125 17.238281 39.480469 17.242188 39.632812 17.246094 C 39.640625 18.632812 39.648438 20.152344 39.648438 21.777344 L 39.332031 21.878906 L 33.160156 19.976562 C 32.863281 19.886719 32.5625 19.84375 32.269531 19.84375 C 30.746094 19.84375 29.394531 21.011719 29.257812 22.628906 L 28.714844 29.257812 C 28.714844 31.039062 29.453125 32.734375 30.753906 33.941406 L 31.691406 34.808594 C 32.347656 35.417969 32.71875 36.273438 32.71875 37.167969 C 32.71875 38.363281 32.71875 39.878906 32.71875 39.878906 C 32.71875 40.074219 32.875 40.230469 33.066406 40.230469 C 33.257812 40.230469 33.414062 40.074219 33.414062 39.878906 L 33.414062 39.28125 C 33.414062 37.304688 34.023438 35.378906 35.160156 33.765625 L 39.632812 33.765625 C 39.632812 34.335938 39.628906 34.90625 39.625 35.480469 C 39.398438 35.445312 39.164062 35.425781 38.925781 35.425781 C 37.179688 35.425781 35.664062 36.433594 34.929688 37.902344 C 34.46875 38.820312 35.171875 39.90625 36.199219 39.90625 C 36.199219 39.90625 36.203125 39.90625 36.207031 39.90625 L 39.605469 39.886719 C 39.597656 41.53125 39.589844 43.171875 39.578125 44.78125 C 39.519531 44.785156 39.460938 44.785156 39.402344 44.785156 " fill-opacity="1" fill-rule="nonzero"/><path fill="#df8e41" d="M 36.199219 39.90625 C 35.171875 39.90625 34.46875 38.820312 34.929688 37.902344 C 35.664062 36.433594 37.179688 35.425781 38.925781 35.425781 C 39.164062 35.425781 39.398438 35.445312 39.625 35.480469 C 39.621094 36.941406 39.613281 38.417969 39.605469 39.886719 L 36.207031 39.90625 C 36.203125 39.90625 36.199219 39.90625 36.199219 39.90625 " fill-opacity="1" fill-rule="nonzero"/><path fill="#df8e41" d="M 33.066406 40.230469 C 32.875 40.230469 32.71875 40.074219 32.71875 39.878906 C 32.71875 39.878906 32.71875 38.363281 32.71875 37.167969 C 32.71875 36.273438 32.347656 35.417969 31.691406 34.808594 L 30.753906 33.941406 C 29.453125 32.734375 28.714844 31.039062 28.714844 29.257812 L 29.257812 22.628906 C 29.394531 21.011719 30.746094 19.84375 32.269531 19.84375 C 32.5625 19.84375 32.863281 19.886719 33.160156 19.976562 L 39.332031 21.878906 L 39.648438 21.777344 C 39.65625 25.386719 39.648438 29.507812 39.632812 33.765625 L 35.160156 33.765625 C 34.023438 35.378906 33.414062 37.304688 33.414062 39.28125 L 33.414062 39.878906 C 33.414062 40.074219 33.257812 40.230469 33.066406 40.230469 " fill-opacity="1" fill-rule="nonzero"/><g clip-path="url(#f28a61181b)"><path fill="#9fd0d2" d="M 26.246094 22.632812 L 26.285156 22.0625 C 26.785156 14.429688 32.289062 9.246094 39.402344 9.246094 C 39.53125 9.246094 39.601562 12.402344 39.632812 17.246094 C 39.480469 17.242188 39.328125 17.238281 39.175781 17.238281 C 35.027344 17.238281 30.894531 18.847656 26.769531 22.195312 C 26.597656 22.339844 26.421875 22.484375 26.246094 22.632812 " fill-opacity="1" fill-rule="nonzero"/></g><path fill="#6c838c" d="M 39.476562 59.25 L 37.695312 59.25 L 37.695312 50.40625 L 39.542969 50.40625 C 39.519531 53.65625 39.496094 56.675781 39.476562 59.25 " fill-opacity="1" fill-rule="nonzero"/></svg>