<svg xmlns="http://www.w3.org/2000/svg" xmlns:xlink="http://www.w3.org/1999/xlink" width="500" zoomAndPan="magnify" viewBox="0 0 375 374.999991" height="500" preserveAspectRatio="xMidYMid meet" version="1.0"><defs><clipPath id="5a9391bfc3"><path d="M 0 0 L 85.941406 0 L 85.941406 85.941406 L 0 85.941406 Z M 0 0 " clip-rule="nonzero"/></clipPath><clipPath id="9f877fa6d9"><path d="M 42.96875 0 C 19.238281 0 0 19.238281 0 42.96875 C 0 66.703125 19.238281 85.941406 42.96875 85.941406 C 66.703125 85.941406 85.941406 66.703125 85.941406 42.96875 C 85.941406 19.238281 66.703125 0 42.96875 0 " clip-rule="nonzero"/></clipPath><clipPath id="bbe9343922"><path d="M 30 0.394531 L 70.761719 0.394531 L 70.761719 84 L 30 84 Z M 30 0.394531 " clip-rule="nonzero"/></clipPath><clipPath id="ab32b09ec8"><path d="M 11.386719 0.394531 L 52 0.394531 L 52 84 L 11.386719 84 Z M 11.386719 0.394531 " clip-rule="nonzero"/></clipPath></defs><g clip-path="url(#5a9391bfc3)"><g clip-path="url(#9f877fa6d9)"><path fill="#f9d3cb" d="M 0 0 L 85.941406 0 L 85.941406 85.941406 L 0 85.941406 Z M 0 0 " fill-opacity="1" fill-rule="nonzero"/></g></g><g clip-path="url(#bbe9343922)"><path fill="#000000" d="M 37.011719 79.324219 C 36.980469 76.589844 37.035156 74.972656 37.160156 74.890625 C 37.269531 74.820312 37.683594 74.761719 38.078125 74.761719 C 39.214844 74.761719 40.035156 74.566406 40.039062 74.292969 C 40.039062 73.9375 40.585938 73.800781 40.941406 74.066406 C 41.292969 74.332031 43.613281 74.464844 45.269531 74.320312 C 46.207031 74.234375 46.453125 74.148438 46.539062 73.863281 C 46.625 73.574219 46.746094 73.535156 47.257812 73.636719 C 47.597656 73.707031 48.230469 73.753906 48.667969 73.742188 C 49.105469 73.730469 49.972656 73.722656 50.601562 73.722656 C 51.464844 73.722656 51.742188 73.664062 51.742188 73.46875 C 51.742188 73.324219 51.835938 73.210938 51.949219 73.210938 C 52.085938 73.210938 52.089844 73.316406 51.957031 73.539062 C 51.796875 73.804688 51.421875 73.886719 49.898438 73.976562 C 48.875 74.035156 47.753906 74.035156 47.410156 73.972656 C 46.921875 73.882812 46.78125 73.917969 46.78125 74.132812 C 46.78125 74.289062 46.546875 74.449219 46.234375 74.503906 C 45.566406 74.621094 41.042969 74.679688 40.632812 74.574219 C 40.375 74.511719 40.324219 75.105469 40.265625 79.070312 C 40.222656 81.867188 40.121094 83.636719 40.003906 83.636719 C 39.882812 83.636719 39.863281 82.445312 39.949219 80.398438 C 40.023438 78.617188 40.023438 76.691406 39.945312 76.117188 L 39.800781 75.078125 L 38.925781 75.160156 C 37.359375 75.3125 37.382812 75.25 37.496094 79.3125 C 37.550781 81.28125 37.546875 83.058594 37.488281 83.261719 C 37.183594 84.289062 37.054688 83.230469 37.011719 79.324219 Z M 38.828125 79.816406 C 38.78125 77.671875 38.804688 75.84375 38.878906 75.757812 C 38.953125 75.671875 39.132812 75.640625 39.277344 75.691406 C 39.484375 75.765625 39.515625 76.570312 39.425781 79.753906 L 39.3125 83.722656 L 39.222656 79.820312 L 39.132812 75.914062 L 39.023438 79.820312 L 38.914062 83.722656 Z M 34.140625 74.992188 C 34.207031 74.933594 34.375 74.925781 34.519531 74.980469 C 34.675781 75.035156 34.628906 75.078125 34.398438 75.085938 C 34.191406 75.09375 34.074219 75.050781 34.140625 74.992188 Z M 38.449219 74.441406 L 38.945312 74.351562 L 38.453125 74.207031 L 37.957031 74.066406 L 38.4375 74.101562 C 39.140625 74.15625 39.214844 74.589844 38.515625 74.558594 C 37.972656 74.53125 37.96875 74.527344 38.449219 74.441406 Z M 52.339844 72.957031 C 52.339844 72.816406 52.429688 72.652344 52.539062 72.589844 C 52.648438 72.53125 52.738281 72.566406 52.738281 72.667969 C 52.738281 72.773438 52.875 72.859375 53.046875 72.859375 C 53.214844 72.859375 53.300781 72.941406 53.230469 73.035156 C 53.042969 73.308594 52.339844 73.246094 52.339844 72.957031 Z M 53.730469 72.691406 C 53.996094 72.53125 56.292969 72.421875 56.09375 72.578125 C 56.046875 72.617188 55.429688 72.695312 54.722656 72.757812 C 53.824219 72.835938 53.523438 72.816406 53.730469 72.691406 Z M 56.941406 72.488281 C 57.445312 72.367188 57.640625 72.234375 57.566406 72.0625 C 57.507812 71.921875 57.558594 71.808594 57.679688 71.808594 C 57.796875 71.8125 57.898438 71.882812 57.898438 71.96875 C 57.894531 72.226562 58.546875 72.375 58.699219 72.15625 C 58.804688 72.003906 58.875 72.007812 58.980469 72.164062 C 59.183594 72.457031 59.148438 72.464844 57.597656 72.570312 C 56.445312 72.648438 56.332031 72.636719 56.941406 72.488281 Z M 59.777344 72.027344 C 59.832031 71.980469 60.074219 71.847656 60.324219 71.734375 C 60.570312 71.621094 60.753906 71.433594 60.726562 71.320312 C 60.664062 71.0625 61.003906 71.046875 61.175781 71.296875 C 61.375 71.585938 60.921875 71.953125 60.273438 72.035156 C 59.949219 72.078125 59.726562 72.074219 59.777344 72.027344 Z M 54.382812 71.867188 C 54.445312 71.808594 54.617188 71.804688 54.761719 71.855469 C 54.917969 71.914062 54.871094 71.957031 54.640625 71.964844 C 54.433594 71.96875 54.316406 71.929688 54.382812 71.867188 Z M 56.707031 71.90625 C 56.707031 71.863281 56.796875 71.777344 56.90625 71.71875 C 57.015625 71.660156 57.105469 71.695312 57.105469 71.796875 C 57.105469 71.902344 57.015625 71.984375 56.90625 71.984375 C 56.796875 71.984375 56.707031 71.949219 56.707031 71.90625 Z M 54.230469 71.445312 C 54.296875 71.347656 54.441406 71.265625 54.550781 71.265625 C 54.660156 71.265625 54.695312 71.347656 54.625 71.445312 C 54.558594 71.542969 54.414062 71.621094 54.304688 71.621094 C 54.195312 71.621094 54.160156 71.539062 54.230469 71.445312 Z M 61.667969 71.273438 C 61.667969 71.1875 61.824219 71.113281 62.015625 71.109375 C 62.207031 71.105469 62.707031 70.992188 63.132812 70.859375 C 63.554688 70.726562 63.820312 70.6875 63.722656 70.777344 C 63.441406 71.023438 61.667969 71.457031 61.667969 71.273438 Z M 64.644531 70.152344 C 65.09375 69.726562 65.097656 69.691406 64.796875 69 C 64.625 68.605469 64.558594 68.285156 64.648438 68.285156 C 64.835938 68.285156 65.246094 69.261719 65.242188 69.707031 C 65.242188 69.871094 65.078125 70.140625 64.878906 70.300781 C 64.308594 70.757812 64.125 70.640625 64.644531 70.152344 Z M 64.320312 67.878906 C 64.320312 67.761719 64.253906 67.382812 64.171875 67.042969 C 64.074219 66.628906 64.089844 66.480469 64.222656 66.597656 C 64.503906 66.855469 64.710938 67.878906 64.5 67.996094 C 64.402344 68.046875 64.324219 67.996094 64.320312 67.878906 Z M 66.058594 67.6875 C 66.289062 67.496094 68.214844 66.757812 68.117188 66.898438 C 67.96875 67.105469 66.53125 67.761719 66.214844 67.757812 C 66.085938 67.757812 66.015625 67.726562 66.058594 67.6875 Z M 68.429688 66.480469 C 68.429688 66.429688 68.5625 66.292969 68.726562 66.171875 C 68.890625 66.050781 69.023438 65.992188 69.023438 66.039062 C 69.023438 66.089844 68.890625 66.226562 68.726562 66.347656 C 68.5625 66.46875 68.429688 66.527344 68.429688 66.480469 Z M 63.679688 65.8125 C 63.527344 65.554688 63.523438 65.441406 63.671875 65.445312 C 63.910156 65.445312 64.171875 65.941406 64.007812 66.089844 C 63.949219 66.140625 63.800781 66.019531 63.679688 65.8125 Z M 70.003906 65.214844 C 70.144531 65.066406 70.164062 64.925781 70.050781 64.863281 C 69.8125 64.726562 69.035156 63.390625 69.035156 63.113281 C 69.035156 62.996094 69.355469 63.359375 69.746094 63.921875 C 70.417969 64.890625 70.511719 65.46875 70 65.464844 C 69.828125 65.464844 69.832031 65.402344 70.003906 65.214844 Z M 63.292969 64.757812 C 63.175781 64.5625 63.085938 64.175781 63.09375 63.902344 C 63.109375 63.480469 63.152344 63.527344 63.382812 64.191406 C 63.679688 65.050781 63.632812 65.332031 63.292969 64.757812 Z M 58.917969 63.207031 C 58.921875 63.0625 58.957031 62.941406 59 62.941406 C 59.042969 62.941406 59.128906 63.0625 59.191406 63.210938 C 59.253906 63.355469 59.214844 63.476562 59.109375 63.476562 C 59.003906 63.476562 58.917969 63.355469 58.917969 63.207031 Z M 63.136719 63.03125 C 63.203125 62.972656 63.078125 62.550781 62.859375 62.097656 C 62.347656 61.027344 61.441406 58.554688 61.035156 57.132812 C 60.816406 56.375 60.777344 55.921875 60.910156 55.714844 C 61.050781 55.488281 60.957031 55.179688 60.539062 54.519531 C 60.226562 54.03125 59.875 53.398438 59.757812 53.113281 C 59.566406 52.660156 59.574219 52.625 59.84375 52.828125 C 60.007812 52.953125 60.144531 53.117188 60.144531 53.191406 C 60.144531 53.269531 60.457031 53.828125 60.839844 54.441406 C 61.472656 55.449219 61.507812 55.578125 61.230469 55.847656 C 60.953125 56.121094 61.035156 56.445312 62.117188 59.332031 C 62.773438 61.082031 63.359375 62.65625 63.417969 62.824219 C 63.484375 63.011719 63.425781 63.136719 63.273438 63.136719 C 63.132812 63.136719 63.070312 63.085938 63.136719 63.03125 Z M 68.285156 61.832031 C 68.164062 61.445312 68.101562 61.097656 68.148438 61.054688 C 68.292969 60.925781 68.664062 61.949219 68.585938 62.253906 C 68.546875 62.40625 68.410156 62.21875 68.285156 61.832031 Z M 67.746094 60.65625 C 67.675781 60.550781 67.660156 60.425781 67.710938 60.382812 C 67.761719 60.335938 67.859375 60.421875 67.921875 60.570312 C 68.054688 60.882812 67.941406 60.9375 67.746094 60.65625 Z M 65.96875 57.207031 C 65.792969 56.964844 65.683594 56.679688 65.722656 56.570312 C 65.765625 56.460938 65.949219 56.660156 66.132812 57.007812 C 66.519531 57.742188 66.433594 57.847656 65.96875 57.207031 Z M 64.433594 56.101562 C 64.359375 56.035156 64.300781 55.898438 64.300781 55.796875 C 64.300781 55.6875 64.394531 55.699219 64.535156 55.824219 C 64.664062 55.941406 64.722656 56.078125 64.667969 56.128906 C 64.609375 56.179688 64.503906 56.164062 64.433594 56.101562 Z M 64.742188 55.039062 C 63.941406 53.804688 64.058594 53.554688 64.882812 54.738281 C 65.386719 55.464844 65.640625 56.054688 65.441406 56.042969 C 65.414062 56.039062 65.101562 55.589844 64.742188 55.039062 Z M 63.613281 53.382812 C 63.738281 53.203125 61.621094 50.351562 61.363281 50.351562 C 61.101562 50.351562 59.375 46.996094 59.375 46.492188 C 59.375 46.292969 59.242188 46.03125 59.082031 45.90625 C 58.917969 45.785156 58.785156 45.597656 58.785156 45.484375 C 58.789062 45.183594 59.757812 46.3125 59.765625 46.625 C 59.78125 47.269531 63.117188 52.421875 63.746094 52.773438 C 63.988281 52.90625 63.953125 53.554688 63.703125 53.554688 C 63.585938 53.554688 63.546875 53.476562 63.613281 53.382812 Z M 54.71875 52.71875 C 54.648438 52.558594 54.601562 52.335938 54.609375 52.222656 C 54.617188 52.109375 54.707031 52.207031 54.808594 52.441406 C 54.914062 52.675781 54.964844 52.898438 54.917969 52.9375 C 54.875 52.976562 54.785156 52.875 54.71875 52.71875 Z M 59.191406 52.242188 C 58.949219 51.980469 58.367188 50.792969 58.371094 50.570312 C 58.375 50.492188 58.644531 50.859375 58.976562 51.378906 C 59.550781 52.28125 59.667969 52.765625 59.191406 52.242188 Z M 57.917969 49.679688 C 57.722656 49.335938 57.605469 49.015625 57.660156 48.96875 C 57.78125 48.859375 58.414062 49.96875 58.332031 50.160156 C 58.300781 50.242188 58.113281 50.023438 57.917969 49.679688 Z M 54.90625 48.199219 C 54.710938 48.003906 54.632812 47.84375 54.730469 47.84375 C 54.832031 47.84375 55.023438 48.003906 55.160156 48.199219 C 55.292969 48.398438 55.375 48.558594 55.335938 48.554688 C 55.296875 48.554688 55.105469 48.394531 54.90625 48.199219 Z M 58.378906 48.3125 C 58.378906 48.269531 58.46875 48.183594 58.578125 48.125 C 58.6875 48.066406 58.773438 48.101562 58.773438 48.203125 C 58.773438 48.308594 58.683594 48.390625 58.574219 48.390625 C 58.46875 48.390625 58.378906 48.355469 58.378906 48.3125 Z M 56.925781 47.734375 C 56.851562 47.667969 56.796875 47.488281 56.800781 47.335938 C 56.804688 47.105469 56.84375 47.113281 57.015625 47.378906 C 57.230469 47.707031 57.167969 47.953125 56.925781 47.734375 Z M 56.027344 46.046875 C 56.015625 45.886719 55.785156 45.40625 55.515625 44.980469 C 55.246094 44.554688 55.027344 44.089844 55.023438 43.941406 C 55.023438 43.695312 55.214844 43.957031 55.949219 45.230469 C 56.105469 45.5 56.191406 45.859375 56.144531 46.03125 C 56.0625 46.296875 56.046875 46.300781 56.027344 46.046875 Z M 58.074219 45.472656 C 58.007812 45.230469 58.007812 44.960938 58.074219 44.863281 C 58.140625 44.769531 57.96875 44.53125 57.691406 44.335938 C 57.363281 44.101562 57.269531 43.933594 57.414062 43.855469 C 57.804688 43.640625 58.238281 44.246094 58.300781 45.089844 C 58.363281 45.980469 58.265625 46.152344 58.074219 45.472656 Z M 51.742188 44.507812 C 51.367188 43.347656 51.507812 42.964844 52.320312 42.9375 C 52.835938 42.921875 53.011719 43.109375 52.660156 43.304688 C 52.5625 43.359375 52.449219 43.320312 52.410156 43.21875 C 52.367188 43.101562 52.191406 43.132812 51.949219 43.292969 C 51.621094 43.507812 51.589844 43.613281 51.785156 43.898438 C 52.042969 44.28125 52.34375 45.53125 52.175781 45.527344 C 52.117188 45.527344 51.921875 45.070312 51.742188 44.507812 Z M 54.464844 43.015625 C 54.070312 42.453125 54.066406 42.164062 54.457031 42.164062 C 54.566406 42.164062 54.601562 42.242188 54.535156 42.335938 C 54.46875 42.433594 54.554688 42.753906 54.722656 43.046875 C 55.132812 43.757812 54.96875 43.738281 54.464844 43.015625 Z M 56.269531 42.660156 C 55.972656 42.242188 55.648438 41.851562 55.550781 41.789062 C 55.453125 41.726562 55.5625 41.582031 55.796875 41.472656 C 56.300781 41.234375 56.328125 41.050781 55.921875 40.683594 C 55.535156 40.335938 53.0625 36.667969 53.066406 36.445312 C 53.066406 36.355469 52.800781 35.933594 52.476562 35.511719 C 52.15625 35.085938 51.746094 34.351562 51.570312 33.878906 C 51.398438 33.402344 51.054688 32.816406 50.816406 32.570312 C 50.078125 31.820312 47.835938 28.722656 48.292969 29.082031 C 48.527344 29.269531 49.007812 29.828125 49.355469 30.328125 C 49.707031 30.828125 50.265625 31.53125 50.601562 31.894531 C 51.195312 32.53125 51.988281 33.816406 52.117188 34.34375 C 52.152344 34.484375 52.332031 34.757812 52.519531 34.949219 C 52.707031 35.140625 53.21875 35.902344 53.660156 36.644531 C 54.097656 37.386719 54.898438 38.621094 55.441406 39.386719 C 56.351562 40.683594 56.683594 41.640625 56.21875 41.640625 C 56.109375 41.640625 56.019531 41.722656 56.019531 41.824219 C 56.019531 42.128906 56.867188 43.0625 57.144531 43.0625 C 57.289062 43.0625 57.40625 43.144531 57.402344 43.242188 C 57.402344 43.675781 56.765625 43.351562 56.269531 42.660156 Z M 51.789062 41.859375 C 51.71875 41.796875 51.65625 41.660156 51.660156 41.558594 C 51.660156 41.445312 51.75 41.457031 51.894531 41.585938 C 52.023438 41.703125 52.082031 41.835938 52.023438 41.886719 C 51.96875 41.9375 51.863281 41.925781 51.789062 41.859375 Z M 53.964844 41.179688 C 53.777344 40.734375 53.832031 40.617188 54.066406 40.980469 C 54.179688 41.15625 54.230469 41.339844 54.179688 41.386719 C 54.128906 41.433594 54.03125 41.339844 53.964844 41.179688 Z M 50.425781 38.914062 C 50.375 38.789062 50.34375 38.644531 50.355469 38.585938 C 50.371094 38.527344 50.246094 38.332031 50.082031 38.152344 C 49.910156 37.957031 49.890625 37.878906 50.035156 37.957031 C 50.367188 38.136719 50.933594 39.136719 50.703125 39.136719 C 50.601562 39.136719 50.476562 39.035156 50.425781 38.914062 Z M 51.558594 38.5 C 51.496094 38.3125 51.320312 37.855469 51.171875 37.484375 C 50.984375 37.007812 50.972656 36.828125 51.132812 36.875 C 51.359375 36.945312 51.921875 38.617188 51.761719 38.757812 C 51.714844 38.800781 51.625 38.683594 51.558594 38.5 Z M 50.894531 37.820312 C 50.886719 37.632812 50.933594 37.527344 51 37.585938 C 51.066406 37.648438 51.070312 37.800781 51.011719 37.929688 C 50.949219 38.070312 50.902344 38.027344 50.894531 37.820312 Z M 49.304688 37.066406 C 49.074219 36.710938 48.9375 36.375 49.007812 36.3125 C 49.148438 36.1875 49.53125 36.726562 49.722656 37.3125 C 49.90625 37.878906 49.792969 37.8125 49.304688 37.066406 Z M 50.722656 36.125 C 50.484375 35.835938 50.292969 35.519531 50.292969 35.425781 C 50.292969 35.328125 50.089844 34.902344 49.839844 34.480469 C 49.203125 33.402344 48.691406 32.207031 48.867188 32.210938 C 49.039062 32.21875 51.34375 36.476562 51.230469 36.578125 C 51.1875 36.617188 50.957031 36.414062 50.722656 36.125 Z M 49.511719 36.21875 C 49.503906 36.03125 49.550781 35.925781 49.617188 35.984375 C 49.683594 36.042969 49.6875 36.199219 49.632812 36.324219 C 49.566406 36.46875 49.519531 36.425781 49.511719 36.21875 Z M 48.515625 35.773438 C 48.242188 35.3125 48.261719 35.039062 48.535156 35.46875 C 48.707031 35.730469 48.785156 35.75 48.914062 35.5625 C 49.007812 35.433594 49.140625 35.378906 49.214844 35.445312 C 49.289062 35.511719 49.207031 35.691406 49.035156 35.84375 C 48.75 36.09375 48.703125 36.089844 48.515625 35.773438 Z M 48.511719 34.613281 C 48.511719 34.472656 48.59375 34.3125 48.691406 34.257812 C 48.789062 34.203125 48.824219 34.320312 48.765625 34.515625 C 48.644531 34.929688 48.507812 34.980469 48.511719 34.613281 Z M 47.164062 31.492188 C 47.164062 31.25 47.210938 31.148438 47.265625 31.269531 C 47.320312 31.394531 47.320312 31.59375 47.261719 31.714844 C 47.207031 31.835938 47.164062 31.738281 47.164062 31.492188 Z M 47.972656 31.058594 C 47.730469 30.609375 47.535156 30.136719 47.535156 30.007812 C 47.535156 29.878906 47.316406 29.402344 47.046875 28.945312 C 46.78125 28.492188 46.636719 28.121094 46.730469 28.121094 C 47.027344 28.121094 47.292969 28.542969 47.699219 29.660156 C 47.914062 30.261719 48.195312 30.925781 48.320312 31.136719 C 48.445312 31.34375 48.515625 31.597656 48.480469 31.695312 C 48.441406 31.792969 48.214844 31.507812 47.972656 31.058594 Z M 48.238281 30.484375 C 48.132812 30.230469 48.15625 30.210938 48.351562 30.386719 C 48.484375 30.503906 48.546875 30.648438 48.484375 30.703125 C 48.425781 30.757812 48.3125 30.660156 48.238281 30.484375 Z M 45.085938 27.574219 C 45.164062 27.140625 45.339844 26.464844 45.476562 26.074219 C 45.714844 25.402344 45.726562 25.394531 45.734375 25.898438 C 45.746094 26.496094 45.328125 28.027344 45.09375 28.230469 C 45.011719 28.304688 45.007812 28.011719 45.085938 27.574219 Z M 46.363281 27.246094 C 46.210938 26.988281 46.207031 26.875 46.355469 26.875 C 46.59375 26.878906 46.855469 27.375 46.691406 27.519531 C 46.632812 27.574219 46.484375 27.449219 46.363281 27.246094 Z M 46.375 25.445312 C 46.367188 25.195312 46.492188 24.835938 46.65625 24.648438 C 47.039062 24.195312 47.046875 24.628906 46.664062 25.367188 C 46.390625 25.898438 46.390625 25.898438 46.375 25.445312 Z M 46.019531 24.023438 C 46.210938 23.921875 46.367188 23.765625 46.367188 23.667969 C 46.367188 23.574219 46.679688 23.09375 47.058594 22.605469 C 47.4375 22.113281 47.808594 21.417969 47.882812 21.058594 C 47.957031 20.699219 48.105469 20.308594 48.210938 20.1875 C 48.503906 19.859375 48.507812 17.351562 48.21875 17.089844 C 48.085938 16.972656 47.988281 16.671875 48.003906 16.421875 C 48.023438 16.0625 48.046875 16.039062 48.125 16.316406 C 48.179688 16.507812 48.339844 16.828125 48.480469 17.027344 C 49.023438 17.796875 49.164062 18.761719 48.875 19.789062 C 48.398438 21.480469 47.753906 22.875 47.28125 23.242188 C 47.03125 23.4375 46.769531 23.734375 46.699219 23.90625 C 46.628906 24.082031 46.378906 24.210938 46.125 24.207031 C 45.722656 24.203125 45.710938 24.183594 46.019531 24.023438 Z M 46.960938 23.871094 C 46.960938 23.769531 47.050781 23.683594 47.160156 23.683594 C 47.269531 23.683594 47.359375 23.722656 47.359375 23.765625 C 47.359375 23.808594 47.269531 23.890625 47.160156 23.953125 C 47.050781 24.011719 46.960938 23.976562 46.960938 23.871094 Z M 40.839844 16.496094 C 40.839844 16.457031 40.972656 16.378906 41.136719 16.324219 C 41.300781 16.269531 41.433594 16.300781 41.433594 16.394531 C 41.433594 16.488281 41.300781 16.566406 41.136719 16.566406 C 40.972656 16.566406 40.839844 16.535156 40.839844 16.496094 Z M 31.128906 14.890625 C 30.878906 14.082031 30.636719 12.785156 30.589844 12.003906 C 30.480469 10.191406 30.570312 10.113281 33.597656 9.441406 C 36.054688 8.894531 36.808594 8.621094 37.320312 8.097656 C 37.753906 7.652344 38.097656 6.699219 38.101562 5.925781 C 38.105469 5.015625 38.683594 4.109375 39.527344 3.695312 C 40.191406 3.367188 40.230469 3.308594 39.976562 2.996094 C 39.265625 2.117188 40.066406 0.769531 41.296875 0.773438 C 42.613281 0.777344 43.3125 1.675781 42.824219 2.742188 C 42.554688 3.324219 42.5625 3.347656 43.375 4.054688 C 44.152344 4.738281 44.203125 4.84375 44.304688 6.050781 C 44.5 8.308594 45.117188 8.828125 48.796875 9.847656 C 49.941406 10.164062 51.03125 10.546875 51.222656 10.699219 C 51.777344 11.148438 51.546875 13.25 50.71875 15.304688 C 50.511719 15.816406 50.460938 15.839844 50.226562 15.566406 C 49.988281 15.292969 49.976562 15.296875 50.101562 15.617188 C 50.222656 15.925781 50.203125 15.9375 49.925781 15.703125 C 49.695312 15.511719 49.664062 15.355469 49.804688 15.117188 C 49.910156 14.941406 49.957031 14.695312 49.90625 14.574219 C 49.757812 14.226562 48.21875 13.894531 47.21875 13.996094 C 46.714844 14.046875 45.765625 14.136719 45.113281 14.191406 C 44.457031 14.25 43.628906 14.453125 43.273438 14.648438 C 42.917969 14.84375 42.628906 14.953125 42.628906 14.894531 C 42.628906 14.671875 41.441406 15.34375 41.238281 15.679688 C 41.023438 16.035156 40.445312 16.171875 40.445312 15.871094 C 40.445312 15.78125 39.664062 15.453125 38.710938 15.140625 C 36.460938 14.402344 34.679688 14.359375 33.417969 15.015625 C 32.957031 15.253906 32.464844 15.574219 32.324219 15.722656 C 32.183594 15.875 31.992188 15.953125 31.894531 15.902344 C 31.800781 15.847656 31.773438 15.929688 31.839844 16.082031 C 31.902344 16.230469 31.871094 16.355469 31.769531 16.355469 C 31.664062 16.355469 31.375 15.695312 31.128906 14.890625 Z M 43.339844 14.167969 C 44.691406 13.789062 45.425781 13.695312 47.175781 13.683594 C 49.152344 13.667969 49.390625 13.703125 49.96875 14.085938 C 50.3125 14.3125 50.613281 14.472656 50.636719 14.441406 C 50.84375 14.140625 51.175781 12.953125 51.285156 12.140625 C 51.410156 11.210938 51.386719 11.117188 50.933594 10.851562 C 50.667969 10.695312 49.519531 10.3125 48.382812 10.003906 C 47.25 9.699219 45.992188 9.296875 45.597656 9.113281 C 44.707031 8.707031 44.136719 7.6875 43.964844 6.199219 C 43.828125 5.039062 43.5 4.597656 42.359375 4.042969 C 41.566406 3.65625 41.542969 3.558594 42.078125 2.953125 C 42.589844 2.375 42.578125 2.148438 42.007812 1.546875 C 41.566406 1.085938 41.5 1.070312 40.964844 1.289062 L 40.398438 1.527344 L 41.054688 1.777344 C 41.757812 2.046875 41.863281 2.585938 41.234375 2.691406 C 40.976562 2.734375 40.886719 2.632812 40.890625 2.292969 C 40.890625 2.007812 40.78125 1.835938 40.59375 1.835938 C 40.15625 1.835938 40.222656 2.609375 40.6875 2.988281 C 41.238281 3.4375 41.1875 3.589844 40.398438 3.882812 C 39.265625 4.300781 38.75 4.941406 38.59375 6.113281 C 38.417969 7.410156 37.773438 8.558594 36.996094 8.953125 C 36.667969 9.121094 35.296875 9.535156 33.945312 9.871094 C 32.597656 10.210938 31.359375 10.589844 31.195312 10.710938 C 30.972656 10.875 30.921875 11.160156 30.996094 11.835938 C 31.089844 12.648438 31.683594 15.113281 31.824219 15.261719 C 31.855469 15.292969 32.226562 15.113281 32.648438 14.867188 C 33.558594 14.332031 35.277344 14.007812 36.386719 14.160156 C 37.328125 14.289062 39.550781 14.902344 40.21875 15.21875 C 40.632812 15.414062 40.753906 15.394531 41.179688 15.042969 C 41.449219 14.820312 42.421875 14.425781 43.339844 14.167969 Z M 41.832031 16.097656 C 41.832031 15.953125 41.917969 15.886719 42.023438 15.945312 C 42.132812 16.003906 42.496094 15.925781 42.835938 15.769531 C 43.480469 15.472656 43.761719 15.515625 43.519531 15.863281 C 43.441406 15.976562 43.257812 16.023438 43.109375 15.972656 C 42.960938 15.921875 42.792969 15.945312 42.734375 16.027344 C 42.535156 16.3125 41.832031 16.371094 41.832031 16.097656 Z M 37.589844 15.914062 C 36.945312 15.773438 36.320312 15.667969 36.203125 15.679688 C 35.589844 15.742188 34.246094 15.640625 34.359375 15.539062 C 34.433594 15.476562 34.757812 15.429688 35.089844 15.441406 C 35.425781 15.449219 35.6875 15.367188 35.691406 15.25 C 35.691406 15.125 35.773438 15.148438 35.886719 15.304688 C 35.992188 15.453125 36.078125 15.523438 36.078125 15.460938 C 36.082031 15.367188 36.59375 15.453125 38.800781 15.90625 C 39.171875 15.984375 39.359375 16.207031 39.039062 16.1875 C 38.882812 16.179688 38.230469 16.058594 37.589844 15.914062 Z M 44.414062 15.335938 C 44.578125 15.242188 44.800781 15.164062 44.910156 15.164062 C 45.019531 15.164062 44.972656 15.242188 44.808594 15.335938 C 44.644531 15.429688 44.421875 15.507812 44.3125 15.507812 C 44.203125 15.507812 44.25 15.429688 44.414062 15.335938 Z M 44.414062 15.335938 " fill-opacity="1" fill-rule="nonzero"/></g><g clip-path="url(#ab32b09ec8)"><path fill="#000000" d="M 41.339844 78.914062 C 41.308594 74.964844 41.261719 74.371094 41.007812 74.4375 C 40.597656 74.539062 36.539062 74.457031 35.632812 74.328125 C 35.152344 74.257812 34.894531 74.125 34.894531 73.949219 C 34.898438 73.738281 34.757812 73.703125 34.28125 73.785156 C 33.945312 73.84375 32.796875 73.839844 31.734375 73.773438 C 30.078125 73.667969 29.789062 73.605469 29.707031 73.324219 C 29.65625 73.144531 29.691406 72.996094 29.792969 72.996094 C 29.890625 72.996094 29.96875 73.125 29.96875 73.285156 C 29.96875 73.519531 30.109375 73.550781 30.75 73.464844 C 31.179688 73.402344 31.933594 73.453125 32.425781 73.570312 C 33.179688 73.753906 33.410156 73.746094 33.863281 73.519531 C 34.515625 73.195312 35.019531 73.269531 35.148438 73.710938 C 35.253906 74.082031 36.460938 74.285156 36.992188 74.023438 C 37.21875 73.910156 37.273438 73.921875 37.179688 74.058594 C 36.996094 74.324219 40.371094 74.203125 40.675781 73.933594 C 40.992188 73.652344 41.601562 73.703125 41.597656 74.015625 C 41.597656 74.363281 42.386719 74.628906 43.433594 74.636719 C 43.886719 74.640625 44.347656 74.703125 44.457031 74.773438 C 44.691406 74.929688 44.574219 83.472656 44.332031 83.472656 C 44.011719 83.472656 43.96875 82.671875 44.089844 79.074219 L 44.214844 75.398438 L 43.566406 75.191406 C 43.210938 75.078125 42.671875 74.984375 42.371094 74.984375 C 41.851562 74.980469 41.8125 75.035156 41.675781 75.996094 C 41.597656 76.554688 41.582031 78.464844 41.644531 80.238281 C 41.714844 82.277344 41.6875 83.464844 41.566406 83.460938 C 41.449219 83.460938 41.359375 81.699219 41.339844 78.914062 Z M 42.167969 79.597656 C 42.101562 76.429688 42.136719 75.628906 42.347656 75.558594 C 42.488281 75.507812 42.667969 75.539062 42.742188 75.625 C 42.8125 75.710938 42.820312 77.53125 42.753906 79.667969 L 42.636719 83.554688 L 42.5625 79.667969 L 42.492188 75.78125 L 42.25 83.554688 Z M 42.585938 74.300781 C 42.585938 74.214844 42.722656 74.042969 42.890625 73.917969 C 43.121094 73.75 43.25 73.746094 43.421875 73.898438 C 43.59375 74.054688 43.53125 74.109375 43.167969 74.121094 L 42.683594 74.136719 L 43.175781 74.28125 L 43.667969 74.421875 L 43.125 74.4375 C 42.828125 74.449219 42.585938 74.386719 42.585938 74.300781 Z M 28.527344 72.859375 C 28.480469 72.785156 28.515625 72.566406 28.601562 72.375 C 28.761719 72.019531 28.761719 72.019531 28.792969 72.375 C 28.808594 72.570312 28.863281 72.628906 28.921875 72.507812 C 28.976562 72.382812 29.097656 72.328125 29.191406 72.378906 C 29.4375 72.515625 29.191406 72.996094 28.875 72.992188 C 28.730469 72.992188 28.574219 72.933594 28.527344 72.859375 Z M 26.816406 72.523438 L 25.535156 72.3125 L 26.621094 72.300781 C 27.21875 72.292969 27.835938 72.363281 27.996094 72.453125 C 28.476562 72.726562 28.164062 72.746094 26.816406 72.523438 Z M 23.613281 72.316406 C 22.738281 72.25 22.441406 72.0625 22.859375 71.832031 C 22.957031 71.777344 23.078125 71.832031 23.121094 71.953125 C 23.179688 72.113281 23.347656 72.082031 23.753906 71.847656 C 24.132812 71.628906 24.273438 71.601562 24.210938 71.765625 C 24.15625 71.910156 24.359375 72.085938 24.730469 72.214844 C 25.363281 72.433594 25.289062 72.4375 23.613281 72.316406 Z M 21.460938 71.78125 C 20.863281 71.695312 20.414062 71.300781 20.605469 71.027344 C 20.78125 70.777344 21.117188 70.796875 21.054688 71.054688 C 21.027344 71.171875 21.316406 71.40625 21.695312 71.578125 C 22.398438 71.898438 22.382812 71.910156 21.460938 71.78125 Z M 26.875 71.640625 C 26.9375 71.582031 27.109375 71.578125 27.25 71.628906 C 27.410156 71.6875 27.363281 71.726562 27.132812 71.734375 C 26.925781 71.742188 26.808594 71.699219 26.875 71.640625 Z M 27.019531 71.21875 C 26.855469 71.125 26.8125 71.046875 26.921875 71.046875 C 27.03125 71.046875 27.25 71.125 27.414062 71.222656 C 27.574219 71.316406 27.621094 71.394531 27.511719 71.390625 C 27.402344 71.390625 27.179688 71.3125 27.019531 71.21875 Z M 19.613281 70.933594 C 19.40625 70.789062 19.328125 70.671875 19.441406 70.667969 C 19.554688 70.664062 19.820312 70.78125 20.03125 70.925781 C 20.242188 71.066406 20.320312 71.1875 20.207031 71.191406 C 20.089844 71.191406 19.824219 71.078125 19.613281 70.933594 Z M 16.859375 70.050781 C 16.648438 69.910156 16.523438 69.757812 16.578125 69.707031 C 16.632812 69.65625 16.898438 69.769531 17.167969 69.957031 C 17.726562 70.34375 17.4375 70.433594 16.859375 70.050781 Z M 16.6875 68.886719 C 16.761719 68.546875 16.890625 68.1875 16.976562 68.09375 C 17.058594 67.996094 17.191406 67.578125 17.269531 67.167969 C 17.347656 66.753906 17.5 66.367188 17.609375 66.304688 C 17.738281 66.234375 17.765625 66.378906 17.6875 66.703125 C 17.617188 66.980469 17.527344 67.371094 17.484375 67.5625 C 17.4375 67.757812 17.210938 68.273438 16.980469 68.710938 C 16.570312 69.476562 16.558594 69.484375 16.6875 68.886719 Z M 14.742188 67.179688 C 14.433594 67.027344 14.226562 66.867188 14.28125 66.820312 C 14.335938 66.769531 14.71875 66.894531 15.136719 67.09375 C 15.550781 67.292969 15.757812 67.453125 15.597656 67.453125 C 15.433594 67.453125 15.050781 67.332031 14.742188 67.179688 Z M 17.773438 65.542969 C 17.773438 65.453125 17.863281 65.328125 17.96875 65.269531 C 18.078125 65.207031 18.167969 65.285156 18.167969 65.433594 C 18.167969 65.585938 18.078125 65.710938 17.96875 65.710938 C 17.859375 65.710938 17.773438 65.632812 17.773438 65.542969 Z M 11.597656 65.039062 C 11.523438 64.972656 11.464844 64.824219 11.464844 64.703125 C 11.46875 64.398438 12.785156 62.6875 12.921875 62.808594 C 12.984375 62.867188 12.859375 63.109375 12.648438 63.351562 C 12.433594 63.59375 12.257812 63.890625 12.257812 64.011719 C 12.257812 64.132812 12.121094 64.332031 11.957031 64.453125 C 11.730469 64.621094 11.710938 64.730469 11.882812 64.917969 C 12.101562 65.15625 11.847656 65.265625 11.597656 65.039062 Z M 18.179688 64.828125 C 18.175781 64.777344 18.300781 64.382812 18.457031 63.945312 C 18.714844 63.21875 18.742188 63.199219 18.75 63.691406 C 18.757812 63.988281 18.632812 64.386719 18.472656 64.574219 C 18.3125 64.761719 18.179688 64.875 18.179688 64.828125 Z M 22.640625 62.988281 C 22.703125 62.84375 22.789062 62.722656 22.832031 62.722656 C 22.875 62.722656 22.910156 62.84375 22.90625 62.988281 C 22.90625 63.132812 22.820312 63.253906 22.714844 63.253906 C 22.609375 63.253906 22.578125 63.132812 22.640625 62.988281 Z M 18.378906 62.792969 C 18.375 62.695312 18.558594 62.179688 18.785156 61.644531 C 19.011719 61.113281 19.5625 59.703125 20.007812 58.515625 C 20.839844 56.308594 21.265625 55.671875 20.664062 57.535156 C 19.988281 59.636719 18.394531 63.304688 18.378906 62.792969 Z M 13.15625 61.960938 C 13.453125 61.117188 13.660156 60.699219 13.746094 60.777344 C 13.886719 60.902344 13.453125 62.136719 13.21875 62.261719 C 13.078125 62.339844 13.058594 62.242188 13.15625 61.960938 Z M 13.847656 60.414062 C 13.847656 60.316406 13.9375 60.191406 14.046875 60.128906 C 14.152344 60.070312 14.242188 60.101562 14.242188 60.199219 C 14.242188 60.296875 14.152344 60.421875 14.042969 60.484375 C 13.933594 60.542969 13.847656 60.511719 13.847656 60.414062 Z M 15.238281 57.894531 C 15.238281 57.832031 15.414062 57.414062 15.625 56.96875 C 16.023438 56.144531 16.367188 55.851562 16.117188 56.546875 C 15.964844 56.96875 15.238281 58.085938 15.238281 57.894531 Z M 20.734375 55.753906 C 20.382812 55.324219 20.375 55.339844 22.78125 51.414062 C 23.167969 50.785156 23.601562 49.929688 23.746094 49.519531 C 23.890625 49.105469 24.074219 48.769531 24.15625 48.769531 C 24.34375 48.769531 24.144531 49.449219 23.917969 49.574219 C 23.820312 49.628906 23.742188 49.804688 23.742188 49.96875 C 23.738281 50.269531 23.375 50.941406 21.707031 53.730469 C 21.097656 54.753906 20.863281 55.3125 20.996094 55.433594 C 21.105469 55.53125 21.164062 55.730469 21.128906 55.878906 C 21.074219 56.089844 20.988281 56.058594 20.734375 55.753906 Z M 17.21875 55.867188 C 17.21875 55.789062 17.308594 55.605469 17.414062 55.460938 C 17.578125 55.230469 17.605469 55.234375 17.609375 55.492188 C 17.609375 55.65625 17.519531 55.839844 17.414062 55.902344 C 17.304688 55.960938 17.214844 55.945312 17.21875 55.867188 Z M 16.84375 54.792969 C 17.605469 53.589844 17.589844 53.609375 17.722656 53.726562 C 17.855469 53.847656 16.578125 55.800781 16.363281 55.804688 C 16.273438 55.808594 16.488281 55.351562 16.84375 54.792969 Z M 18.03125 53.214844 C 18.023438 53 18.5625 52.128906 19.234375 51.277344 C 19.90625 50.425781 20.804688 49.113281 21.226562 48.367188 C 21.652344 47.617188 22.082031 46.957031 22.1875 46.898438 C 22.289062 46.84375 22.320312 46.601562 22.257812 46.363281 C 22.183594 46.101562 22.222656 45.933594 22.355469 45.933594 C 22.476562 45.933594 22.574219 46.097656 22.574219 46.296875 C 22.570312 46.753906 20.675781 50.347656 20.4375 50.34375 C 20.222656 50.34375 18.359375 52.730469 18.179688 53.238281 C 18.054688 53.597656 18.050781 53.597656 18.03125 53.214844 Z M 26.914062 52.84375 C 26.914062 52.695312 26.992188 52.417969 27.085938 52.222656 C 27.195312 52 27.257812 51.96875 27.257812 52.136719 C 27.257812 52.28125 27.179688 52.558594 27.085938 52.753906 C 26.976562 52.976562 26.914062 53.007812 26.914062 52.84375 Z M 23.160156 48.058594 C 23.160156 47.960938 23.199219 47.882812 23.246094 47.882812 C 23.292969 47.882812 23.386719 47.960938 23.453125 48.058594 C 23.519531 48.15625 23.480469 48.234375 23.367188 48.234375 C 23.25 48.234375 23.15625 48.15625 23.160156 48.058594 Z M 24.742188 47.589844 C 24.742188 47.507812 24.832031 47.324219 24.9375 47.179688 C 25.101562 46.953125 25.128906 46.957031 25.128906 47.214844 C 25.132812 47.378906 25.042969 47.5625 24.933594 47.621094 C 24.824219 47.683594 24.738281 47.667969 24.742188 47.589844 Z M 25.746094 45.871094 C 25.738281 45.6875 25.785156 45.582031 25.847656 45.640625 C 25.914062 45.699219 25.921875 45.851562 25.863281 45.980469 C 25.800781 46.121094 25.753906 46.078125 25.746094 45.871094 Z M 22.773438 45.605469 C 22.773438 45.507812 22.863281 45.378906 22.972656 45.316406 C 23.078125 45.257812 23.167969 45.289062 23.167969 45.386719 C 23.167969 45.484375 23.078125 45.613281 22.96875 45.671875 C 22.859375 45.730469 22.773438 45.699219 22.773438 45.605469 Z M 23.703125 44.96875 C 23.828125 43.996094 24.046875 43.644531 24.515625 43.644531 C 24.753906 43.644531 24.730469 43.734375 24.390625 44.054688 C 24.152344 44.277344 23.953125 44.613281 23.945312 44.804688 C 23.9375 44.992188 23.851562 45.304688 23.757812 45.496094 C 23.648438 45.726562 23.625 45.535156 23.703125 44.96875 Z M 28.292969 45.558594 C 28.292969 45.507812 28.425781 45.371094 28.589844 45.25 C 28.753906 45.128906 28.886719 45.070312 28.886719 45.121094 C 28.886719 45.167969 28.753906 45.304688 28.589844 45.425781 C 28.425781 45.546875 28.292969 45.605469 28.292969 45.558594 Z M 25.933594 45.195312 C 25.9375 44.976562 26.710938 43.996094 26.714844 44.199219 C 26.722656 44.359375 26.109375 45.417969 26.011719 45.417969 C 25.964844 45.417969 25.929688 45.316406 25.933594 45.195312 Z M 29.792969 44.730469 C 29.867188 44.394531 30.027344 43.972656 30.148438 43.792969 C 30.328125 43.53125 30.296875 43.417969 29.988281 43.210938 C 29.722656 43.03125 29.566406 43.015625 29.472656 43.152344 C 29.398438 43.257812 29.292969 43.277344 29.238281 43.195312 C 29.1875 43.109375 29.285156 42.925781 29.464844 42.777344 C 29.640625 42.632812 29.765625 42.542969 29.742188 42.582031 C 29.71875 42.617188 29.878906 42.777344 30.097656 42.9375 C 30.425781 43.175781 30.46875 43.347656 30.355469 43.972656 C 30.28125 44.382812 30.09375 44.859375 29.9375 45.03125 C 29.683594 45.308594 29.667969 45.277344 29.792969 44.730469 Z M 27.214844 42.988281 C 27.390625 42.667969 27.480469 42.332031 27.414062 42.238281 C 27.351562 42.140625 27.390625 42.066406 27.503906 42.066406 C 27.847656 42.066406 27.734375 42.652344 27.300781 43.125 L 26.898438 43.566406 Z M 24.554688 43.113281 C 24.554688 43.019531 24.679688 42.9375 24.832031 42.9375 C 24.988281 42.941406 25.378906 42.582031 25.707031 42.140625 C 26.035156 41.699219 26.355469 41.414062 26.417969 41.507812 C 26.484375 41.601562 26.46875 41.703125 26.386719 41.738281 C 26.304688 41.769531 25.992188 42.132812 25.6875 42.542969 C 25.1875 43.226562 24.554688 43.546875 24.554688 43.113281 Z M 29.882812 41.730469 C 29.886719 41.628906 29.972656 41.542969 30.082031 41.542969 C 30.191406 41.542969 30.28125 41.578125 30.28125 41.621094 C 30.277344 41.664062 30.191406 41.75 30.082031 41.808594 C 29.972656 41.867188 29.882812 41.832031 29.882812 41.730469 Z M 25.550781 41.074219 C 25.550781 40.824219 25.773438 40.363281 26.046875 40.042969 C 26.316406 39.726562 26.539062 39.414062 26.542969 39.347656 C 26.542969 39.28125 26.785156 38.890625 27.085938 38.484375 C 27.796875 37.511719 29.121094 35.414062 30.015625 33.839844 C 30.738281 32.566406 31.871094 31.214844 31.882812 31.605469 C 31.886719 31.722656 31.636719 32.078125 31.328125 32.398438 C 31.019531 32.714844 30.601562 33.375 30.398438 33.859375 C 30.199219 34.34375 29.78125 35.074219 29.476562 35.476562 C 29.167969 35.882812 28.917969 36.285156 28.917969 36.375 C 28.917969 36.515625 27.296875 39.035156 26.738281 39.765625 C 26.628906 39.910156 26.476562 40.148438 26.402344 40.292969 C 26.332031 40.441406 26.148438 40.625 26 40.703125 C 25.839844 40.789062 25.777344 40.988281 25.847656 41.1875 C 25.917969 41.378906 25.875 41.53125 25.757812 41.527344 C 25.640625 41.527344 25.546875 41.324219 25.550781 41.074219 Z M 27.722656 41.269531 C 27.722656 41.171875 27.808594 40.976562 27.917969 40.828125 C 28.023438 40.683594 28.109375 40.644531 28.109375 40.742188 C 28.105469 40.839844 28.019531 41.039062 27.914062 41.183594 C 27.808594 41.328125 27.722656 41.367188 27.722656 41.269531 Z M 30.082031 41.203125 C 30.085938 41.109375 30.171875 40.988281 30.28125 40.929688 C 30.390625 40.867188 30.425781 40.9375 30.355469 41.09375 C 30.222656 41.398438 30.082031 41.457031 30.082031 41.203125 Z M 31.371094 38.589844 C 31.539062 38.324219 31.761719 37.984375 31.863281 37.839844 C 31.964844 37.695312 32.199219 37.277344 32.378906 36.914062 C 32.5625 36.550781 32.789062 36.253906 32.882812 36.253906 C 33.109375 36.253906 33.109375 36.558594 32.886719 36.679688 C 32.789062 36.734375 32.421875 37.292969 32.070312 37.925781 C 31.714844 38.558594 31.34375 39.074219 31.246094 39.074219 C 31.148438 39.074219 31.203125 38.855469 31.371094 38.589844 Z M 30.164062 38.507812 C 30.222656 38.347656 30.328125 37.929688 30.402344 37.582031 C 30.539062 36.949219 30.804688 36.640625 31.035156 36.851562 C 31.101562 36.910156 31.050781 37.054688 30.921875 37.167969 C 30.792969 37.28125 30.6875 37.542969 30.6875 37.75 C 30.6875 37.953125 30.546875 38.273438 30.371094 38.464844 C 30.125 38.734375 30.082031 38.746094 30.164062 38.507812 Z M 30.898438 37.761719 C 30.890625 37.578125 30.9375 37.472656 31.003906 37.53125 C 31.070312 37.589844 31.078125 37.742188 31.019531 37.871094 C 30.957031 38.011719 30.910156 37.96875 30.898438 37.761719 Z M 30.691406 36.539062 C 30.691406 36.457031 30.816406 36.175781 30.96875 35.921875 C 31.121094 35.664062 31.65625 34.699219 32.160156 33.777344 C 32.664062 32.855469 33.074219 32.25 33.074219 32.425781 C 33.070312 32.605469 32.757812 33.3125 32.375 34.003906 C 31.996094 34.691406 31.679688 35.339844 31.675781 35.441406 C 31.664062 35.667969 30.691406 36.75 30.691406 36.539062 Z M 32.285156 36.175781 C 32.277344 35.992188 32.324219 35.886719 32.390625 35.945312 C 32.457031 36.003906 32.460938 36.15625 32.40625 36.285156 C 32.339844 36.425781 32.292969 36.382812 32.285156 36.175781 Z M 33.261719 35.8125 C 33.265625 35.714844 33.351562 35.515625 33.457031 35.371094 C 33.5625 35.226562 33.648438 35.1875 33.648438 35.285156 C 33.648438 35.382812 33.5625 35.578125 33.453125 35.726562 C 33.347656 35.871094 33.261719 35.910156 33.261719 35.8125 Z M 32.667969 35.554688 C 32.667969 35.453125 32.757812 35.367188 32.863281 35.371094 C 32.972656 35.371094 33.0625 35.40625 33.0625 35.449219 C 33.0625 35.492188 32.972656 35.574219 32.863281 35.632812 C 32.753906 35.695312 32.667969 35.660156 32.667969 35.554688 Z M 32.570312 35.015625 C 32.503906 34.917969 32.542969 34.839844 32.65625 34.839844 C 32.773438 34.839844 32.867188 34.917969 32.867188 35.015625 C 32.867188 35.113281 32.828125 35.191406 32.777344 35.191406 C 32.730469 35.191406 32.636719 35.113281 32.570312 35.015625 Z M 33.210938 34.5 C 33.125 34.207031 33.152344 34.136719 33.296875 34.269531 C 33.410156 34.371094 33.464844 34.5625 33.417969 34.6875 C 33.367188 34.820312 33.277344 34.742188 33.210938 34.5 Z M 33.65625 34.6875 C 33.65625 34.589844 33.746094 34.460938 33.855469 34.402344 C 33.960938 34.339844 34.050781 34.371094 34.050781 34.46875 C 34.050781 34.566406 33.960938 34.695312 33.851562 34.753906 C 33.746094 34.8125 33.65625 34.785156 33.65625 34.6875 Z M 34.691406 31.578125 C 34.6875 31.285156 34.730469 31.144531 34.785156 31.265625 C 34.835938 31.382812 34.839844 31.621094 34.789062 31.792969 C 34.738281 31.964844 34.695312 31.867188 34.691406 31.578125 Z M 33.480469 31.621094 C 33.472656 31.453125 33.648438 31.054688 33.867188 30.738281 C 34.085938 30.421875 34.265625 30.003906 34.273438 29.808594 C 34.289062 29.316406 34.90625 28.261719 35.230469 28.167969 C 35.394531 28.121094 35.300781 28.390625 34.980469 28.878906 C 34.695312 29.308594 34.457031 29.816406 34.453125 30 C 34.4375 30.441406 33.488281 32.023438 33.480469 31.621094 Z M 32.089844 31.148438 C 32.09375 30.921875 33.613281 29.011719 33.792969 29.011719 C 33.917969 29.011719 33.800781 29.195312 32.925781 30.332031 C 32.117188 31.394531 32.089844 31.417969 32.089844 31.148438 Z M 36.730469 28.027344 C 36.660156 27.746094 36.527344 27.289062 36.425781 27.007812 C 36.199219 26.359375 36.199219 25.839844 36.425781 25.839844 C 36.519531 25.839844 36.691406 26.414062 36.804688 27.117188 C 37.011719 28.390625 36.960938 28.988281 36.730469 28.027344 Z M 35.261719 27.480469 C 35.261719 27.269531 35.347656 27.046875 35.457031 26.984375 C 35.710938 26.847656 35.707031 27.257812 35.457031 27.605469 C 35.300781 27.820312 35.261719 27.796875 35.261719 27.480469 Z M 35.3125 25.226562 C 35.1875 24.84375 35.117188 24.5 35.160156 24.460938 C 35.324219 24.316406 35.683594 25.167969 35.613281 25.539062 C 35.554688 25.84375 35.492188 25.777344 35.3125 25.226562 Z M 35.515625 24.128906 C 35.382812 24.078125 35.273438 23.9375 35.273438 23.808594 C 35.273438 23.683594 35.066406 23.457031 34.8125 23.308594 C 34.335938 23.023438 33.167969 20.261719 33.078125 19.203125 C 33.019531 18.476562 33.300781 17.316406 33.617188 16.996094 C 33.757812 16.851562 33.921875 16.570312 33.972656 16.378906 C 34.050781 16.089844 34.074219 16.109375 34.09375 16.476562 C 34.105469 16.722656 34.011719 17.015625 33.890625 17.125 C 33.765625 17.234375 33.660156 17.867188 33.652344 18.527344 C 33.632812 19.960938 34.234375 21.75 35.09375 22.820312 C 35.410156 23.214844 35.667969 23.613281 35.667969 23.707031 C 35.667969 23.800781 35.820312 23.957031 36.011719 24.058594 C 36.277344 24.195312 36.285156 24.238281 36.058594 24.230469 C 35.898438 24.222656 35.652344 24.179688 35.515625 24.128906 Z M 34.679688 23.714844 C 34.679688 23.617188 34.71875 23.535156 34.769531 23.539062 C 34.816406 23.539062 34.910156 23.617188 34.976562 23.714844 C 35.042969 23.8125 35.003906 23.890625 34.890625 23.890625 C 34.773438 23.890625 34.679688 23.8125 34.679688 23.714844 Z M 39.683594 16.359375 C 39.550781 16.316406 39.445312 16.148438 39.457031 15.984375 C 39.464844 15.800781 39.507812 15.773438 39.570312 15.910156 C 39.726562 16.257812 40.089844 16.171875 39.953125 15.824219 C 39.84375 15.539062 39.859375 15.542969 40.109375 15.835938 C 40.316406 16.074219 40.410156 16.097656 40.488281 15.925781 C 40.5625 15.761719 40.597656 15.757812 40.609375 15.910156 C 40.625 16.171875 40.019531 16.46875 39.683594 16.359375 Z M 49.816406 16.089844 C 48.808594 14.699219 46.261719 14.328125 43.582031 15.179688 C 42.769531 15.4375 41.96875 15.75 41.804688 15.871094 C 41.359375 16.207031 40.820312 16.132812 40.820312 15.734375 C 40.820312 15.5 40.726562 15.425781 40.519531 15.496094 C 40.347656 15.554688 40.167969 15.484375 40.105469 15.335938 C 40.042969 15.191406 39.855469 15.074219 39.691406 15.074219 C 39.527344 15.070312 39.113281 14.917969 38.777344 14.730469 C 38.441406 14.542969 37.632812 14.335938 36.980469 14.277344 C 36.332031 14.214844 35.386719 14.121094 34.886719 14.066406 C 33.894531 13.957031 32.363281 14.277344 32.210938 14.625 C 32.160156 14.742188 32.222656 15.015625 32.347656 15.230469 C 32.53125 15.539062 32.527344 15.589844 32.332031 15.484375 C 32.1875 15.402344 31.988281 15.464844 31.847656 15.636719 C 31.648438 15.882812 31.539062 15.714844 31.164062 14.558594 C 30.917969 13.808594 30.675781 12.671875 30.628906 12.039062 L 30.539062 10.886719 L 31.203125 10.605469 C 31.570312 10.453125 32.667969 10.113281 33.644531 9.847656 C 35.84375 9.253906 37.003906 8.675781 37.414062 7.964844 C 37.589844 7.667969 37.800781 6.820312 37.878906 6.089844 C 38.019531 4.808594 38.058594 4.734375 38.859375 4.097656 C 39.320312 3.734375 39.617188 3.394531 39.519531 3.339844 C 38.898438 2.992188 39.25 1.300781 39.996094 1.046875 C 41.597656 0.5 43.101562 1.976562 42.160156 3.175781 C 41.890625 3.511719 41.917969 3.558594 42.539062 3.828125 C 43.449219 4.21875 43.808594 4.78125 44.019531 6.128906 C 44.386719 8.523438 44.660156 8.738281 48.429688 9.609375 C 51.464844 10.3125 51.554688 10.390625 51.433594 12.199219 C 51.339844 13.59375 50.554688 16.523438 50.273438 16.523438 C 50.195312 16.523438 49.988281 16.328125 49.816406 16.089844 Z M 42.996094 14.929688 C 43.917969 14.652344 45.097656 14.382812 45.621094 14.328125 C 46.945312 14.191406 48.65625 14.515625 49.441406 15.058594 C 49.804688 15.308594 50.128906 15.480469 50.167969 15.445312 C 50.3125 15.300781 50.910156 12.953125 51.003906 12.152344 C 51.070312 11.585938 51.011719 11.210938 50.824219 11 C 50.664062 10.816406 49.535156 10.421875 48.113281 10.054688 C 46.773438 9.707031 45.414062 9.28125 45.09375 9.113281 C 44.289062 8.6875 43.824219 7.898438 43.601562 6.574219 C 43.347656 5.0625 43.105469 4.699219 42 4.195312 C 41.484375 3.957031 41.0625 3.695312 41.0625 3.617188 C 41.0625 3.535156 41.238281 3.328125 41.457031 3.152344 C 41.921875 2.777344 41.996094 2.003906 41.566406 2.003906 C 41.40625 2.003906 41.316406 2.101562 41.367188 2.222656 C 41.503906 2.566406 41.140625 2.949219 40.789062 2.828125 C 40.34375 2.671875 40.398438 2.160156 40.871094 2.050781 C 41.085938 2.003906 41.265625 1.886719 41.265625 1.792969 C 41.265625 1.703125 41.375 1.679688 41.511719 1.742188 C 41.648438 1.804688 41.585938 1.726562 41.375 1.574219 C 40.84375 1.183594 40.570312 1.222656 40.097656 1.757812 C 39.585938 2.335938 39.582031 2.539062 40.078125 3.105469 C 40.601562 3.707031 40.574219 3.863281 39.898438 4.109375 C 38.867188 4.488281 38.351562 5.160156 38.203125 6.320312 C 38.011719 7.78125 37.460938 8.734375 36.554688 9.179688 C 36.148438 9.382812 34.839844 9.800781 33.644531 10.109375 C 32.449219 10.417969 31.308594 10.800781 31.105469 10.957031 C 30.675781 11.292969 30.726562 12.128906 31.292969 13.972656 C 31.574219 14.890625 31.664062 15.027344 31.753906 14.679688 C 31.914062 14.070312 32.996094 13.636719 34.34375 13.640625 C 35.667969 13.644531 38.875 14.132812 39.140625 14.371094 C 39.242188 14.464844 39.46875 14.542969 39.636719 14.542969 C 39.859375 14.542969 41.292969 15.296875 41.316406 15.421875 C 41.316406 15.429688 42.074219 15.207031 42.996094 14.929688 Z M 42.988281 16.15625 C 42.988281 16.054688 43.054688 15.980469 43.136719 15.996094 C 43.21875 16.011719 43.417969 15.980469 43.582031 15.921875 C 43.96875 15.789062 45.601562 15.601562 45.828125 15.664062 C 45.925781 15.691406 46.078125 15.554688 46.160156 15.359375 C 46.3125 15.011719 46.316406 15.011719 46.328125 15.371094 C 46.339844 15.6875 46.152344 15.769531 45.011719 15.957031 C 44.277344 16.078125 43.523438 16.214844 43.332031 16.261719 C 43.144531 16.308594 42.988281 16.261719 42.988281 16.15625 Z M 38.542969 15.941406 C 38.363281 15.679688 38.535156 15.570312 38.917969 15.703125 C 39.097656 15.765625 39.191406 15.886719 39.132812 15.972656 C 38.984375 16.1875 38.703125 16.171875 38.542969 15.941406 Z M 46.664062 15.621094 C 46.800781 15.503906 47.027344 15.5 47.34375 15.613281 C 47.792969 15.777344 47.78125 15.785156 47.140625 15.792969 C 46.671875 15.800781 46.523438 15.746094 46.664062 15.621094 Z M 46.664062 15.621094 " fill-opacity="1" fill-rule="nonzero"/></g></svg>